<?xml version="1.0" encoding="utf-8"?>
<!-- Generator: Adobe Illustrator 24.0.0, SVG Export Plug-In . SVG Version: 6.00 Build 0)  -->
<svg version="1.1" id="Capa_1" xmlns="http://www.w3.org/2000/svg" xmlns:xlink="http://www.w3.org/1999/xlink" x="0px" y="0px"
	 viewBox="0 0 54.8 49.8" style="enable-background:new 0 0 54.8 49.8;" xml:space="preserve">
<style type="text/css">
	.st0{fill:#FFFFFF;}
</style>
<g>
	<path class="st0" d="M26.1,14.1v14.1h8.5c0.7,0,1.4-0.6,1.4-1.4v0c0-0.7-0.6-1.4-1.4-1.4h-5.8V14.1c0-0.7-0.6-1.4-1.4-1.4h0
		C26.7,12.7,26.1,13.3,26.1,14.1z"/>
	<path class="st0" d="M52.6,25.1c0-12.9-10.5-23.4-23.4-23.4c-11.6,0-21.2,8.5-23.1,19.5H2.3l6.5,11.2l6.7-11.2h-3.9
		c1.8-8.1,9-14.1,17.6-14.1c9.9,0,18,8.1,18,18c0,8.6-6.1,15.8-14.1,17.6v5.5C44.1,46.3,52.6,36.7,52.6,25.1z"/>
	<path class="st0" d="M6.3,45.7L8,43.9c1.1-1.2,1.9-2.1,2.3-2.7c0.4-0.6,0.6-1.3,0.6-2.1c0-1.2-0.4-2.1-1.2-2.8
		c-0.8-0.7-1.9-1-3.3-1c-1.3,0-2.4,0.4-3.2,1.2c-0.8,0.8-1.2,1.8-1.2,3l0,0.1h2.9c0-0.7,0.1-1.1,0.4-1.5c0.3-0.4,0.6-0.6,1-0.6
		c0.5,0,0.9,0.1,1.1,0.4C7.9,38.2,8,38.6,8,39c0,0.3-0.1,0.7-0.4,1.2c-0.2,0.5-0.6,1-1.1,1.6l-4.1,4.3v2h8.8v-2.4L6.3,45.7L6.3,45.7
		z"/>
	<path class="st0" d="M19.4,35.4h-2.9v0l-5.1,8.2l0.1,1.8h5v2.7h2.9v-2.7h1.4v-2.2h-1.4L19.4,35.4z M16.5,43.2H14l2.2-3.6l0.3-0.4
		l0.1,0V43.2z"/>
	<path class="st0" d="M30.4,48.1v-5.5c0-0.4,0-0.8,0-1.1c-0.1-0.9-0.4-1.6-0.8-2c-0.6-0.7-1.3-1-2.3-1c-0.5,0-0.9,0.1-1.3,0.4
		s-0.8,0.6-1,1v-4.5h-3v12.9h3v-6.9c0-0.2,0.3-0.3,0.5-0.4c0.2-0.1,0.4-0.1,0.7-0.1c0.4,0,0.8,0.1,1,0.4c0.2,0.3,0.3,0.8,0.3,1.5
		v5.5h1H30.4L30.4,48.1z"/>
</g>
</svg>
