<?xml version="1.0" encoding="utf-8"?>
<!-- Generator: Adobe Illustrator 24.0.0, SVG Export Plug-In . SVG Version: 6.00 Build 0)  -->
<svg version="1.1" id="Capa_1" xmlns="http://www.w3.org/2000/svg" xmlns:xlink="http://www.w3.org/1999/xlink" x="0px" y="0px"
	 viewBox="0 0 51 35.4" style="enable-background:new 0 0 51 35.4;" xml:space="preserve">
<style type="text/css">
	.st0{fill:#FFFFFF;}
</style>
<g>
	<g>
		<g>
			<path class="st0" d="M33.5,23.1c-0.1,0-0.2,0-0.4,0c-1.2-0.1-2.2-1.1-2.2-2.2c0-0.5-0.5-1-1.1-1c-0.6,0-1.1,0.4-1.1,1
				c0,1.9,1.4,3.5,3.4,4v1c0,0.5,0.5,1,1.1,1s1.1-0.4,1.1-1V25c2.3-0.4,3.9-2.4,3.6-4.5c-0.2-2.1-2.2-3.7-4.6-3.7
				c-1.4,0-2.5-1-2.5-2.2s1.1-2.2,2.5-2.2s2.5,1,2.5,2.2c0,0.5,0.5,1,1.1,1c0.6,0,1.1-0.4,1.1-1c0-2-1.5-3.7-3.7-4.1V9.6
				c0-0.5-0.5-1-1.1-1s-1.1,0.4-1.1,1v0.9c-2.2,0.5-3.7,2.5-3.4,4.6s2.3,3.6,4.6,3.6c1.3,0,2.4,1,2.5,2.2
				C35.9,22.1,34.8,23.1,33.5,23.1z"/>
		</g>
		<g>
			<path class="st0" d="M33.4,33.4c8.7,0,15.7-7,15.7-15.7S42.1,2,33.4,2s-15.7,7-15.7,15.7C17.7,26.4,24.7,33.4,33.4,33.4z
				 M19.9,17.7c0-7.5,6.1-13.5,13.5-13.5s13.5,6.1,13.5,13.5s-6.1,13.5-13.5,13.5C25.9,31.2,19.9,25.2,19.9,17.7z"/>
		</g>
		<g>
			<path class="st0" d="M13.3,16.6H3c-0.6,0-1.1,0.5-1.1,1.1c0,0.6,0.5,1.1,1.1,1.1h10.3c0.6,0,1.1-0.5,1.1-1.1
				C14.4,17.1,13.9,16.6,13.3,16.6z"/>
		</g>
		<g>
			<path class="st0" d="M14.7,8.5H9.8C9.2,8.5,8.7,9,8.7,9.6s0.5,1.1,1.1,1.1h4.9c0.6,0,1.1-0.5,1.1-1.1S15.3,8.5,14.7,8.5z"/>
		</g>
		<g>
			<path class="st0" d="M14.7,24.8H9.8c-0.6,0-1.1,0.5-1.1,1.1c0,0.6,0.5,1.1,1.1,1.1h4.9c0.6,0,1.1-0.5,1.1-1.1
				C15.7,25.2,15.3,24.8,14.7,24.8z"/>
		</g>
	</g>
</g>
</svg>
