<?xml version="1.0" encoding="utf-8"?>
<!-- Generator: Adobe Illustrator 24.0.0, SVG Export Plug-In . SVG Version: 6.00 Build 0)  -->
<svg version="1.1" id="Capa_1" xmlns="http://www.w3.org/2000/svg" xmlns:xlink="http://www.w3.org/1999/xlink" x="0px" y="0px"
	 viewBox="0 0 237.8 236.8" style="enable-background:new 0 0 237.8 236.8;" xml:space="preserve">
<style type="text/css">
	.st0{fill:#FFFFFF;}
</style>
<g>
	<path class="st0" d="M118.8,19.5c54.3,0,98.5,44.2,98.5,98.5s-44.2,98.5-98.5,98.5S20.3,172.3,20.3,118S64.5,19.5,118.8,19.5
		 M118.8,3.4C55.5,3.4,4.2,54.7,4.2,118s51.3,114.6,114.6,114.6S233.4,181.3,233.4,118S182.1,3.4,118.8,3.4L118.8,3.4z"/>
	<g>
		<g>
			<path class="st0" d="M118.8,183.5c-5.8,0-10.5-4.7-10.5-10.5v-70.4c0-5.8,4.7-10.5,10.5-10.5s10.5,4.7,10.5,10.5V173
				C129.3,178.7,124.6,183.5,118.8,183.5z"/>
		</g>
		<circle class="st0" cx="118.8" cy="64.9" r="12.4"/>
	</g>
</g>
</svg>
