<?xml version="1.0" encoding="utf-8"?>
<!-- Generator: Adobe Illustrator 24.0.0, SVG Export Plug-In . SVG Version: 6.00 Build 0)  -->
<svg version="1.1" id="Capa_1" xmlns="http://www.w3.org/2000/svg" xmlns:xlink="http://www.w3.org/1999/xlink" x="0px" y="0px"
	 viewBox="0 0 244.2 244.2" style="enable-background:new 0 0 244.2 244.2;" xml:space="preserve">
<style type="text/css">
	.st0{fill:#FFFFFF;}
</style>
<g>
	<g>
		<g>
			<path class="st0" d="M198.8,9.1H45.5c-20,0-36.3,16.3-36.3,36.3v42.3c0,12.5,6.5,24,16.8,30.6c-1.2,4.4-1.9,8.9-1.9,13.7
				c0,0.8-13.6-3.5-14.9,9.4v84.2c0,5.2,4.2,9.4,9.4,9.4h114.7c5.2,0,9.4-4.2,9.4-9.4v-84.2c-1.2-12.6-14.9-8.8-14.9-9.4
				c0-2.7-0.2-5.4-0.6-7.9h71.7c20,0,36.3-16.3,36.3-36.3V45.5C235.1,25.4,218.8,9.1,198.8,9.1z M123.8,216.3H27.9v-65.4h95.9V216.3
				z M42.8,132.1c0.5-17.9,15.1-32.2,33.1-32.2s32.6,14.3,33.1,32.2H42.8z M216.3,87.8c0,9.6-7.8,17.5-17.5,17.5h-79
				C110.6,90.9,94.2,81,75.8,81c-16.7,0-31.8,8.1-41.3,20.4c-4.1-3.3-6.6-8.3-6.6-13.7V45.5c0-9.6,7.8-17.5,17.5-17.5h153.3
				c9.6,0,17.5,7.8,17.5,17.5L216.3,87.8L216.3,87.8z"/>
			<path class="st0" d="M63.4,57.2h-3c-4.8,0-8.6,4.2-8.6,9.4s3.8,9.4,8.6,9.4h3c4.8,0,8.6-4.2,8.6-9.4S68.2,57.2,63.4,57.2z"/>
			<path class="st0" d="M103.5,57.2h-3c-4.8,0-8.6,4.2-8.6,9.4s3.8,9.4,8.6,9.4h3c4.8,0,8.6-4.2,8.6-9.4S108.3,57.2,103.5,57.2z"/>
			<path class="st0" d="M143.6,57.2h-3c-4.8,0-8.6,4.2-8.6,9.4s3.8,9.4,8.6,9.4h3c4.8,0,8.6-4.2,8.6-9.4S148.4,57.2,143.6,57.2z"/>
			<path class="st0" d="M183.8,57.2h-3c-4.8,0-8.6,4.2-8.6,9.4s3.8,9.4,8.6,9.4h3c4.8,0,8.6-4.2,8.6-9.4S188.6,57.2,183.8,57.2z"/>
		</g>
	</g>
</g>
</svg>
