<?xml version="1.0" encoding="utf-8"?>
<!-- Generator: Adobe Illustrator 24.0.0, SVG Export Plug-In . SVG Version: 6.00 Build 0)  -->
<svg version="1.1" id="Capa_1" xmlns="http://www.w3.org/2000/svg" xmlns:xlink="http://www.w3.org/1999/xlink" x="0px" y="0px"
	 viewBox="0 0 237.8 276.1" style="enable-background:new 0 0 237.8 276.1;" xml:space="preserve">
<style type="text/css">
	.st0{fill:#FFFFFF;}
</style>
<g>
	<path class="st0" d="M121.3,267.4c-1.7,0-3.4,0-5.1,0c-12-4.5-24.4-8.4-36.1-13.7C61,245.1,44,233.3,30.1,217.3
		c-16.2-18.6-24.7-40.1-24.7-64.9c0-15.5,0-31,0-46.6c0-26.9,0-53.8,0-80.7c0-6.7,2.9-11.9,8.9-15c6-3,11.8-2.4,17.1,1.6
		c9.3,7.1,19.9,10.9,31.5,11.9c16.3,1.4,31.5-1.4,45-11.3c7.5-5.5,13.9-5.4,21.6,0c2.8,2,5.7,4.1,8.8,5.4c23.5,9.8,46.1,9,67.4-5.9
		c5.6-3.9,11.5-4.8,17.6-1.6c6,3.2,8.7,8.4,8.7,15.1c0,42.7,0,85.4,0,128c0,23.4-8,43.9-22.8,61.8C195,232.5,177,245,156.7,254.1
		C145.2,259.2,133.1,263,121.3,267.4z M86.4,121.5c-11.9,1.2-16.2,9.7-16.2,16.7c0,10.5-0.1,21.1,0,31.6c0.1,9.6,6.9,16.5,16.4,16.5
		c21.4,0.1,42.8,0.1,64.3,0c9.4,0,16.3-6.9,16.4-16.3c0.1-10.7,0.1-21.4,0-32.1c-0.1-6.8-3.3-11.9-9.6-14.8c-2-0.9-4.3-1.2-6.6-1.9
		c0-5.8,0.2-11.6,0-17.4c-0.5-16.4-14.4-30.2-30.8-30.8c-18.5-0.7-33.6,13.5-33.9,32C86.3,110.6,86.4,115.9,86.4,121.5z"/>
	<path class="st0" d="M135,121.6c-10.9,0-21.5,0-32.2,0c-0.1-0.6-0.2-1.1-0.2-1.7c0-4.8-0.1-9.6,0-14.4c0.2-9.1,7.2-16.1,16.1-16.2
		c8.9-0.1,16,7,16.3,16.2C135.1,110.8,135,116.1,135,121.6z"/>
	<path class="st0" d="M126.9,154c0,4.4-3.6,8.1-8,8.1c-4.4,0.1-8.1-3.5-8.2-7.9c-0.1-4.5,3.6-8.2,8.1-8.2
		C123.2,146,126.8,149.6,126.9,154z"/>
</g>
</svg>
