<?xml version="1.0" encoding="utf-8"?>
<!-- Generator: Adobe Illustrator 24.0.0, SVG Export Plug-In . SVG Version: 6.00 Build 0)  -->
<svg version="1.1" id="Capa_1" xmlns="http://www.w3.org/2000/svg" xmlns:xlink="http://www.w3.org/1999/xlink" x="0px" y="0px"
	 viewBox="0 0 48.2 35.1" style="enable-background:new 0 0 48.2 35.1;" xml:space="preserve">
<style type="text/css">
	.st0{fill:#FFFFFF;}
</style>
<g>
	<path class="st0" d="M39,23.7c-2.7,0.3-7.6,0.8-14.8,0.8c-7.2,0-12-0.4-14.5-0.8c-1.2-0.2-2.3,0.9-2.1,2.1c0.4,2.8,1.3,4.8,2.6,6
		c1.7,1.6,5.6,2.9,8.9,2.9c3.5,0,2.8-2.2,5.3-2.2c2.2,0,2,2.3,5.5,2.3c2.7,0,5-0.8,6.8-1.8c1.1-0.6,2.1-1.6,2.7-2.7
		c0.9-1.5,1.4-3.1,1.6-4.4C41.3,24.7,40.3,23.5,39,23.7z M17,31.3c-2-0.3-4-1.1-4-2.9c0-1.5,4.1-1.3,4.1-1.3s3.8,0,3.8,1.9
		C20.7,30.6,19.3,31.5,17,31.3z M31.6,31.3c-2.3,0.2-3.7-0.6-3.9-2.3c0-1.9,3.8-1.9,3.8-1.9s4-0.2,4.1,1.3
		C35.6,30.2,33.6,31,31.6,31.3z"/>
	<path class="st0" d="M9.3,14.8c0,0-9,0.9-9,3s9.6,3.8,24.4,3.8s23.1-1.7,23.1-3.7s-7.7-3-8.8-3L35.8,2.7c0,0-1-2.4-3.2-2.4
		c-2.8,0-3.7,2.2-8.1,2.2c-5.3,0-5.4-2.2-8.6-2.2c-2.3,0-3,2.2-3,2.2L9.3,14.8z"/>
</g>
</svg>
