<?xml version="1.0" encoding="utf-8"?>
<!-- Generator: Adobe Illustrator 24.0.0, SVG Export Plug-In . SVG Version: 6.00 Build 0)  -->
<svg version="1.1" id="Capa_1" xmlns="http://www.w3.org/2000/svg" xmlns:xlink="http://www.w3.org/1999/xlink" x="0px" y="0px"
	 viewBox="0 0 35.9 38.2" style="enable-background:new 0 0 35.9 38.2;" xml:space="preserve">
<style type="text/css">
	.st0{fill:#FFFFFF;}
</style>
<g>
	<path class="st0" d="M32.2,7l3.1-3.5c0.3-0.4,0.3-0.9,0.1-1.3c-0.2-0.4-0.6-0.7-1.1-0.7H21c-0.7,0-1.2,0.5-1.2,1.2v5.8V11v2
		c-2.1,0-4.7,0-6.1,0c1-1.3,1.5-3.1,1.1-5c-0.5-2.3-2.4-4.1-4.7-4.6C6.3,2.7,2.9,5.6,2.9,9.4c0,1.5,0.6,2.9,1.5,4
		c-2.5,2-3.6,4.6-4,9.3c0,2,0,4.3,2.6,4.8l1,5.2c0.7,2.8,2.6,4.5,4.8,4.5c2.2,0,4.1-1.8,4.8-4.6l1.2-5.9c0.6-1.7,1.1-3.6,1.2-5.4
		l3.7-0.7v14.9c0,0.7,0.5,1.2,1.2,1.2c0.7,0,1.2-0.5,1.2-1.2V20.2c0-0.1,0-0.1,0-0.2c1.6-0.5,2.5-2,2.5-3.4c0-1.5-0.8-2.9-2.4-3.4
		v-1h12.1c0.5,0,0.9-0.3,1.1-0.7c0.2-0.4,0.2-0.9-0.1-1.3L32.2,7z M22.2,9.8V8.6V4h9.7l-2.7,3l2.7,2.8H22.2z M8.9,5.8
		c2,0,3.6,1.6,3.6,3.6S10.9,13,8.9,13c-2,0-3.6-1.6-3.6-3.6S6.9,5.8,8.9,5.8z M21,17.8c-0.1,0-0.2,0-0.2,0L14.8,19
		c-0.1,0-0.2,0-0.3,0.1c-0.5,0.2-0.8,0.6-0.8,1.1c0,1.9-0.4,3.9-1.1,5.6c0,0.1,0,0.1-0.1,0.2l-1.2,6c-0.4,1.6-1.4,2.7-2.5,2.7
		c-1.1,0-2-1.1-2.4-2.7l-1.2-6c-0.1-0.6-0.6-1-1.2-1c-1.2,0-1.2,0-1.2-2.3c0.4-4.5,1.5-6.2,3.2-7.6c0.1-0.1,0.2-0.1,0.2-0.2
		c0,0,0.1-0.1,0.1-0.1c0.2,0.1,0.5,0.2,0.8,0.3l1,1.5l-1.5,5.9c-0.1,0.3,0,0.6,0.2,0.9l1.3,1.7c0.4,0.6,1.2,0.6,1.7,0l1.3-1.7
		c0.2-0.2,0.3-0.6,0.2-0.9l-1.5-5.9l1-1.5c0.3-0.1,0.5-0.2,0.8-0.3c0,0,0.1,0.1,0.1,0.1c0.1,0.1,0.1,0.2,0.2,0.2
		c0.4,0.3,0.4,0.3,9.2,0.3c1.1,0,1.2,1,1.2,1.2C22.2,16.8,22.1,17.8,21,17.8z"/>
</g>
</svg>
