<?xml version="1.0" encoding="utf-8"?>
<!-- Generator: Adobe Illustrator 24.0.0, SVG Export Plug-In . SVG Version: 6.00 Build 0)  -->
<svg version="1.1" id="Capa_1" xmlns="http://www.w3.org/2000/svg" xmlns:xlink="http://www.w3.org/1999/xlink" x="0px" y="0px"
	 viewBox="0 0 52.5 33.7" style="enable-background:new 0 0 52.5 33.7;" xml:space="preserve">
<style type="text/css">
	.st0{fill:#FFFFFF;}
</style>
<g>
	<g>
		<g>
			<path class="st0" d="M45,12.2h-0.8c0.6-0.8,1-1.9,1-3V7.8c0-2.8-2.2-5-5-5s-5,2.2-5,5v1.1l-7.4-7.4c-0.4-0.4-1-0.5-1.6-0.3
				c-0.5-0.2-1.1-0.1-1.6,0.3l-7.4,7.4V7.8c0-2.8-2.2-5-5-5s-5,2.2-5,5v1.4c0,1.1,0.4,2.2,1,3H7.5c-3.5,0-6.4,2.9-6.4,6.4v13
				c0,0.5,0.4,1,1,1h4.1c0.1,0,0.2,0,0.3,0c0.1,0,0.2,0,0.3,0h11c0.5,0,1-0.4,1-1v-3.3c0-0.5-0.4-1-1-1s-1,0.4-1,1v2.4h-9V19.5
				c0-0.5-0.4-1-1-1s-1,0.4-1,1v11.2H3.1v-12c0-2.5,2-4.5,4.5-4.5h6.8c0.3,0,0.5-0.1,0.7-0.3c0,0,0,0,0,0L25.3,3.7
				c-0.1,2-0.7,4-1.8,5.7L17,18.9c-0.1,0.2-0.2,0.4-0.2,0.5v1.1c0,0.5,0.4,1,1,1c0.5,0,1-0.4,1-1v-0.8l6.3-9.3
				c0.5-0.7,0.9-1.5,1.2-2.2c0.3,0.8,0.7,1.5,1.2,2.2l6.3,9.3v11.9c0,0.5,0.4,1,1,1h11c0.1,0,0.2,0,0.3,0c0.1,0,0.2,0,0.3,0h4.1
				c0.5,0,1-0.4,1-1v-13C51.4,15.1,48.5,12.2,45,12.2z M15.3,9.2c0,1.7-1.4,3-3,3s-3-1.4-3-3V7.8c0-1.7,1.4-3,3-3s3,1.4,3,3V9.2z
				 M37.2,7.8c0-1.7,1.4-3,3-3s3,1.4,3,3v1.4c0,1.7-1.4,3-3,3s-3-1.4-3-3V7.8z M49.4,30.7L49.4,30.7h-2.7v-7.3c0-0.5-0.4-1-1-1
				s-1,0.4-1,1v7.3h-9V19.5c0-0.2-0.1-0.4-0.2-0.5l-6.4-9.5c-1.1-1.7-1.8-3.7-1.8-5.7l10.2,10.2c0,0,0,0,0,0
				c0.2,0.2,0.4,0.3,0.7,0.3H45c2.5,0,4.5,2,4.5,4.5V30.7L49.4,30.7z"/>
		</g>
	</g>
	<g>
		<g>
			<path class="st0" d="M46.4,18.8c-0.2-0.2-0.4-0.3-0.7-0.3s-0.5,0.1-0.7,0.3c-0.2,0.2-0.3,0.4-0.3,0.7c0,0.3,0.1,0.5,0.3,0.7
				c0.2,0.2,0.4,0.3,0.7,0.3s0.5-0.1,0.7-0.3c0.2-0.2,0.3-0.4,0.3-0.7C46.7,19.2,46.6,19,46.4,18.8z"/>
		</g>
	</g>
	<g>
		<g>
			<path class="st0" d="M18.5,24c-0.2-0.2-0.4-0.3-0.7-0.3c-0.3,0-0.5,0.1-0.7,0.3c-0.2,0.2-0.3,0.4-0.3,0.7c0,0.3,0.1,0.5,0.3,0.7
				c0.2,0.2,0.4,0.3,0.7,0.3c0.3,0,0.5-0.1,0.7-0.3c0.2-0.2,0.3-0.4,0.3-0.7C18.8,24.4,18.7,24.2,18.5,24z"/>
		</g>
	</g>
</g>
</svg>
