<?xml version="1.0" encoding="utf-8"?>
<!-- Generator: Adobe Illustrator 24.0.0, SVG Export Plug-In . SVG Version: 6.00 Build 0)  -->
<svg version="1.1" id="Capa_1" xmlns="http://www.w3.org/2000/svg" xmlns:xlink="http://www.w3.org/1999/xlink" x="0px" y="0px"
	 viewBox="0 0 35.9 33.7" style="enable-background:new 0 0 35.9 33.7;" xml:space="preserve">
<style type="text/css">
	.st0{fill:#FFFFFF;}
</style>
<g>
	<path class="st0" d="M6.9,7C6.7,7.3,6.9,7.6,7.2,7.5c0.2,0,0.4,0,0.6,0.1C8,7.7,8.2,7.8,8.4,7.9C8.6,8.1,8.9,8,9,7.6
		C9,7,8.7,6.5,8.2,6.3C7.7,6.2,7.2,6.4,6.9,7z"/>
	<path class="st0" d="M27.3,8.1C27.5,8,27.7,8,27.9,8c0.2,0,0.4,0,0.6,0.1c0.3,0.1,0.6-0.1,0.5-0.5c-0.2-0.6-0.6-1-1.1-1
		c-0.5,0-0.9,0.5-1,1.1C26.7,8,27.1,8.2,27.3,8.1z"/>
	<path class="st0" d="M34.9,31.8c0.3-0.5,0.4-1,0.4-1.5c0-1.5-1.2-2.9-3.2-3c0,0-0.1,0-0.1,0c-2.8-2.8-4-9.7-3.3-13.9
		c2.5-0.2,4.3-1.7,5-4.2c0.3-1.1-0.2-2-1.3-2.2c-0.5-0.1-0.9-0.4-1.1-1c0,0,0,0,0-0.1c-1-2.3-2.8-2.5-3.9-2.6c0,0,0,0,0,0
		c-0.4,0-0.9,0-0.7-0.3c0.7-0.8,0.9-1.2,1-1.5c0.2-0.7-0.5-1.1-1-1c-2.9,0.5-5.7,3.1-7.2,6.6c-0.2,0.5-0.5,1.2-0.9,2.3
		c-0.5-1.3-1.6-4.3-4.7-6C12.3,2.7,11,2.5,9.6,2.6C8.4,2.6,6,2.8,4.6,5.7c0,0-0.4,0.3-1.7,0.5C2,6.3,1.3,6.3,1.3,6.3c0,0,0,0,0,0
		C0.9,6.3,0.6,6.6,0.6,7c0,3.8,1.7,5.5,3,6.2c0,0,0,0,0,0c0.8,0.5,1.8,0.6,2.7,0.6c0.5,0,0.9,0,1.3-0.1c0.3,1.6,0.7,8.1-2.5,13.6
		c-2.1,0.2-3.2,1.5-3.2,3c0,0.5,0.1,1.1,0.4,1.5c0,0,0.7,1.3,2.9,1.3c0.4,0,6.4,0,7.2,0c0.4,0,0.7-0.3,0.7-0.7
		c0-0.4-0.3-0.7-0.7-0.7c-0.8,0-6.7,0-7.5,0c-1.3,0-1.8-0.8-1.8-1.5c0-1,0.8-1.6,2.1-1.7c0.6,0.1,1.3,0.5,1.6,1.3
		c0.1,0.4,0.5,0.5,0.9,0.4c0.4-0.1,0.5-0.5,0.4-0.9c-0.3-0.9-0.9-1.5-1.8-1.9c3-5.5,2.8-11.8,2.4-14c-0.1-0.4-0.2-0.9-0.2-1
		c-0.1-0.3-0.4-0.4-0.7-0.4c-0.6,0.1-2.2,0.3-3.3-0.1c0,0-0.1,0-0.1,0c-1.2-0.5-2-1.6-2.4-3C2.6,9,3.2,8.6,3.6,7.5
		c1.3-0.2,2-0.6,2.3-1.2c0.6-1.4,1.5-2,2.5-2.2c0.5-0.1,1.8-0.3,2.9,0.4c0.3,0.2,0.6,0.5,0.7,1c0.3,0.7,0.1,1.5-0.5,2.3
		C10,9.7,9.6,10.7,9.7,12c0.1,0.8,0.5,1.5,1.2,1.9c1,0.5,2.3,0.6,3.2,0c1.1-0.7,1.7-1.8,2-3.8c0,0,0,0,0,0c-0.3-0.7-0.7-1.6-1.2-2.2
		c0,0.5,0.1,1.2,0,2c-0.3,1.5-0.5,2.2-1.3,2.8c-0.6,0.5-1.5,0.4-2,0.1c-0.3-0.2-0.5-0.5-0.6-0.8c-0.1-0.7,0-1.3,1.5-3.2
		c0.9-1.2,1.2-2.7,0.5-4c0.2,0.1,0.4,0.2,0.5,0.3v0c0,0,0.9,0.6,1.9,1.9c0.3,0.4,1.3,1.7,2.2,4.4c-2,5.1-5,13-5,16.2
		c0,3.2,2.6,5.8,5.8,5.8c3.2,0,5.8-2.6,5.8-5.8c0-1.7-1-5.5-3.1-11.1c-0.5-1.3-0.9-2.5-1.4-3.7l-0.7,1.9c1.8,4.7,3.8,10.6,3.8,12.8
		c0,2.4-2,4.4-4.4,4.4c-2.4,0-4.4-2-4.4-4.4c0-3.4,3.8-13,5.1-16.2c0,0,0,0,0,0c0.7-1.8,1.3-3.1,1.5-3.5c1-2.2,2.9-4.6,5.2-5.5
		c-1.8,1.7-1.1,2.6-0.5,2.6c0.9,0,1,0,1.7,0c1.1,0.1,2.2,0.2,3,1.8c0.3,0.8,0.8,1.4,1.6,1.7c-0.2,0.4-0.3,1.1,0.5,1.4
		c-0.6,1.4-1.9,2.7-4.7,2.4c-0.4,0-0.7,0.2-0.7,0.6c0,0.4,0.2,0.7,0.6,0.7c0,0,0.1,0,0.1,0c-0.3,2.2-0.2,5,0.4,7.6
		c0.6,2.8,1.6,5.1,2.9,6.7c-0.7,0.4-1.2,1-1.5,1.8c-0.2,0.4,0.2,0.9,0.6,0.9c0.3,0,0.5-0.2,0.6-0.5c0.3-0.8,1-1.2,1.6-1.3
		c2.8,0.1,2.7,3.2,0.3,3.2c-1.1,0-6.6,0-7.7,0c-0.4,0-0.7,0.3-0.7,0.7c0,0.4,0.3,0.7,0.7,0.7c1.1,0,5.6,0,7.7,0
		C34.3,33.2,34.9,31.8,34.9,31.8z"/>
</g>
</svg>
