<?xml version="1.0" encoding="utf-8"?>
<!-- Generator: Adobe Illustrator 24.0.0, SVG Export Plug-In . SVG Version: 6.00 Build 0)  -->
<svg version="1.1" id="Capa_1" xmlns="http://www.w3.org/2000/svg" xmlns:xlink="http://www.w3.org/1999/xlink" x="0px" y="0px"
	 viewBox="0 0 48.2 43.5" style="enable-background:new 0 0 48.2 43.5;" xml:space="preserve">
<style type="text/css">
	.st0{fill:#FFFFFF;}
</style>
<g>
	<path class="st0" d="M38.7,11.1l0-7.7c0-1.2-1-2.2-2.2-2.2h-2.4c-1.2,0-2.2,1-2.2,2.2v3L27.1,3c-1.8-1.3-4.2-1.3-6,0L7,13.3
		l-1.8,1.3L4.6,15l-3.1,2.3c-0.9,0.6-1.1,1.9-0.4,2.7l0,0c0.6,0.9,1.9,1.1,2.7,0.4l0,0c0.3-0.2,0.8,0,0.8,0.4v13.6
		c0,4.3,3.5,7.8,7.8,7.8h23.3c4.3,0,7.8-3.5,7.8-7.8V20.8c0-0.4,0.5-0.7,0.8-0.4l0,0c0.9,0.6,2.1,0.4,2.7-0.4l0,0
		c0.6-0.9,0.4-2.1-0.4-2.7L38.7,11.1z M34.5,38.3H13.7c-2.9,0-5.2-2.3-5.2-5.2V17.8c0-0.5,0.2-1,0.7-1.3l12.6-9.2c1.4-1,3.3-1,4.6,0
		l12.7,9.2c0.4,0.3,0.6,0.7,0.6,1.1v15.4C39.7,36,37.4,38.3,34.5,38.3z"/>
	<path class="st0" d="M19.2,15.9c-3.8,0-6.8,3.2-6.7,7c0.1,6.8,9.7,11.8,10.8,12.3h0c0.5,0.3,1.2,0.3,1.7,0l0,0
		c1.1-0.6,10.7-5.6,10.8-12.4c0-3.8-3-6.9-6.8-6.9c-1.4,0-2.7,0.4-3.8,1.1c-0.7,0.5-1.6,0.4-2.3,0C21.9,16.3,20.6,15.9,19.2,15.9z
		 M29,19.8c1.6,0,2.9,1.3,2.9,2.9c0,3-4,6.1-6.8,7.9c-0.6,0.4-1.4,0.4-2.1,0c-2.8-1.7-6.7-4.9-6.8-7.8c0-1.6,1.3-2.9,2.9-3
		c1.6,0,3,1.3,3,2.9v0c0,1.1,0.9,1.9,1.9,1.9h0c1.1,0,1.9-0.9,1.9-1.9v0C26.1,21.1,27.4,19.8,29,19.8z"/>
</g>
</svg>
