<?xml version="1.0" encoding="utf-8"?>
<!-- Generator: Adobe Illustrator 24.0.0, SVG Export Plug-In . SVG Version: 6.00 Build 0)  -->
<svg version="1.1" id="Capa_1" xmlns="http://www.w3.org/2000/svg" xmlns:xlink="http://www.w3.org/1999/xlink" x="0px" y="0px"
	 viewBox="0 0 28 33.7" style="enable-background:new 0 0 28 33.7;" xml:space="preserve">
<style type="text/css">
	.st0{fill:#FFFFFF;}
</style>
<g>
	<g>
		<path class="st0" d="M27,4.2c0-0.3-0.3-0.6-0.6-0.5c-0.2,0-0.4,0.1-0.5,0.1c-1.1,0.2-2.1,0.3-3.2,0.3c-0.9,0-1.8-0.1-2.7-0.3
			c-0.7-0.1-1.5-0.3-2.2-0.6c-0.6-0.2-1.1-0.5-1.7-0.8c-0.4-0.2-0.8-0.5-1.2-0.7c-0.1-0.1-0.3-0.2-0.4-0.3c-0.1-0.1-0.3-0.2-0.4-0.2
			c-0.2,0-0.3,0.1-0.4,0.2c-0.2,0.2-0.4,0.3-0.7,0.5c-0.4,0.3-0.8,0.5-1.3,0.8c-0.6,0.3-1.2,0.5-1.8,0.7C9.2,3.6,8.5,3.8,7.7,3.9
			C6.8,4,5.8,4.1,4.9,4.1C3.8,4,2.7,3.9,1.6,3.7C1.3,3.7,1,3.9,1,4.2C0.8,7.1,0.4,19,4.6,24.3c4.4,5.5,8.2,7.7,9.2,8.2
			c0.2,0.1,0.3,0.1,0.5,0c1-0.5,4.8-2.7,9.2-8.2C27.6,19,27.2,7.1,27,4.2z M21,13.8l-7.8,8.6c-0.3,0.3-0.7,0.5-1.2,0.5
			c-0.3,0-0.7-0.1-0.9-0.3l-3-2.2c-0.7-0.5-0.8-1.5-0.3-2.2c0.5-0.7,1.5-0.8,2.2-0.3l1.8,1.4l6.8-7.6c0.6-0.6,1.6-0.7,2.2-0.1
			C21.5,12.1,21.6,13.1,21,13.8z"/>
	</g>
</g>
</svg>
