<?xml version="1.0" encoding="utf-8"?>
<!-- Generator: Adobe Illustrator 24.0.0, SVG Export Plug-In . SVG Version: 6.00 Build 0)  -->
<svg version="1.1" id="Capa_1" xmlns="http://www.w3.org/2000/svg" xmlns:xlink="http://www.w3.org/1999/xlink" x="0px" y="0px"
	 viewBox="0 0 43.4 21.8" style="enable-background:new 0 0 43.4 21.8;" xml:space="preserve">
<style type="text/css">
	.st0{fill:#FFFFFF;}
	.st1{fill:#AFAFAF;}
	.st2{fill:#FF4632;}
	.st3{fill:#FF9900;}
	.st4{fill:#FFE246;}
	.st5{fill:#8CC529;}
	.st6{fill:#0093D4;}
	.st7{fill:#8420FF;}
</style>
<path class="st0" d="M41,20.9H2.5c-1.3,0-2.3-1-2.3-2.3V3.2c0-1.3,1-2.3,2.3-2.3H41c1.3,0,2.3,1,2.3,2.3v15.4
	C43.3,19.9,42.3,20.9,41,20.9z"/>
<g>
	<path class="st1" d="M10.3,6.6c0,2.2-1.7,3.3-3.8,3.3H5.4v2.8H3.1V3.2h3.5C8.9,3.2,10.3,4.6,10.3,6.6z M8,6.6
		c0-0.7-0.5-1.2-1.4-1.2H5.4v2.4h1.2C7.4,7.8,8,7.4,8,6.6z"/>
	<path class="st1" d="M16.9,12.7l-1.6-3.2c0,0-0.1,0-0.1,0h-1.3v3.2h-2.3V3.2h3.6c2.4,0,3.6,1.4,3.6,3.3c0,1.1-0.6,2-1.5,2.5l2,3.7
		H16.9z M13.9,7.6h1.3c0.7,0,1.3-0.3,1.3-1.1c0-0.7-0.5-1.1-1.3-1.1h-1.3V7.6z"/>
	<path class="st1" d="M22.6,3.2v9.5h-2.3V3.2H22.6z"/>
	<path class="st1" d="M32.6,8c0,2.9-1.9,4.7-5,4.7h-3.3V3.2h3.3C30.7,3.2,32.6,5.1,32.6,8z M30.3,8c0-1.7-1.2-2.5-2.7-2.5h-1v5.1h1
		C29.1,10.5,30.3,9.6,30.3,8z"/>
	<path class="st1" d="M39.8,10.5v2.2h-5.9V3.2h5.8v2.2h-3.5v1.5h3.1v2.1h-3.1v1.6H39.8z"/>
</g>
<g>
	<rect x="4.7" y="13.8" transform="matrix(6.123234e-17 -1 1 6.123234e-17 -10.7846 23.1719)" class="st2" width="3" height="6.3"/>
	<rect x="11" y="13.8" transform="matrix(6.123234e-17 -1 1 6.123234e-17 -4.5111 29.4454)" class="st3" width="3" height="6.3"/>
	<rect x="17.2" y="13.8" transform="matrix(6.123234e-17 -1 1 6.123234e-17 1.7624 35.7189)" class="st4" width="3" height="6.3"/>
	<rect x="23.5" y="13.8" transform="matrix(6.123234e-17 -1 1 6.123234e-17 8.0359 41.9924)" class="st5" width="3" height="6.3"/>
	<rect x="29.8" y="13.8" transform="matrix(6.123234e-17 -1 1 6.123234e-17 14.3094 48.2659)" class="st6" width="3" height="6.3"/>
	<rect x="36.1" y="13.8" transform="matrix(6.123234e-17 -1 1 6.123234e-17 20.5829 54.5394)" class="st7" width="3" height="6.3"/>
</g>
</svg>
