<?xml version="1.0" encoding="utf-8"?>
<!-- Generator: Adobe Illustrator 24.0.0, SVG Export Plug-In . SVG Version: 6.00 Build 0)  -->
<svg version="1.1" id="Capa_1" xmlns="http://www.w3.org/2000/svg" xmlns:xlink="http://www.w3.org/1999/xlink" x="0px" y="0px"
	 viewBox="0 0 52.5 33.7" style="enable-background:new 0 0 52.5 33.7;" xml:space="preserve">
<style type="text/css">
	.st0{fill:#FFFFFF;}
</style>
<g>
	<g>
		<path class="st0" d="M7.2,23.5c-0.5,0-1,0.4-1,1c0,0.5,0.4,1,1,1h1.6c0.5,0,1-0.4,1-1c0-0.5-0.4-1-1-1H7.2z"/>
		<path class="st0" d="M21.4,25.4c0.5,0,1-0.4,1-1c0-0.5-0.4-1-1-1h-1.6c-0.5,0-1,0.4-1,1c0,0.5,0.4,1,1,1H21.4z"/>
		<path class="st0" d="M50.9,26l-2.3-2.7l0.1-5c0-1.1-0.5-2.1-1.5-2.6l-8.8-5.1c-0.9-0.5-2.1-0.5-3,0l-2.5,1.5l-3-2l2.8-4.2
			c0.2-0.3,0.2-0.8,0-1.1c-0.2-0.3-0.7-0.5-1.1-0.3L26.8,6l-1.6-4.8c-0.1-0.4-0.5-0.7-0.9-0.7c-0.4,0-0.8,0.2-0.9,0.6l-1.8,4.8
			l-4.8-1.8c-0.4-0.1-0.8,0-1.1,0.3c-0.3,0.3-0.3,0.8-0.1,1.1l2.6,4.4L14,12.6H8.6c-1.2,0-2.3,0.7-2.9,1.7l-2.9,5.3H2.4
			c-0.5,0-1,0.4-1,1s0.4,1,1,1v9.7c0,1.1,0.9,2,2,2h1.9c1.1,0,2-0.9,2-2v-1.9h1.7c0.5,0,1-0.4,1-1s-0.4-1-1-1H4.3v-5.8h20v5.8h-5.6
			c-0.5,0-1,0.4-1,1s0.4,1,1,1h1.7v1.9c0,1.1,0.9,2,2,2h1.9c1.1,0,2-0.9,2-2v-7.3c0.1,0,0.1,0.1,0.2,0.1c0.5,0.3,1,0.4,1.6,0.4
			c0.8,0,1.5-0.3,2.1-0.8l8.6,5c-0.1,0.5-0.1,1,0,1.4c0.2,0.8,0.7,1.5,1.5,1.9c0.5,0.3,1,0.4,1.6,0.4c0.8,0,1.5-0.3,2.1-0.8l2.6,1.5
			c0.2,0.1,0.3,0.1,0.5,0.1c0.3,0,0.7-0.2,0.8-0.5l3.2-5.6C51.2,26.7,51.1,26.3,50.9,26L50.9,26z M46.8,18.3L46.7,22l-5.5-3.2
			l1.9-3.3l3.2,1.9C46.6,17.6,46.8,17.9,46.8,18.3L46.8,18.3z M36.5,12.3c0.3-0.2,0.7-0.2,1,0l3.9,2.3l-1.9,3.3l-6.2-3.6L36.5,12.3z
			 M20.3,9.7l-1.7-2.9L21.8,8C22.3,8.2,22.8,8,23,7.5l1.2-3.1l1,3.1c0.2,0.5,0.7,0.8,1.2,0.6l3.2-1l-1.8,2.8c-0.3,0.4-0.2,1,0.3,1.3
			l2.7,1.8l-5-1.3c-0.4-0.1-0.9,0.1-1.1,0.5l-1.4,2.5L23,14.4c-0.6-1.1-1.7-1.7-2.9-1.7h-2.5L20,11C20.5,10.7,20.6,10.2,20.3,9.7
			L20.3,9.7z M7.3,15.3c0.2-0.4,0.7-0.7,1.2-0.7h11.5c0.5,0,1,0.3,1.2,0.7l0.8,1.4l-0.5,0.9c-0.1,0.2-0.2,0.5-0.1,0.7
			s0.2,0.5,0.5,0.6l1.2,0.7H5L7.3,15.3z M6.3,29.3v1.9c0,0,0,0,0,0H4.4c0,0,0,0,0,0v-1.9H6.3z M24.3,31.2
			C24.3,31.2,24.3,31.3,24.3,31.2l-1.9,0c0,0,0,0,0,0v-1.9h1.9L24.3,31.2z M27.4,22.3c-0.6-0.3-0.8-1-0.4-1.6c0.3-0.6,1-0.8,1.6-0.4
			c0.6,0.3,0.8,1,0.4,1.6C28.7,22.5,28,22.7,27.4,22.3z M41.2,30.3c-0.3-0.2-0.5-0.4-0.5-0.7c-0.1-0.3,0-0.6,0.1-0.9
			c0.2-0.3,0.4-0.5,0.7-0.5c0.1,0,0.2,0,0.3,0c0.2,0,0.4,0.1,0.6,0.2c0.6,0.3,0.8,1,0.4,1.6C42.5,30.4,41.7,30.6,41.2,30.3
			L41.2,30.3z M46.5,30.9l-1.7-1c0.3-1.3-0.3-2.6-1.5-3.3c-0.7-0.4-1.6-0.5-2.4-0.3c-0.5,0.1-0.9,0.4-1.3,0.7L31,22
			c0.3-1.3-0.3-2.6-1.5-3.3c-1.2-0.7-2.7-0.5-3.6,0.4l-2.2-1.3l2.2-3.9l5,1.2l16,9.3l2,2.3L46.5,30.9z"/>
		<circle class="st0" cx="14.3" cy="28.4" r="1"/>
	</g>
</g>
</svg>
