<?xml version="1.0" encoding="utf-8"?>
<!-- Generator: Adobe Illustrator 24.0.0, SVG Export Plug-In . SVG Version: 6.00 Build 0)  -->
<svg version="1.1" id="Capa_1" xmlns="http://www.w3.org/2000/svg" xmlns:xlink="http://www.w3.org/1999/xlink" x="0px" y="0px"
	 viewBox="0 0 68.2 49.8" style="enable-background:new 0 0 68.2 49.8;" xml:space="preserve">
<style type="text/css">
	.st0{fill:#CBCBCB;}
</style>
<g>
	<path class="st0" d="M30.1,22c1,1.1,2.4,1.8,4,1.8c1.5,0,3-0.7,4-1.8c0,0,17.7-20,17.8-20.1c-0.7-0.3-1.5-0.5-2.4-0.5H14.7
		c-0.8,0-1.6,0.2-2.3,0.5C12.4,1.9,30.1,22,30.1,22z"/>
	<path class="st0" d="M64.8,3.8c-0.5,0-1.1,0.2-1.5,0.7c-5.8,6.7-20.4,23.3-20.4,23.3c-2.2,2.5-5.4,3.9-8.7,3.9s-6.5-1.4-8.7-3.9
		c0,0-14.6-16.5-20.4-23.2C4.5,4.2,4,4,3.4,4c-1,0-2,0.7-2,1.9l0,0v34.9c0,4.3,3.5,7.7,7.7,7.7H59c4.3,0,7.7-3.5,7.7-7.7V5.9
		c0-0.1,0-0.1,0-0.2C66.7,4.6,65.8,3.8,64.8,3.8L64.8,3.8z"/>
</g>
</svg>
