<?xml version="1.0" encoding="utf-8"?>
<!-- Generator: Adobe Illustrator 24.0.0, SVG Export Plug-In . SVG Version: 6.00 Build 0)  -->
<svg version="1.1" id="Capa_1" xmlns="http://www.w3.org/2000/svg" xmlns:xlink="http://www.w3.org/1999/xlink" x="0px" y="0px"
	 viewBox="0 0 38.4 37.4" style="enable-background:new 0 0 38.4 37.4;" xml:space="preserve">
<style type="text/css">
	.st0{fill:#FFFFFF;}
</style>
<g id="Page-1_4_">
	<g>
		<g id="_x30_40---Law_8_" transform="translate(-1.000000, -1.000000)">
			<path id="Shape_18_" class="st0" d="M26.9,4c2.4,0.5,4.2,1.3,5.3,2.5c0.9,1,1.7,2.2,2.1,3.5c0.2,0.6,0.4,1.2,0.5,1.7l0.1,0.3
				c0.1,0.5,0.3,1.1,0.6,1.6c0.1,0.2,0.2,0.5,0.3,0.8c0.1,0.1,0.1,0.3,0.1,0.4c0,0.2-0.3,0.4-0.5,0.6c-0.5,0.3-0.8,0.9-0.9,1.5
				c0,0.3,0.1,0.6,0.2,0.8c0.7,1.6,1.6,3,2.7,4.4c0.5,0.5,0.5,0.8,0.5,0.9c-0.1,0.1-0.2,0.2-0.4,0.3c-0.2,0.1-0.3,0.2-0.5,0.3
				c-0.5,0.3-1.2,0.6-1.3,1.3c-0.1,0.4,0,0.9,0.2,1.3c0.1,0.2,0.2,0.4,0.3,0.6c0,0.1,0.1,0.1,0.1,0.2c-0.2,0.2-0.6,0.4-0.7,0.6
				c-0.1,0.1-0.2,0.2-0.2,0.4c0,0.2,0,0.3,0.1,0.4c0.1,0.1,0.2,0.2,0.2,0.4l-0.1,0.1c-0.5,0.2-0.9,0.7-1.1,1.2
				c-0.1,0.4-0.1,0.8,0.1,1.3c0,0.1,0.1,0.2,0.1,0.4c0,0.4,0,0.7-0.1,1.1c-0.1,0.5-0.7,0.9-1.2,0.8c-1.7-0.4-3.4-0.9-5.1-1.5h0
				c-0.6-0.2-1.2-0.4-1.6-0.6c-0.4-0.1-0.7-0.3-0.9-0.3c-2.5-0.8-3-1.7-2.9-2.3c0-0.3-0.3-0.6-0.6-0.6c-0.2,0-0.3,0-0.4,0.2
				c-0.1,0.1-0.2,0.3-0.2,0.4c0,1.5,1.2,2.6,3.8,3.4c0.2,0,0.5,0.2,0.8,0.3l0.5,0.2c-1,1.1-1.7,2.4-2.1,3.8l-12.1,0l0-0.1
				c0.2-0.2,0.3-0.5,0.5-0.8c0.3-0.6,0.5-1.2,0.7-1.8c0.4-1.2,0.6-2.5,0.7-3.7c0.2-1.5,0-3-0.4-4.4c-0.1-0.2-0.2-0.4-0.4-0.4
				c-0.2-0.1-0.4,0-0.6,0.2s-0.2,0.4-0.1,0.6c0.4,1.3,0.5,2.6,0.3,3.9c-0.1,1.2-0.4,2.4-0.7,3.5c-0.2,0.6-0.4,1.1-0.7,1.7
				c-0.1,0.2-0.2,0.4-0.4,0.6c-0.3,0.3-0.5,0.7-0.6,1.1c-0.1,0.2,0,0.4,0.1,0.5c0.1,0.2,0.3,0.2,0.5,0.2l13.6,0
				c0.3,0,0.5-0.2,0.6-0.4c0.2-0.9,1.1-3.3,2.4-4c1.6,0.6,3.3,1.1,5,1.5c0.2,0,0.3,0.1,0.5,0.1c1,0,1.8-0.7,2.1-1.6
				c0.2-0.5,0.3-1.1,0.2-1.6c0-0.2-0.1-0.3-0.1-0.5c-0.1-0.2-0.1-0.5-0.1-0.7c0-0.2,0.2-0.3,0.5-0.5c0.1-0.1,0.3-0.2,0.4-0.3
				c0.2-0.1,0.3-0.3,0.4-0.6c0-0.3,0-0.6-0.2-0.9c0.2-0.2,0.4-0.3,0.5-0.4c0.5-0.4,0.2-1.1,0-1.5c-0.1-0.1-0.2-0.3-0.3-0.5
				c-0.1-0.2-0.1-0.4-0.1-0.6c0-0.2,0.5-0.4,0.7-0.5c0.2-0.1,0.4-0.2,0.6-0.4c0.4-0.2,0.7-0.6,0.9-1.1c0.1-0.6-0.4-1.2-0.8-1.7
				c-1-1.3-1.9-2.7-2.6-4.2c0-0.1-0.1-0.2-0.1-0.3c0-0.2,0.2-0.3,0.5-0.6c0.4-0.3,0.7-0.8,0.9-1.3c0-0.3,0-0.7-0.2-1
				c-0.1-0.3-0.2-0.5-0.3-0.8c-0.2-0.4-0.4-0.9-0.5-1.3l-0.1-0.2c-0.1-0.6-0.3-1.3-0.5-1.9c-0.5-1.4-1.3-2.8-2.4-3.9
				c-1.3-1.4-3.3-2.3-5.9-2.9c-1.9-0.4-3.8-0.7-5.7-0.8c-1.7-0.1-3.4,0.1-5,0.7C16.2,2.7,16,2.9,16,3.1c0,0.2,0,0.4,0.2,0.6
				c0.2,0.1,0.4,0.2,0.6,0.1c1.5-0.5,3-0.7,4.6-0.6C23.2,3.3,25,3.6,26.9,4z"/>
			<path id="Shape_16_" class="st0" d="M1.3,10.1C1.3,10.1,1.3,10.1,1.3,10.1l0,1.3c0,1.7,1.4,3.1,3.1,3.1h1.2
				c1.7,0,3.1-1.4,3.1-3.1v-1.2c0,0,0,0,0,0c0,0,0-0.1,0-0.1c0,0,0-0.1,0-0.1c0,0,0,0,0,0L6.2,5.4L10,6c0,0.5,0.3,1,0.6,1.4v11.5
				c-1.8,0.3-3.1,1.9-3.1,3.7v0.6c0,0.3,0.3,0.6,0.6,0.6h8.7c0.3,0,0.6-0.3,0.6-0.6v-0.6c0-1.8-1.3-3.4-3.1-3.7V7.4
				c0.2-0.2,0.3-0.4,0.4-0.6L19,7.5l-2.7,4.8c0,0,0,0,0,0c0,0,0,0.1,0,0.1c0,0,0,0.1,0,0.1c0,0,0,0,0,0v1.2c0,1.7,1.4,3.1,3.1,3.1
				h1.2c1.7,0,3.1-1.4,3.1-3.1v-1.2c0,0,0,0,0,0c0,0,0-0.1,0-0.1c0,0,0-0.1,0-0.1c0,0,0,0,0,0l-3.1-5.6c0,0,0,0,0,0c0,0,0,0,0-0.1
				c0,0,0,0-0.1-0.1c-0.1-0.1-0.2-0.1-0.3-0.2L15,5.6c-0.1-1.1-0.9-2-2.1-2.2c-1.1-0.2-2.2,0.4-2.7,1.4L5.1,3.9C5,3.9,4.8,4,4.6,4.1
				c0,0-0.1,0.1-0.1,0.1c0,0,0,0,0,0c0,0,0,0,0,0L1.4,9.8c0,0,0,0,0,0c0,0,0,0.1,0,0.1C1.3,10,1.3,10.1,1.3,10.1z M5,5.8l2.1,3.7H3
				L5,5.8z M13.1,18.8h-1.2V8.2c0.4,0.1,0.8,0.1,1.2,0V18.8z M13.7,5.8c0,0.7-0.6,1.2-1.2,1.2c-0.7,0-1.2-0.6-1.2-1.2
				s0.6-1.2,1.2-1.2C13.2,4.6,13.7,5.1,13.7,5.8z M22,12h-4.1l2.1-3.7L22,12z M17.5,13.3h5v0.6c0,1-0.8,1.9-1.9,1.9h-1.2
				c-1,0-1.9-0.8-1.9-1.9V13.3z M11.2,20.1h2.5c1.4,0,2.5,1.1,2.5,2.5H8.8C8.8,21.2,9.9,20.1,11.2,20.1z M2.6,10.8h5v0.6
				c0,1-0.8,1.9-1.9,1.9H4.4c-1,0-1.9-0.8-1.9-1.9V10.8z"/>
		</g>
	</g>
</g>
</svg>
