<?xml version="1.0" encoding="utf-8"?>
<!-- Generator: Adobe Illustrator 24.0.0, SVG Export Plug-In . SVG Version: 6.00 Build 0)  -->
<svg version="1.1" id="Capa_1" xmlns="http://www.w3.org/2000/svg" xmlns:xlink="http://www.w3.org/1999/xlink" x="0px" y="0px"
	 viewBox="0 0 40.2 50.8" style="enable-background:new 0 0 40.2 50.8;" xml:space="preserve">
<style type="text/css">
	.st0{fill:#CBCBCB;}
</style>
<g>
	<path class="st0" d="M33.9,3.9c-2.1-1.4-4.6-2-7.1-1.6c-2.5,0.4-4.7,1.8-6.1,3.9L2.8,32c-0.2,0.3-0.3,0.6-0.3,1L2.3,46.8
		c0,0.6,0.3,1.1,0.7,1.4c0.7,0.5,1.5,0.2,1.6,0.2l13-5c0.3-0.1,0.6-0.3,0.8-0.6l17.8-25.7C39.2,12.8,38.2,6.9,33.9,3.9z M15.9,40.4
		L5.8,44.3L6,33.5l14.1-20.4L30,20L15.9,40.4z M33.4,15.2l-1.4,2l-9.9-6.9l1.4-2c3.2-4,6.9-2.6,8.4-1.5
		C34.6,8.7,35.3,12.4,33.4,15.2z"/>
</g>
</svg>
