<?xml version="1.0" encoding="utf-8"?>
<!-- Generator: Adobe Illustrator 24.0.0, SVG Export Plug-In . SVG Version: 6.00 Build 0)  -->
<svg version="1.1" id="Capa_1" xmlns="http://www.w3.org/2000/svg" xmlns:xlink="http://www.w3.org/1999/xlink" x="0px" y="0px"
	 viewBox="0 0 956.8 517.2" style="enable-background:new 0 0 956.8 517.2;" xml:space="preserve">
<style type="text/css">
	.st0{fill:#FFFFFF;}
	.st1{fill:url(#SVGID_1_);}
	.st2{fill:url(#SVGID_2_);}
	.st3{opacity:0.6;}
	.st4{fill:url(#SVGID_3_);}
	.st5{fill:url(#SVGID_4_);}
	.st6{opacity:0.8;}
	.st7{fill:url(#SVGID_5_);}
	.st8{fill:url(#SVGID_6_);}
	.st9{opacity:0.3;}
	.st10{fill:url(#SVGID_7_);}
	.st11{fill:url(#SVGID_8_);}
	.st12{opacity:0.2;}
	.st13{fill:url(#SVGID_9_);}
	.st14{fill:url(#SVGID_10_);}
	.st15{opacity:0.4;}
	.st16{fill:url(#SVGID_11_);}
	.st17{fill:url(#SVGID_12_);}
	.st18{opacity:5.000000e-02;}
	.st19{fill:url(#SVGID_13_);}
	.st20{fill:url(#SVGID_14_);}
	.st21{opacity:0.1;}
	.st22{fill:url(#SVGID_15_);}
	.st23{fill:url(#SVGID_16_);}
	.st24{fill:url(#SVGID_17_);}
	.st25{fill:url(#SVGID_18_);}
	.st26{fill:url(#SVGID_19_);}
	.st27{fill:url(#SVGID_20_);}
</style>
<g>
	<g>
		<path class="st0" d="M520.3,131.1c0.1-0.3,0.2-0.5,0.1-0.7c-0.1-0.3-0.4-0.6-1-0.9c-0.4-0.3-0.7-0.4-1.1-0.4c-0.3,0-0.6,0-0.9,0
			c-0.2,0-0.5,0-0.8,0.1c-0.1,0-0.2,0-0.3,0.1c-1,0.3-5.5,0.8-6.5,1.4c-1.2,0.6-0.4,2.9,2.6,3.1c0.3,0,0.7,0,1-0.1l0.2-0.1
			c0.1,0,0.2,0,0.3-0.1c0.4-0.2,0.9-0.3,1.2-0.5C516.4,132.4,520.2,131.3,520.3,131.1z"/>
		
			<linearGradient id="SVGID_1_" gradientUnits="userSpaceOnUse" x1="982.6585" y1="-1236.8752" x2="1225.7091" y2="-1236.8752" gradientTransform="matrix(0.9898 0.1423 -0.1423 0.9898 -884.8992 1179.4703)">
			<stop  offset="0" style="stop-color:#FFFFFF;stop-opacity:0"/>
			<stop  offset="1" style="stop-color:#FFFFFF"/>
		</linearGradient>
		<path class="st1" d="M500.2,135.9c-56.3,7.4-99.7,3.1-151.3-6.5c-28.1-5.2-49.8-11.7-64-19.3c-10.4-5.5-16.9-11.7-18.8-18.3
			c-3.8-13,5.2-17.8,12.7-17.5c1.5,0.1,3,0.4,4.3,0.9c0.7,0.3,1.4,0.6,1.9,1c4.4,2.8,4.6,7.9-1.4,10.7c-5.3,2.5-7.6,10.6,9.5,19.8
			c0.4,0.2,0.8,0.4,1.2,0.6c23.4,12.2,59.5,20.5,112.5,27.4c54.6,5.3,85.2,0,92.4-1.7c1.8-0.1,2.6,0.1,3.8,1
			C504.1,134.9,503.9,135.5,500.2,135.9z"/>
	</g>
	<g>
		<path class="st0" d="M499.7,159.1c0.1-0.3,0.2-0.5,0.1-0.7c-0.1-0.3-0.4-0.6-1-0.9c-0.4-0.3-0.7-0.4-1.1-0.4c-0.3,0-0.6,0-0.9,0
			c-0.2,0-0.5,0-0.8,0.1c-0.1,0-0.2,0-0.3,0.1c-1,0.3-5.5,0.8-6.5,1.4c-1.2,0.6-0.4,2.9,2.6,3.1c0.3,0,0.7,0,1-0.1l0.2-0.1
			c0.1,0,0.2,0,0.3-0.1c0.4-0.2,0.9-0.3,1.2-0.5C495.7,160.4,499.6,159.4,499.7,159.1z"/>
		
			<linearGradient id="SVGID_2_" gradientUnits="userSpaceOnUse" x1="966.2191" y1="-1206.1526" x2="1209.2697" y2="-1206.1526" gradientTransform="matrix(0.9898 0.1423 -0.1423 0.9898 -884.8992 1179.4703)">
			<stop  offset="0" style="stop-color:#FFFFFF;stop-opacity:0"/>
			<stop  offset="1" style="stop-color:#FFFFFF"/>
		</linearGradient>
		<path class="st2" d="M479.6,164c-56.3,7.4-99.7,3.1-151.3-6.5c-28.1-5.2-49.8-11.7-64-19.3c-10.4-5.5-16.9-11.7-18.8-18.3
			c-3.8-13,5.2-17.8,12.7-17.5c1.5,0.1,3,0.4,4.3,0.9c0.7,0.3,1.4,0.6,1.9,1c4.4,2.8,4.6,7.9-1.4,10.7c-5.3,2.5-7.6,10.6,9.5,19.8
			c0.4,0.2,0.8,0.4,1.2,0.6c23.4,12.2,59.5,20.5,112.5,27.4c54.6,5.3,85.2,0,92.4-1.7c1.8-0.1,2.6,0.1,3.8,1
			C483.5,163,483.3,163.6,479.6,164z"/>
	</g>
	<g class="st3">
		<g>
			<path class="st0" d="M431.2,245.5c0.1-0.3,0.2-0.5,0.1-0.7c-0.1-0.3-0.4-0.6-1-0.9c-0.4-0.3-0.7-0.4-1.1-0.4c-0.3,0-0.6,0-0.9,0
				c-0.2,0-0.5,0-0.8,0.1c-0.1,0-0.2,0-0.3,0.1c-1,0.3-5.5,0.8-6.5,1.4c-1.2,0.6-0.4,2.9,2.6,3.1c0.3,0,0.7,0,1-0.1l0.2-0.1
				c0.1,0,0.2,0,0.3-0.1c0.4-0.2,0.9-0.3,1.2-0.5C427.3,246.8,431.1,245.8,431.2,245.5z"/>
			
				<linearGradient id="SVGID_3_" gradientUnits="userSpaceOnUse" x1="910.7613" y1="-1110.9181" x2="1153.8119" y2="-1110.9181" gradientTransform="matrix(0.9898 0.1423 -0.1423 0.9898 -884.8992 1179.4703)">
				<stop  offset="0" style="stop-color:#FFFFFF;stop-opacity:0"/>
				<stop  offset="1" style="stop-color:#FFFFFF"/>
			</linearGradient>
			<path class="st4" d="M411.2,250.4c-56.3,7.4-99.7,3.1-151.3-6.5c-28.1-5.2-49.8-11.7-64-19.3c-10.4-5.5-16.9-11.7-18.8-18.3
				c-3.8-13,5.2-17.8,12.7-17.5c1.5,0.1,3,0.4,4.3,0.9c0.7,0.3,1.4,0.6,1.9,1c4.4,2.8,4.6,7.9-1.4,10.7c-5.3,2.5-7.6,10.6,9.5,19.8
				c0.4,0.2,0.8,0.4,1.2,0.6c23.4,12.2,59.5,20.5,112.5,27.4c54.6,5.3,85.2,0,92.4-1.7c1.8-0.1,2.6,0.1,3.8,1
				C415,249.3,414.9,249.9,411.2,250.4z"/>
		</g>
		<g>
			<path class="st0" d="M438.9,240.7c-0.1,0.3-0.2,0.5-0.1,0.7c0.1,0.3,0.4,0.6,1,0.9c0.4,0.3,0.7,0.4,1.1,0.4c0.3,0,0.6,0,0.9,0
				c0.2,0,0.5,0,0.8-0.1c0.1,0,0.2,0,0.3-0.1c1-0.3,5.5-0.8,6.5-1.4c1.2-0.6,0.4-2.9-2.6-3.1c-0.3,0-0.7,0-1,0.1l-0.2,0.1
				c-0.1,0-0.2,0-0.3,0.1c-0.4,0.2-0.9,0.3-1.2,0.5C442.8,239.4,439,240.4,438.9,240.7z"/>
			
				<linearGradient id="SVGID_4_" gradientUnits="userSpaceOnUse" x1="1192.7123" y1="-1118.4867" x2="1435.7628" y2="-1118.4867" gradientTransform="matrix(0.9898 0.1423 -0.1423 0.9898 -884.8992 1179.4703)">
				<stop  offset="0" style="stop-color:#FFFFFF"/>
				<stop  offset="1" style="stop-color:#FFFFFF;stop-opacity:0"/>
			</linearGradient>
			<path class="st5" d="M459,235.8c56.3-7.4,99.7-3.1,151.3,6.5c28.1,5.2,49.8,11.7,64,19.3c10.4,5.5,16.9,11.7,18.8,18.3
				c3.8,13-5.2,17.8-12.7,17.5c-1.5-0.1-3-0.4-4.3-0.9c-0.7-0.3-1.4-0.6-1.9-1c-4.4-2.8-4.6-7.9,1.4-10.7c5.3-2.5,7.6-10.6-9.5-19.8
				c-0.4-0.2-0.8-0.4-1.2-0.6c-23.4-12.2-59.5-20.5-112.5-27.4c-54.6-5.3-85.2,0-92.4,1.7c-1.8,0.1-2.6-0.1-3.8-1
				C455.1,236.9,455.3,236.2,459,235.8z"/>
		</g>
	</g>
	<g class="st6">
		<g>
			<path class="st0" d="M452.1,215.7c0.1-0.3,0.2-0.5,0.1-0.7c-0.1-0.3-0.4-0.6-1-0.9c-0.4-0.3-0.7-0.4-1.1-0.4c-0.3,0-0.6,0-0.9,0
				c-0.2,0-0.5,0-0.8,0.1c-0.1,0-0.2,0-0.3,0.1c-1,0.3-5.5,0.8-6.5,1.4c-1.2,0.6-0.4,2.9,2.6,3.1c0.3,0,0.7,0,1-0.1l0.2-0.1
				c0.1,0,0.2,0,0.3-0.1c0.4-0.2,0.9-0.3,1.2-0.5C448.2,217,452,216,452.1,215.7z"/>
			
				<linearGradient id="SVGID_5_" gradientUnits="userSpaceOnUse" x1="927.1793" y1="-1143.3635" x2="1170.2299" y2="-1143.3635" gradientTransform="matrix(0.9898 0.1423 -0.1423 0.9898 -884.8992 1179.4703)">
				<stop  offset="0" style="stop-color:#FFFFFF;stop-opacity:0"/>
				<stop  offset="1" style="stop-color:#FFFFFF"/>
			</linearGradient>
			<path class="st7" d="M432,220.6c-56.3,7.4-99.7,3.1-151.3-6.5c-28.1-5.2-49.8-11.7-64-19.3c-10.4-5.5-16.9-11.7-18.8-18.3
				c-3.8-13,5.2-17.8,12.7-17.5c1.5,0.1,3,0.4,4.3,0.9c0.7,0.3,1.4,0.6,1.9,1c4.4,2.8,4.6,7.9-1.4,10.7c-5.3,2.5-7.6,10.6,9.5,19.8
				c0.4,0.2,0.8,0.4,1.2,0.6c23.4,12.2,59.5,20.5,112.5,27.4c54.6,5.3,85.2,0,92.4-1.7c1.8-0.1,2.6,0.1,3.8,1
				C435.9,219.5,435.7,220.2,432,220.6z"/>
		</g>
		<g>
			<path class="st0" d="M460.3,211.4c-0.1,0.3-0.2,0.5-0.1,0.7c0.1,0.3,0.4,0.6,1,0.9c0.4,0.3,0.7,0.4,1.1,0.4c0.3,0,0.6,0,0.9,0
				c0.2,0,0.5,0,0.8-0.1c0.1,0,0.2,0,0.3-0.1c1-0.3,5.5-0.8,6.5-1.4c1.2-0.6,0.4-2.9-2.6-3.1c-0.3,0-0.7,0-1,0.1l-0.2,0.1
				c-0.1,0-0.2,0-0.3,0.1c-0.4,0.2-0.9,0.3-1.2,0.5C464.2,210.1,460.4,211.1,460.3,211.4z"/>
			
				<linearGradient id="SVGID_6_" gradientUnits="userSpaceOnUse" x1="1209.745" y1="-1150.5153" x2="1452.7957" y2="-1150.5153" gradientTransform="matrix(0.9898 0.1423 -0.1423 0.9898 -884.8992 1179.4703)">
				<stop  offset="0" style="stop-color:#FFFFFF"/>
				<stop  offset="1" style="stop-color:#FFFFFF;stop-opacity:0"/>
			</linearGradient>
			<path class="st8" d="M480.4,206.5c56.3-7.4,99.7-3.1,151.3,6.5c28.1,5.2,49.8,11.7,64,19.3c10.4,5.5,16.9,11.7,18.8,18.3
				c3.8,13-5.2,17.8-12.7,17.5c-1.5-0.1-3-0.4-4.3-0.9c-0.7-0.3-1.4-0.6-1.9-1c-4.4-2.8-4.6-7.9,1.4-10.7c5.3-2.5,7.6-10.6-9.5-19.8
				c-0.4-0.2-0.8-0.4-1.2-0.6c-23.4-12.2-59.5-20.5-112.5-27.4c-54.6-5.3-85.2,0-92.4,1.7c-1.8,0.1-2.6-0.1-3.8-1
				C476.5,207.6,476.7,207,480.4,206.5z"/>
		</g>
	</g>
	<g class="st9">
		<g>
			<path class="st0" d="M394,305.3c0.1-0.3,0.2-0.5,0.1-0.7c-0.1-0.3-0.4-0.6-1-0.9c-0.4-0.3-0.7-0.4-1.1-0.4c-0.3,0-0.6,0-0.9,0
				c-0.2,0-0.5,0-0.8,0.1c-0.1,0-0.2,0-0.3,0.1c-1,0.3-5.5,0.8-6.5,1.4c-1.2,0.6-0.4,2.9,2.6,3.1c0.3,0,0.7,0,1-0.1l0.2-0.1
				c0.1,0,0.2,0,0.3-0.1c0.4-0.2,0.9-0.3,1.2-0.5C390.1,306.6,393.9,305.6,394,305.3z"/>
			
				<linearGradient id="SVGID_7_" gradientUnits="userSpaceOnUse" x1="882.4452" y1="-1046.4186" x2="1125.4957" y2="-1046.4186" gradientTransform="matrix(0.9898 0.1423 -0.1423 0.9898 -884.8992 1179.4703)">
				<stop  offset="0" style="stop-color:#FFFFFF;stop-opacity:0"/>
				<stop  offset="1" style="stop-color:#FFFFFF"/>
			</linearGradient>
			<path class="st10" d="M373.9,310.2c-56.3,7.4-99.7,3.1-151.3-6.5c-28.1-5.2-49.8-11.7-64-19.3c-10.4-5.5-16.9-11.7-18.8-18.3
				c-3.8-13,5.2-17.8,12.7-17.5c1.5,0.1,3,0.4,4.3,0.9c0.7,0.3,1.4,0.6,1.9,1c4.4,2.8,4.6,7.9-1.4,10.7c-5.3,2.5-7.6,10.6,9.5,19.8
				c0.4,0.2,0.8,0.4,1.2,0.6c23.4,12.2,59.5,20.5,112.5,27.4c54.6,5.3,85.2,0,92.4-1.7c1.8-0.1,2.6,0.1,3.8,1
				C377.8,309.1,377.6,309.8,373.9,310.2z"/>
		</g>
		<g>
			<path class="st0" d="M401.7,300.5c-0.1,0.3-0.2,0.5-0.1,0.7c0.1,0.3,0.4,0.6,1,0.9c0.4,0.3,0.7,0.4,1.1,0.4c0.3,0,0.6,0,0.9,0
				c0.2,0,0.5,0,0.8-0.1c0.1,0,0.2,0,0.3-0.1c1-0.3,5.5-0.8,6.5-1.4c1.2-0.6,0.4-2.9-2.6-3.1c-0.3,0-0.7,0-1,0.1l-0.2,0.1
				c-0.1,0-0.2,0-0.3,0.1c-0.4,0.2-0.9,0.3-1.2,0.5C405.6,299.2,401.8,300.2,401.7,300.5z"/>
			
				<linearGradient id="SVGID_8_" gradientUnits="userSpaceOnUse" x1="1164.3961" y1="-1053.9871" x2="1407.4467" y2="-1053.9871" gradientTransform="matrix(0.9898 0.1423 -0.1423 0.9898 -884.8992 1179.4703)">
				<stop  offset="0" style="stop-color:#FFFFFF"/>
				<stop  offset="1" style="stop-color:#FFFFFF;stop-opacity:0"/>
			</linearGradient>
			<path class="st11" d="M421.8,295.6c56.3-7.4,99.7-3.1,151.3,6.5c28.1,5.2,49.8,11.7,64,19.3c10.4,5.5,16.9,11.7,18.8,18.3
				c3.8,13-5.2,17.8-12.7,17.5c-1.5-0.1-3-0.4-4.3-0.9c-0.7-0.3-1.4-0.6-1.9-1c-4.4-2.8-4.6-7.9,1.4-10.7c5.3-2.5,7.6-10.6-9.5-19.8
				c-0.4-0.2-0.8-0.4-1.2-0.6c-23.4-12.2-59.5-20.5-112.5-27.4c-54.6-5.3-85.2,0-92.4,1.7c-1.8,0.1-2.6-0.1-3.8-1
				C417.9,296.7,418.1,296.1,421.8,295.6z"/>
		</g>
	</g>
	<g class="st12">
		<g>
			<path class="st0" d="M380.8,332.4c0.1-0.3,0.2-0.5,0.1-0.7c-0.1-0.3-0.4-0.6-1-0.9c-0.4-0.3-0.7-0.4-1.1-0.4c-0.3,0-0.6,0-0.9,0
				c-0.2,0-0.5,0-0.8,0.1c-0.1,0-0.2,0-0.3,0.1c-1,0.3-5.5,0.8-6.5,1.4c-1.2,0.6-0.4,2.9,2.6,3.1c0.3,0,0.7,0,1-0.1l0.2-0.1
				c0.1,0,0.2,0,0.3-0.1c0.4-0.2,0.9-0.3,1.2-0.5C376.8,333.7,380.7,332.7,380.8,332.4z"/>
			
				<linearGradient id="SVGID_9_" gradientUnits="userSpaceOnUse" x1="873.1768" y1="-1017.705" x2="1116.2274" y2="-1017.705" gradientTransform="matrix(0.9898 0.1423 -0.1423 0.9898 -884.8992 1179.4703)">
				<stop  offset="0" style="stop-color:#FFFFFF;stop-opacity:0"/>
				<stop  offset="1" style="stop-color:#FFFFFF"/>
			</linearGradient>
			<path class="st13" d="M360.7,337.3c-56.3,7.4-99.7,3.1-151.3-6.5c-28.1-5.2-49.8-11.7-64-19.3c-10.4-5.5-16.9-11.7-18.8-18.3
				c-3.8-13,5.2-17.8,12.7-17.5c1.5,0.1,3,0.4,4.3,0.9c0.7,0.3,1.4,0.6,1.9,1c4.4,2.8,4.6,7.9-1.4,10.7c-5.3,2.5-7.6,10.6,9.5,19.8
				c0.4,0.2,0.8,0.4,1.2,0.6c23.4,12.2,59.5,20.5,112.5,27.4c54.6,5.3,85.2,0,92.4-1.7c1.8-0.1,2.6,0.1,3.8,1
				C364.6,336.2,364.4,336.9,360.7,337.3z"/>
		</g>
		<g>
			<path class="st0" d="M388.4,327.6c-0.1,0.3-0.2,0.5-0.1,0.7c0.1,0.3,0.4,0.6,1,0.9c0.4,0.3,0.7,0.4,1.1,0.4c0.3,0,0.6,0,0.9,0
				c0.2,0,0.5,0,0.8-0.1c0.1,0,0.2,0,0.3-0.1c1-0.3,5.5-0.8,6.5-1.4c1.2-0.6,0.4-2.9-2.6-3.1c-0.3,0-0.7,0-1,0.1l-0.2,0.1
				c-0.1,0-0.2,0-0.3,0.1c-0.4,0.2-0.9,0.3-1.2,0.5C392.4,326.3,388.5,327.3,388.4,327.6z"/>
			
				<linearGradient id="SVGID_10_" gradientUnits="userSpaceOnUse" x1="1155.1278" y1="-1025.2736" x2="1398.1783" y2="-1025.2736" gradientTransform="matrix(0.9898 0.1423 -0.1423 0.9898 -884.8992 1179.4703)">
				<stop  offset="0" style="stop-color:#FFFFFF"/>
				<stop  offset="1" style="stop-color:#FFFFFF;stop-opacity:0"/>
			</linearGradient>
			<path class="st14" d="M408.5,322.7c56.3-7.4,99.7-3.1,151.3,6.5c28.1,5.2,49.8,11.7,64,19.3c10.4,5.5,16.9,11.7,18.8,18.3
				c3.8,13-5.2,17.8-12.7,17.5c-1.5-0.1-3-0.4-4.3-0.9c-0.7-0.3-1.4-0.6-1.9-1c-4.4-2.8-4.6-7.9,1.4-10.7c5.3-2.5,7.6-10.6-9.5-19.8
				c-0.4-0.2-0.8-0.4-1.2-0.6C591,339,555,330.7,502,323.8c-54.6-5.3-85.2,0-92.4,1.7c-1.8,0.1-2.6-0.1-3.8-1
				C404.6,323.8,404.8,323.2,408.5,322.7z"/>
		</g>
	</g>
	<g class="st15">
		<g>
			<path class="st0" d="M414.9,275.5c0.1-0.3,0.2-0.5,0.1-0.7c-0.1-0.3-0.4-0.6-1-0.9c-0.4-0.3-0.7-0.4-1.1-0.4c-0.3,0-0.6,0-0.9,0
				c-0.2,0-0.5,0-0.8,0.1c-0.1,0-0.2,0-0.3,0.1c-1,0.3-5.5,0.8-6.5,1.4c-1.2,0.6-0.4,2.9,2.6,3.1c0.3,0,0.7,0,1-0.1l0.2-0.1
				c0.1,0,0.2,0,0.3-0.1c0.4-0.2,0.9-0.3,1.2-0.5C411,276.9,414.8,275.8,414.9,275.5z"/>
			
				<linearGradient id="SVGID_11_" gradientUnits="userSpaceOnUse" x1="898.8632" y1="-1078.8639" x2="1141.9137" y2="-1078.8639" gradientTransform="matrix(0.9898 0.1423 -0.1423 0.9898 -884.8992 1179.4703)">
				<stop  offset="0" style="stop-color:#FFFFFF;stop-opacity:0"/>
				<stop  offset="1" style="stop-color:#FFFFFF"/>
			</linearGradient>
			<path class="st16" d="M394.8,280.4c-56.3,7.4-99.7,3.1-151.3-6.5c-28.1-5.2-49.8-11.7-64-19.3c-10.4-5.5-16.9-11.7-18.8-18.3
				c-3.8-13,5.2-17.8,12.7-17.5c1.5,0.1,3,0.4,4.3,0.9c0.7,0.3,1.4,0.6,1.9,1c4.4,2.8,4.6,7.9-1.4,10.7c-5.3,2.5-7.6,10.6,9.5,19.8
				c0.4,0.2,0.8,0.4,1.2,0.6c23.4,12.2,59.5,20.5,112.5,27.4c54.6,5.3,85.2,0,92.4-1.7c1.8-0.1,2.6,0.1,3.8,1
				C398.7,279.4,398.5,280,394.8,280.4z"/>
		</g>
		<g>
			<path class="st0" d="M423.1,271.2c-0.1,0.3-0.2,0.5-0.1,0.7c0.1,0.3,0.4,0.6,1,0.9c0.4,0.3,0.7,0.4,1.1,0.4c0.3,0,0.6,0,0.9,0
				c0.2,0,0.5,0,0.8-0.1c0.1,0,0.2,0,0.3-0.1c1-0.3,5.5-0.8,6.5-1.4c1.2-0.6,0.4-2.9-2.6-3.1c-0.3,0-0.7,0-1,0.1l-0.2,0.1
				c-0.1,0-0.2,0-0.3,0.1c-0.4,0.2-0.9,0.3-1.2,0.5C427,269.9,423.2,270.9,423.1,271.2z"/>
			
				<linearGradient id="SVGID_12_" gradientUnits="userSpaceOnUse" x1="1181.429" y1="-1086.0156" x2="1424.4795" y2="-1086.0156" gradientTransform="matrix(0.9898 0.1423 -0.1423 0.9898 -884.8992 1179.4703)">
				<stop  offset="0" style="stop-color:#FFFFFF"/>
				<stop  offset="1" style="stop-color:#FFFFFF;stop-opacity:0"/>
			</linearGradient>
			<path class="st17" d="M443.2,266.3c56.3-7.4,99.7-3.1,151.3,6.5c28.1,5.2,49.8,11.7,64,19.3c10.4,5.5,16.9,11.7,18.8,18.3
				c3.8,13-5.2,17.8-12.7,17.5c-1.5-0.1-3-0.4-4.3-0.9c-0.7-0.3-1.4-0.6-1.9-1c-4.4-2.8-4.6-7.9,1.4-10.7c5.3-2.5,7.6-10.6-9.5-19.8
				c-0.4-0.2-0.8-0.4-1.2-0.6c-23.4-12.2-59.5-20.5-112.5-27.4c-54.6-5.3-85.2,0-92.4,1.7c-1.8,0.1-2.6-0.1-3.8-1
				C439.3,267.4,439.5,266.8,443.2,266.3z"/>
		</g>
	</g>
	<g class="st18">
		<g>
			<path class="st0" d="M349.2,391c0.1-0.3,0.2-0.5,0.1-0.7c-0.1-0.3-0.4-0.6-1-0.9c-0.4-0.3-0.7-0.4-1.1-0.4s-0.6,0-0.9,0
				c-0.2,0-0.5,0-0.8,0.1c-0.1,0-0.2,0-0.3,0.1c-1,0.3-5.5,0.8-6.5,1.4c-1.2,0.6-0.4,2.9,2.6,3.1c0.3,0,0.7,0,1-0.1l0.2-0.1
				c0.1,0,0.2,0,0.3-0.1c0.4-0.2,0.9-0.3,1.2-0.5C345.2,392.3,349.1,391.3,349.2,391z"/>
			
				<linearGradient id="SVGID_13_" gradientUnits="userSpaceOnUse" x1="850.2405" y1="-955.2579" x2="1093.2911" y2="-955.2579" gradientTransform="matrix(0.9898 0.1423 -0.1423 0.9898 -884.8992 1179.4703)">
				<stop  offset="0" style="stop-color:#FFFFFF;stop-opacity:0"/>
				<stop  offset="1" style="stop-color:#FFFFFF"/>
			</linearGradient>
			<path class="st19" d="M329.1,395.8c-56.3,7.4-99.7,3.1-151.3-6.5c-28.1-5.2-49.8-11.7-64-19.3c-10.4-5.5-16.9-11.7-18.8-18.3
				c-3.8-13,5.2-17.8,12.7-17.5c1.5,0.1,3,0.4,4.3,0.9c0.7,0.3,1.4,0.6,1.9,1c4.4,2.8,4.6,7.9-1.4,10.7c-5.3,2.5-7.6,10.6,9.5,19.8
				c0.4,0.2,0.8,0.4,1.2,0.6c23.4,12.2,59.5,20.5,112.5,27.4c54.6,5.3,85.2,0,92.4-1.7c1.8-0.1,2.6,0.1,3.8,1
				C333,394.8,332.8,395.4,329.1,395.8z"/>
		</g>
		<g>
			<path class="st0" d="M356.8,386.1c-0.1,0.3-0.2,0.5-0.1,0.7c0.1,0.3,0.4,0.6,1,0.9c0.4,0.3,0.7,0.4,1.1,0.4c0.3,0,0.6,0,0.9,0
				c0.2,0,0.5,0,0.8-0.1c0.1,0,0.2,0,0.3-0.1c1-0.3,5.5-0.8,6.5-1.4c1.2-0.6,0.4-2.9-2.6-3.1c-0.3,0-0.7,0-1,0.1l-0.2,0.1
				c-0.1,0-0.2,0-0.3,0.1c-0.4,0.2-0.9,0.3-1.2,0.5C360.8,384.8,356.9,385.9,356.8,386.1z"/>
			
				<linearGradient id="SVGID_14_" gradientUnits="userSpaceOnUse" x1="1132.1915" y1="-962.8265" x2="1375.2421" y2="-962.8265" gradientTransform="matrix(0.9898 0.1423 -0.1423 0.9898 -884.8992 1179.4703)">
				<stop  offset="0" style="stop-color:#FFFFFF"/>
				<stop  offset="1" style="stop-color:#FFFFFF;stop-opacity:0"/>
			</linearGradient>
			<path class="st20" d="M376.9,381.3c56.3-7.4,99.7-3.1,151.3,6.5c28.1,5.2,49.8,11.7,64,19.3c10.4,5.5,16.9,11.7,18.8,18.3
				c3.8,13-5.2,17.8-12.7,17.5c-1.5-0.1-3-0.4-4.3-0.9c-0.7-0.3-1.4-0.6-1.9-1c-4.4-2.8-4.6-7.9,1.4-10.7c5.3-2.5,7.6-10.6-9.5-19.8
				c-0.4-0.2-0.8-0.4-1.2-0.6c-23.4-12.2-59.5-20.5-112.5-27.4c-54.6-5.3-85.2,0-92.4,1.7c-1.8,0.1-2.6-0.1-3.8-1
				C373,382.3,373.2,381.7,376.9,381.3z"/>
		</g>
	</g>
	<g class="st21">
		<g>
			<path class="st0" d="M370.1,361.2c0.1-0.3,0.2-0.5,0.1-0.7c-0.1-0.3-0.4-0.6-1-0.9c-0.4-0.3-0.7-0.4-1.1-0.4c-0.3,0-0.6,0-0.9,0
				c-0.2,0-0.5,0-0.8,0.1c-0.1,0-0.2,0-0.3,0.1c-1,0.3-5.5,0.8-6.5,1.4c-1.2,0.6-0.4,2.9,2.6,3.1c0.3,0,0.7,0,1-0.1l0.2-0.1
				c0.1,0,0.2,0,0.3-0.1c0.4-0.2,0.9-0.3,1.2-0.5C366.1,362.5,369.9,361.5,370.1,361.2z"/>
			
				<linearGradient id="SVGID_15_" gradientUnits="userSpaceOnUse" x1="866.6585" y1="-987.7032" x2="1109.7091" y2="-987.7032" gradientTransform="matrix(0.9898 0.1423 -0.1423 0.9898 -884.8992 1179.4703)">
				<stop  offset="0" style="stop-color:#FFFFFF;stop-opacity:0"/>
				<stop  offset="1" style="stop-color:#FFFFFF"/>
			</linearGradient>
			<path class="st22" d="M350,366.1c-56.3,7.4-99.7,3.1-151.3-6.5c-28.1-5.2-49.8-11.7-64-19.3c-10.4-5.5-16.9-11.7-18.8-18.3
				c-3.8-13,5.2-17.8,12.7-17.5c1.5,0.1,3,0.4,4.3,0.9c0.7,0.3,1.4,0.6,1.9,1c4.4,2.8,4.6,7.9-1.4,10.7c-5.3,2.5-7.6,10.6,9.5,19.8
				c0.4,0.2,0.8,0.4,1.2,0.6c23.4,12.2,59.5,20.5,112.5,27.4c54.6,5.3,85.2,0,92.4-1.7c1.8-0.1,2.6,0.1,3.8,1
				C353.8,365,353.7,365.6,350,366.1z"/>
		</g>
		<g>
			<path class="st0" d="M378.2,356.9c-0.1,0.3-0.2,0.5-0.1,0.7c0.1,0.3,0.4,0.6,1,0.9c0.4,0.3,0.7,0.4,1.1,0.4s0.6,0,0.9,0
				c0.2,0,0.5,0,0.8-0.1c0.1,0,0.2,0,0.3-0.1c1-0.3,5.5-0.8,6.5-1.4c1.2-0.6,0.4-2.9-2.6-3.1c-0.3,0-0.7,0-1,0.1l-0.2,0.1
				c-0.1,0-0.2,0-0.3,0.1c-0.4,0.2-0.9,0.3-1.2,0.5C382.2,355.5,378.4,356.6,378.2,356.9z"/>
			
				<linearGradient id="SVGID_16_" gradientUnits="userSpaceOnUse" x1="1149.2242" y1="-994.8551" x2="1392.2748" y2="-994.8551" gradientTransform="matrix(0.9898 0.1423 -0.1423 0.9898 -884.8992 1179.4703)">
				<stop  offset="0" style="stop-color:#FFFFFF"/>
				<stop  offset="1" style="stop-color:#FFFFFF;stop-opacity:0"/>
			</linearGradient>
			<path class="st23" d="M398.3,352c56.3-7.4,99.7-3.1,151.3,6.5c28.1,5.2,49.8,11.7,64,19.3c10.4,5.5,16.9,11.7,18.8,18.3
				c3.8,13-5.2,17.8-12.7,17.5c-1.5-0.1-3-0.4-4.3-0.9c-0.7-0.3-1.4-0.6-1.9-1c-4.4-2.8-4.6-7.9,1.4-10.7c5.3-2.5,7.6-10.6-9.5-19.8
				c-0.4-0.2-0.8-0.4-1.2-0.6c-23.4-12.2-59.5-20.5-112.5-27.4c-54.6-5.3-85.2,0-92.4,1.7c-1.8,0.1-2.6-0.1-3.8-1
				C394.4,353,394.6,352.4,398.3,352z"/>
		</g>
	</g>
	<g>
		<g>
			<path class="st0" d="M472.8,187.6c0.1-0.3,0.2-0.5,0.1-0.7c-0.1-0.3-0.4-0.6-1-0.9c-0.4-0.3-0.7-0.4-1.1-0.4c-0.3,0-0.6,0-0.9,0
				c-0.2,0-0.5,0-0.8,0.1c-0.1,0-0.2,0-0.3,0.1c-1,0.3-5.5,0.8-6.5,1.4c-1.2,0.6-0.4,2.9,2.6,3.1c0.3,0,0.7,0,1-0.1l0.2-0.1
				c0.1,0,0.2,0,0.3-0.1c0.4-0.2,0.9-0.3,1.2-0.5C468.8,189,472.6,187.9,472.8,187.6z"/>
			
				<linearGradient id="SVGID_17_" gradientUnits="userSpaceOnUse" x1="943.6187" y1="-1174.0862" x2="1186.6692" y2="-1174.0862" gradientTransform="matrix(0.9898 0.1423 -0.1423 0.9898 -884.8992 1179.4703)">
				<stop  offset="0" style="stop-color:#FFFFFF;stop-opacity:0"/>
				<stop  offset="1" style="stop-color:#FFFFFF"/>
			</linearGradient>
			<path class="st24" d="M452.7,192.5c-56.3,7.4-99.7,3.1-151.3-6.5c-28.1-5.2-49.8-11.7-64-19.3c-10.4-5.5-16.9-11.7-18.8-18.3
				c-3.8-13,5.2-17.8,12.7-17.5c1.5,0.1,3,0.4,4.3,0.9c0.7,0.3,1.4,0.6,1.9,1c4.4,2.8,4.6,7.9-1.4,10.7c-5.3,2.5-7.6,10.6,9.5,19.8
				c0.4,0.2,0.8,0.4,1.2,0.6c23.4,12.2,59.5,20.5,112.5,27.4c54.6,5.3,85.2,0,92.4-1.7c1.8-0.1,2.6,0.1,3.8,1
				C456.6,191.5,456.4,192.1,452.7,192.5z"/>
		</g>
		<g>
			<path class="st0" d="M480.9,183.3c-0.1,0.3-0.2,0.5-0.1,0.7c0.1,0.3,0.4,0.6,1,0.9c0.4,0.3,0.7,0.4,1.1,0.4c0.3,0,0.6,0,0.9,0
				c0.2,0,0.5,0,0.8-0.1c0.1,0,0.2,0,0.3-0.1c1-0.3,5.5-0.8,6.5-1.4c1.2-0.6,0.4-2.9-2.6-3.1c-0.3,0-0.7,0-1,0.1l-0.2,0.1
				c-0.1,0-0.2,0-0.3,0.1c-0.4,0.2-0.9,0.3-1.2,0.5C484.9,182,481.1,183,480.9,183.3z"/>
			
				<linearGradient id="SVGID_18_" gradientUnits="userSpaceOnUse" x1="1226.1844" y1="-1181.238" x2="1469.235" y2="-1181.238" gradientTransform="matrix(0.9898 0.1423 -0.1423 0.9898 -884.8992 1179.4703)">
				<stop  offset="0" style="stop-color:#FFFFFF"/>
				<stop  offset="1" style="stop-color:#FFFFFF;stop-opacity:0"/>
			</linearGradient>
			<path class="st25" d="M501,178.5c56.3-7.4,99.7-3.1,151.3,6.5c28.1,5.2,49.8,11.7,64,19.3c10.4,5.5,16.9,11.7,18.8,18.3
				c3.8,13-5.2,17.8-12.7,17.5c-1.5-0.1-3-0.4-4.3-0.9c-0.7-0.3-1.4-0.6-1.9-1c-4.4-2.8-4.6-7.9,1.4-10.7c5.3-2.5,7.6-10.6-9.5-19.8
				c-0.4-0.2-0.8-0.4-1.2-0.6c-23.4-12.2-59.5-20.5-112.5-27.4c-54.6-5.3-85.2,0-92.4,1.7c-1.8,0.1-2.6-0.1-3.8-1
				C497.1,179.5,497.3,178.9,501,178.5z"/>
		</g>
	</g>
	<g>
		<path class="st0" d="M506.1,154.1c-0.1,0.3-0.2,0.5-0.1,0.7c0.1,0.3,0.4,0.6,1,0.9c0.4,0.3,0.7,0.4,1.1,0.4c0.3,0,0.6,0,0.9,0
			c0.2,0,0.5,0,0.8-0.1c0.1,0,0.2,0,0.3-0.1c1-0.3,5.5-0.8,6.5-1.4c1.2-0.6,0.4-2.9-2.6-3.1c-0.3,0-0.7,0-1,0.1l-0.2,0.1
			c-0.1,0-0.2,0-0.3,0.1c-0.4,0.2-0.9,0.3-1.2,0.5C510,152.8,506.2,153.8,506.1,154.1z"/>
		
			<linearGradient id="SVGID_19_" gradientUnits="userSpaceOnUse" x1="1246.9329" y1="-1213.7128" x2="1489.9834" y2="-1213.7128" gradientTransform="matrix(0.9898 0.1423 -0.1423 0.9898 -884.8992 1179.4703)">
			<stop  offset="0" style="stop-color:#FFFFFF"/>
			<stop  offset="1" style="stop-color:#FFFFFF;stop-opacity:0"/>
		</linearGradient>
		<path class="st26" d="M526.2,149.3c56.3-7.4,99.7-3.1,151.3,6.5c28.1,5.2,49.8,11.7,64,19.3c10.4,5.5,16.9,11.7,18.8,18.3
			c3.8,13-5.2,17.8-12.7,17.5c-1.5-0.1-3-0.4-4.3-0.9c-0.7-0.3-1.4-0.6-1.9-1c-4.4-2.8-4.6-7.9,1.4-10.7c5.3-2.5,7.6-10.6-9.5-19.8
			c-0.4-0.2-0.8-0.4-1.2-0.6c-23.4-12.2-59.5-20.5-112.5-27.4c-54.6-5.3-85.2,0-92.4,1.7c-1.8,0.1-2.6-0.1-3.8-1
			C522.3,150.3,522.5,149.7,526.2,149.3z"/>
	</g>
	<g>
		<path class="st0" d="M526.7,126.1c-0.1,0.3-0.2,0.5-0.1,0.7c0.1,0.3,0.4,0.6,1,0.9c0.4,0.3,0.7,0.4,1.1,0.4c0.3,0,0.6,0,0.9,0
			c0.2,0,0.5,0,0.8-0.1c0.1,0,0.2,0,0.3-0.1c1-0.3,5.5-0.8,6.5-1.4c1.2-0.6,0.4-2.9-2.6-3.1c-0.3,0-0.7,0-1,0.1l-0.2,0.1
			c-0.1,0-0.2,0-0.3,0.1c-0.4,0.2-0.9,0.3-1.2,0.5C530.7,124.8,526.9,125.8,526.7,126.1z"/>
		
			<linearGradient id="SVGID_20_" gradientUnits="userSpaceOnUse" x1="1263.3722" y1="-1244.4354" x2="1506.4229" y2="-1244.4354" gradientTransform="matrix(0.9898 0.1423 -0.1423 0.9898 -884.8992 1179.4703)">
			<stop  offset="0" style="stop-color:#FFFFFF"/>
			<stop  offset="1" style="stop-color:#FFFFFF;stop-opacity:0"/>
		</linearGradient>
		<path class="st27" d="M546.8,121.2c56.3-7.4,99.7-3.1,151.3,6.5c28.1,5.2,49.8,11.7,64,19.3c10.4,5.5,16.9,11.7,18.8,18.3
			c3.8,13-5.2,17.8-12.7,17.5c-1.5-0.1-3-0.4-4.3-0.9c-0.7-0.3-1.4-0.6-1.9-1c-4.4-2.8-4.6-7.9,1.4-10.7c5.3-2.5,7.6-10.6-9.5-19.8
			c-0.4-0.2-0.8-0.4-1.2-0.6c-23.4-12.2-59.5-20.5-112.5-27.4c-54.6-5.3-85.2,0-92.4,1.7c-1.8,0.1-2.6-0.1-3.8-1
			C543,122.2,543.1,121.6,546.8,121.2z"/>
	</g>
</g>
</svg>
