<?xml version="1.0" encoding="utf-8"?>
<!-- Generator: Adobe Illustrator 24.0.0, SVG Export Plug-In . SVG Version: 6.00 Build 0)  -->
<svg version="1.1" id="Capa_1" xmlns="http://www.w3.org/2000/svg" xmlns:xlink="http://www.w3.org/1999/xlink" x="0px" y="0px"
	 viewBox="0 0 493.8 363.2" style="enable-background:new 0 0 493.8 363.2;" xml:space="preserve">
<style type="text/css">
	.st0{fill:#FFFFFF;}
	.st1{fill:url(#SVGID_1_);}
	.st2{fill:url(#SVGID_2_);}
	.st3{opacity:0.6;}
	.st4{fill:url(#SVGID_3_);}
	.st5{fill:url(#SVGID_4_);}
	.st6{opacity:0.8;}
	.st7{fill:url(#SVGID_5_);}
	.st8{fill:url(#SVGID_6_);}
	.st9{opacity:0.3;}
	.st10{fill:url(#SVGID_7_);}
	.st11{fill:url(#SVGID_8_);}
	.st12{opacity:0.2;}
	.st13{fill:url(#SVGID_9_);}
	.st14{fill:url(#SVGID_10_);}
	.st15{opacity:0.4;}
	.st16{fill:url(#SVGID_11_);}
	.st17{fill:url(#SVGID_12_);}
	.st18{opacity:5.000000e-02;}
	.st19{fill:url(#SVGID_13_);}
	.st20{fill:url(#SVGID_14_);}
	.st21{opacity:0.1;}
	.st22{fill:url(#SVGID_15_);}
	.st23{fill:url(#SVGID_16_);}
	.st24{fill:url(#SVGID_17_);}
	.st25{fill:url(#SVGID_18_);}
	.st26{fill:url(#SVGID_19_);}
	.st27{fill:url(#SVGID_20_);}
</style>
<g>
	<g>
		<path class="st0" d="M263.3,87.3c0-0.2,0-0.3-0.1-0.4c-0.1-0.2-0.4-0.3-0.8-0.3c-0.3-0.1-0.5-0.1-0.7,0s-0.4,0.1-0.5,0.2
			c-0.1,0.1-0.3,0.1-0.5,0.2c-0.1,0-0.1,0.1-0.2,0.1c-0.6,0.4-3.1,1.7-3.6,2.3c-0.5,0.6,0.4,1.8,2.2,1.3c0.2-0.1,0.4-0.1,0.6-0.3
			l0.1-0.1c0,0,0.1-0.1,0.1-0.1c0.2-0.2,0.4-0.4,0.6-0.6C261.3,89,263.3,87.5,263.3,87.3z"/>
		
			<linearGradient id="SVGID_1_" gradientUnits="userSpaceOnUse" x1="-337.9414" y1="59.8115" x2="-183.6158" y2="59.8115" gradientTransform="matrix(0.9763 -0.2164 0.2164 0.9763 419.8124 -8.0874)">
			<stop  offset="0" style="stop-color:#FFFFFF;stop-opacity:0"/>
			<stop  offset="1" style="stop-color:#FFFFFF"/>
		</linearGradient>
		<path class="st1" d="M252.5,94.7c-31.8,17-58.5,24.2-91.3,30c-17.9,3.2-32.2,4.2-42.4,2.9c-7.5-1-12.6-3.2-15.3-6.7
			c-5.2-6.9-0.9-11.8,3.6-13.2c0.9-0.3,1.9-0.5,2.7-0.4c0.5,0,0.9,0.1,1.4,0.1c3.3,0.7,4.5,3.7,1.6,6.7c-2.6,2.7-2.2,8,10.1,9.7
			c0.3,0,0.6,0.1,0.8,0.1c16.7,2,39.9-1.2,73-9c33.6-9.1,50.6-19.1,54.5-21.7c1-0.5,1.5-0.5,2.5-0.3
			C254.5,93.2,254.6,93.6,252.5,94.7z"/>
	</g>
	<g>
		<path class="st0" d="M257.3,108.6c0-0.2,0-0.3-0.1-0.4c-0.1-0.2-0.4-0.3-0.8-0.3c-0.3-0.1-0.5-0.1-0.7,0c-0.2,0.1-0.4,0.1-0.5,0.2
			c-0.1,0.1-0.3,0.1-0.5,0.2c-0.1,0-0.1,0.1-0.2,0.1c-0.6,0.4-3.1,1.7-3.6,2.3c-0.5,0.6,0.4,1.8,2.2,1.3c0.2-0.1,0.4-0.1,0.6-0.3
			l0.1-0.1c0,0,0.1-0.1,0.1-0.1c0.2-0.2,0.4-0.4,0.6-0.6C255.3,110.3,257.3,108.8,257.3,108.6z"/>
		
			<linearGradient id="SVGID_2_" gradientUnits="userSpaceOnUse" x1="-348.3797" y1="79.319" x2="-194.054" y2="79.319" gradientTransform="matrix(0.9763 -0.2164 0.2164 0.9763 419.8124 -8.0874)">
			<stop  offset="0" style="stop-color:#FFFFFF;stop-opacity:0"/>
			<stop  offset="1" style="stop-color:#FFFFFF"/>
		</linearGradient>
		<path class="st2" d="M246.5,116c-31.8,17-58.5,24.2-91.3,30c-17.9,3.2-32.2,4.2-42.4,2.9c-7.5-1-12.6-3.2-15.3-6.7
			c-5.2-6.9-0.9-11.8,3.6-13.2c0.9-0.3,1.9-0.5,2.7-0.4c0.5,0,0.9,0.1,1.4,0.1c3.3,0.7,4.5,3.7,1.6,6.7c-2.6,2.7-2.2,8,10.1,9.7
			c0.3,0,0.6,0.1,0.8,0.1c16.7,2,39.9-1.2,73-9c33.6-9.1,50.6-19.1,54.5-21.7c1-0.5,1.5-0.5,2.5-0.3
			C248.6,114.5,248.6,114.9,246.5,116z"/>
	</g>
	<g class="st3">
		<g>
			<path class="st0" d="M236,175.3c0-0.2,0-0.3-0.1-0.4c-0.1-0.2-0.4-0.3-0.8-0.3c-0.3-0.1-0.5-0.1-0.7,0s-0.4,0.1-0.5,0.2
				c-0.1,0.1-0.3,0.1-0.5,0.2c-0.1,0-0.1,0.1-0.2,0.1c-0.6,0.4-3.1,1.7-3.6,2.3c-0.5,0.6,0.4,1.8,2.2,1.3c0.2-0.1,0.4-0.1,0.6-0.3
				l0.1-0.1c0,0,0.1-0.1,0.1-0.1c0.2-0.2,0.4-0.4,0.6-0.6C234,176.9,236,175.5,236,175.3z"/>
			
				<linearGradient id="SVGID_3_" gradientUnits="userSpaceOnUse" x1="-383.5928" y1="139.7883" x2="-229.2671" y2="139.7883" gradientTransform="matrix(0.9763 -0.2164 0.2164 0.9763 419.8124 -8.0874)">
				<stop  offset="0" style="stop-color:#FFFFFF;stop-opacity:0"/>
				<stop  offset="1" style="stop-color:#FFFFFF"/>
			</linearGradient>
			<path class="st4" d="M225.2,182.7c-31.8,17-58.5,24.2-91.3,30c-17.9,3.2-32.2,4.2-42.4,2.9c-7.5-1-12.6-3.2-15.3-6.7
				c-5.2-6.9-0.9-11.8,3.6-13.2c0.9-0.3,1.9-0.5,2.7-0.4c0.5,0,0.9,0.1,1.4,0.1c3.3,0.7,4.5,3.7,1.6,6.7c-2.6,2.7-2.2,8,10.1,9.7
				c0.3,0,0.6,0.1,0.8,0.1c16.7,2,39.9-1.2,73-9c33.6-9.1,50.6-19.1,54.5-21.7c1-0.5,1.5-0.5,2.5-0.3
				C227.3,181.2,227.3,181.6,225.2,182.7z"/>
		</g>
		<g>
			<path class="st0" d="M239.5,170.7c0,0.2,0,0.3,0.1,0.4c0.1,0.2,0.4,0.3,0.8,0.3c0.3,0.1,0.5,0.1,0.7,0c0.2-0.1,0.4-0.1,0.5-0.2
				c0.1-0.1,0.3-0.1,0.5-0.2c0.1,0,0.1-0.1,0.2-0.1c0.6-0.4,3.1-1.7,3.6-2.3c0.5-0.6-0.4-1.8-2.2-1.3c-0.2,0.1-0.4,0.1-0.6,0.3
				l-0.1,0.1c0,0-0.1,0.1-0.1,0.1c-0.2,0.2-0.4,0.4-0.6,0.6C241.5,169,239.5,170.5,239.5,170.7z"/>
			
				<linearGradient id="SVGID_4_" gradientUnits="userSpaceOnUse" x1="-204.5672" y1="134.9827" x2="-50.2416" y2="134.9827" gradientTransform="matrix(0.9763 -0.2164 0.2164 0.9763 419.8124 -8.0874)">
				<stop  offset="0" style="stop-color:#FFFFFF"/>
				<stop  offset="1" style="stop-color:#FFFFFF;stop-opacity:0"/>
			</linearGradient>
			<path class="st5" d="M250.3,163.3c31.8-17,58.5-24.2,91.3-30c17.9-3.2,32.2-4.2,42.4-2.9c7.5,1,12.6,3.2,15.3,6.7
				c5.2,6.9,0.9,11.8-3.6,13.2c-0.9,0.3-1.9,0.5-2.7,0.4c-0.5,0-0.9-0.1-1.4-0.1c-3.3-0.7-4.5-3.7-1.6-6.7c2.6-2.7,2.2-8-10.1-9.7
				c-0.3,0-0.6-0.1-0.8-0.1c-16.7-2-39.9,1.2-73,9c-33.6,9.1-50.6,19.1-54.5,21.7c-1,0.5-1.5,0.5-2.5,0.3
				C248.3,164.8,248.2,164.4,250.3,163.3z"/>
		</g>
	</g>
	<g class="st6">
		<g>
			<path class="st0" d="M241.8,152.9c0-0.2,0-0.3-0.1-0.4c-0.1-0.2-0.4-0.3-0.8-0.3c-0.3-0.1-0.5-0.1-0.7,0
				c-0.2,0.1-0.4,0.1-0.5,0.2c-0.1,0.1-0.3,0.1-0.5,0.2c-0.1,0-0.1,0.1-0.2,0.1c-0.6,0.4-3.1,1.7-3.6,2.3c-0.5,0.6,0.4,1.8,2.2,1.3
				c0.2-0.1,0.4-0.1,0.6-0.3l0.1-0.1c0,0,0.1-0.1,0.1-0.1c0.2-0.2,0.4-0.4,0.6-0.6C239.7,154.6,241.8,153.1,241.8,152.9z"/>
			
				<linearGradient id="SVGID_5_" gradientUnits="userSpaceOnUse" x1="-373.1682" y1="119.1871" x2="-218.8425" y2="119.1871" gradientTransform="matrix(0.9763 -0.2164 0.2164 0.9763 419.8124 -8.0874)">
				<stop  offset="0" style="stop-color:#FFFFFF;stop-opacity:0"/>
				<stop  offset="1" style="stop-color:#FFFFFF"/>
			</linearGradient>
			<path class="st7" d="M230.9,160.3c-31.8,17-58.5,24.2-91.3,30c-17.9,3.2-32.2,4.2-42.4,2.9c-7.5-1-12.6-3.2-15.3-6.7
				c-5.2-6.9-0.9-11.8,3.6-13.2c0.9-0.3,1.9-0.5,2.7-0.4c0.5,0,0.9,0.1,1.4,0.1c3.3,0.7,4.5,3.7,1.6,6.7c-2.6,2.7-2.2,8,10.1,9.7
				c0.3,0,0.6,0.1,0.8,0.1c16.7,2,39.9-1.2,73-9c33.6-9.1,50.6-19.1,54.5-21.7c1-0.5,1.5-0.5,2.5-0.3
				C233,158.8,233,159.2,230.9,160.3z"/>
		</g>
		<g>
			<path class="st0" d="M245.7,148.5c0,0.2,0,0.3,0.1,0.4c0.1,0.2,0.4,0.3,0.8,0.3c0.3,0.1,0.5,0.1,0.7,0s0.4-0.1,0.5-0.2
				c0.1-0.1,0.3-0.1,0.5-0.2c0.1,0,0.1-0.1,0.2-0.1c0.6-0.4,3.1-1.7,3.6-2.3c0.5-0.6-0.4-1.8-2.2-1.3c-0.2,0.1-0.4,0.1-0.6,0.3
				l-0.1,0.1c0,0-0.1,0.1-0.1,0.1c-0.2,0.2-0.4,0.4-0.6,0.6C247.7,146.8,245.7,148.3,245.7,148.5z"/>
			
				<linearGradient id="SVGID_6_" gradientUnits="userSpaceOnUse" x1="-193.7522" y1="114.646" x2="-39.4266" y2="114.646" gradientTransform="matrix(0.9763 -0.2164 0.2164 0.9763 419.8124 -8.0874)">
				<stop  offset="0" style="stop-color:#FFFFFF"/>
				<stop  offset="1" style="stop-color:#FFFFFF;stop-opacity:0"/>
			</linearGradient>
			<path class="st8" d="M256.5,141.1c31.8-17,58.5-24.2,91.3-30c17.9-3.2,32.2-4.2,42.4-2.9c7.5,1,12.6,3.2,15.3,6.7
				c5.2,6.9,0.9,11.8-3.6,13.2c-0.9,0.3-1.9,0.5-2.7,0.4c-0.5,0-0.9-0.1-1.4-0.1c-3.3-0.7-4.5-3.7-1.6-6.7c2.6-2.7,2.2-8-10.1-9.7
				c-0.3,0-0.6-0.1-0.8-0.1c-16.7-2-39.9,1.2-73,9c-33.6,9.1-50.6,19.1-54.5,21.7c-1,0.5-1.5,0.5-2.5,0.3
				C254.4,142.6,254.4,142.2,256.5,141.1z"/>
		</g>
	</g>
	<g class="st9">
		<g>
			<path class="st0" d="M227.4,219.1c0-0.2,0-0.3-0.1-0.4c-0.1-0.2-0.4-0.3-0.8-0.3c-0.3-0.1-0.5-0.1-0.7,0
				c-0.2,0.1-0.4,0.1-0.5,0.2c-0.1,0.1-0.3,0.1-0.5,0.2c-0.1,0-0.1,0.1-0.2,0.1c-0.6,0.4-3.1,1.7-3.6,2.3c-0.5,0.6,0.4,1.8,2.2,1.3
				c0.2-0.1,0.4-0.1,0.6-0.3l0.1-0.1c0,0,0.1-0.1,0.1-0.1c0.2-0.2,0.4-0.4,0.6-0.6C225.3,220.8,227.3,219.4,227.4,219.1z"/>
			
				<linearGradient id="SVGID_7_" gradientUnits="userSpaceOnUse" x1="-401.5722" y1="180.7426" x2="-247.2465" y2="180.7426" gradientTransform="matrix(0.9763 -0.2164 0.2164 0.9763 419.8124 -8.0874)">
				<stop  offset="0" style="stop-color:#FFFFFF;stop-opacity:0"/>
				<stop  offset="1" style="stop-color:#FFFFFF"/>
			</linearGradient>
			<path class="st10" d="M216.5,226.6c-31.8,17-58.5,24.2-91.3,30c-17.9,3.2-32.2,4.2-42.4,2.9c-7.5-1-12.6-3.2-15.3-6.7
				c-5.2-6.9-0.9-11.8,3.6-13.2c0.9-0.3,1.9-0.5,2.7-0.4c0.5,0,0.9,0.1,1.4,0.1c3.3,0.7,4.5,3.7,1.6,6.7c-2.6,2.7-2.2,8,10.1,9.7
				c0.3,0,0.6,0.1,0.8,0.1c16.7,2,39.9-1.2,73-9c33.6-9.1,50.6-19.1,54.5-21.7c1-0.5,1.5-0.5,2.5-0.3
				C218.6,225.1,218.6,225.5,216.5,226.6z"/>
		</g>
		<g>
			<path class="st0" d="M230.8,214.6c0,0.2,0,0.3,0.1,0.4c0.1,0.2,0.4,0.3,0.8,0.3c0.3,0.1,0.5,0.1,0.7,0c0.2-0.1,0.4-0.1,0.5-0.2
				c0.1-0.1,0.3-0.1,0.5-0.2c0.1,0,0.1-0.1,0.2-0.1c0.6-0.4,3.1-1.7,3.6-2.3c0.5-0.6-0.4-1.8-2.2-1.3c-0.2,0.1-0.4,0.1-0.6,0.3
				l-0.1,0.1c0,0-0.1,0.1-0.1,0.1c-0.2,0.2-0.4,0.4-0.6,0.6C232.9,212.9,230.8,214.4,230.8,214.6z"/>
			
				<linearGradient id="SVGID_8_" gradientUnits="userSpaceOnUse" x1="-222.5466" y1="175.9369" x2="-68.221" y2="175.9369" gradientTransform="matrix(0.9763 -0.2164 0.2164 0.9763 419.8124 -8.0874)">
				<stop  offset="0" style="stop-color:#FFFFFF"/>
				<stop  offset="1" style="stop-color:#FFFFFF;stop-opacity:0"/>
			</linearGradient>
			<path class="st11" d="M241.6,207.2c31.8-17,58.5-24.2,91.3-30c17.9-3.2,32.2-4.2,42.4-2.9c7.5,1,12.6,3.2,15.3,6.7
				c5.2,6.9,0.9,11.8-3.6,13.2c-0.9,0.3-1.9,0.5-2.7,0.4c-0.5,0-0.9-0.1-1.4-0.1c-3.3-0.7-4.5-3.7-1.6-6.7c2.6-2.7,2.2-8-10.1-9.7
				c-0.3,0-0.6-0.1-0.8-0.1c-16.7-2-39.9,1.2-73,9c-33.6,9.1-50.6,19.1-54.5,21.7c-1,0.5-1.5,0.5-2.5,0.3
				C239.6,208.7,239.5,208.3,241.6,207.2z"/>
		</g>
	</g>
	<g class="st12">
		<g>
			<path class="st0" d="M225.6,238.2c0-0.2,0-0.3-0.1-0.4c-0.1-0.2-0.4-0.3-0.8-0.3c-0.3-0.1-0.5-0.1-0.7,0
				c-0.2,0.1-0.4,0.1-0.5,0.2c-0.1,0.1-0.3,0.1-0.5,0.2c-0.1,0-0.1,0.1-0.2,0.1c-0.6,0.4-3.1,1.7-3.6,2.3c-0.5,0.6,0.4,1.8,2.2,1.3
				c0.2-0.1,0.4-0.1,0.6-0.3l0.1-0.1c0,0,0.1-0.1,0.1-0.1c0.2-0.2,0.4-0.4,0.6-0.6C223.5,239.9,225.5,238.4,225.6,238.2z"/>
			
				<linearGradient id="SVGID_9_" gradientUnits="userSpaceOnUse" x1="-407.4572" y1="198.9743" x2="-253.1315" y2="198.9743" gradientTransform="matrix(0.9763 -0.2164 0.2164 0.9763 419.8124 -8.0874)">
				<stop  offset="0" style="stop-color:#FFFFFF;stop-opacity:0"/>
				<stop  offset="1" style="stop-color:#FFFFFF"/>
			</linearGradient>
			<path class="st13" d="M214.7,245.6c-31.8,17-58.5,24.2-91.3,30c-17.9,3.2-32.2,4.2-42.4,2.9c-7.5-1-12.6-3.2-15.3-6.7
				c-5.2-6.9-0.9-11.8,3.6-13.2c0.9-0.3,1.9-0.5,2.7-0.4c0.5,0,0.9,0.1,1.4,0.1c3.3,0.7,4.5,3.7,1.6,6.7c-2.6,2.7-2.2,8,10.1,9.7
				c0.3,0,0.6,0.1,0.8,0.1c16.7,2,39.9-1.2,73-9c33.6-9.1,50.6-19.1,54.5-21.7c1-0.5,1.5-0.5,2.5-0.3
				C216.8,244.1,216.8,244.5,214.7,245.6z"/>
		</g>
		<g>
			<path class="st0" d="M229,233.7c0,0.2,0,0.3,0.1,0.4c0.1,0.2,0.4,0.3,0.8,0.3c0.3,0.1,0.5,0.1,0.7,0c0.2-0.1,0.4-0.1,0.5-0.2
				c0.1-0.1,0.3-0.1,0.5-0.2c0.1,0,0.1-0.1,0.2-0.1c0.6-0.4,3.1-1.7,3.6-2.3c0.5-0.6-0.4-1.8-2.2-1.3c-0.2,0.1-0.4,0.1-0.6,0.3
				l-0.1,0.1c0,0-0.1,0.1-0.1,0.1c-0.2,0.2-0.4,0.4-0.6,0.6C231.1,232,229,233.4,229,233.7z"/>
			
				<linearGradient id="SVGID_10_" gradientUnits="userSpaceOnUse" x1="-228.4316" y1="194.1686" x2="-74.1059" y2="194.1686" gradientTransform="matrix(0.9763 -0.2164 0.2164 0.9763 419.8124 -8.0874)">
				<stop  offset="0" style="stop-color:#FFFFFF"/>
				<stop  offset="1" style="stop-color:#FFFFFF;stop-opacity:0"/>
			</linearGradient>
			<path class="st14" d="M239.8,226.2c31.8-17,58.5-24.2,91.3-30c17.9-3.2,32.2-4.2,42.4-2.9c7.5,1,12.6,3.2,15.3,6.7
				c5.2,6.9,0.9,11.8-3.6,13.2c-0.9,0.3-1.9,0.5-2.7,0.4c-0.5,0-0.9-0.1-1.4-0.1c-3.3-0.7-4.5-3.7-1.6-6.7c2.6-2.7,2.2-8-10.1-9.7
				c-0.3,0-0.6-0.1-0.8-0.1c-16.7-2-39.9,1.2-73,9c-33.6,9.1-50.6,19.1-54.5,21.7c-1,0.5-1.5,0.5-2.5,0.3
				C237.8,227.7,237.7,227.3,239.8,226.2z"/>
		</g>
	</g>
	<g class="st15">
		<g>
			<path class="st0" d="M233.1,196.8c0-0.2,0-0.3-0.1-0.4c-0.1-0.2-0.4-0.3-0.8-0.3c-0.3-0.1-0.5-0.1-0.7,0
				c-0.2,0.1-0.4,0.1-0.5,0.2c-0.1,0.1-0.3,0.1-0.5,0.2c-0.1,0-0.1,0.1-0.2,0.1c-0.6,0.4-3.1,1.7-3.6,2.3c-0.5,0.6,0.4,1.8,2.2,1.3
				c0.2-0.1,0.4-0.1,0.6-0.3l0.1-0.1c0,0,0.1-0.1,0.1-0.1c0.2-0.2,0.4-0.4,0.6-0.6C231,198.4,233.1,197,233.1,196.8z"/>
			
				<linearGradient id="SVGID_11_" gradientUnits="userSpaceOnUse" x1="-391.1476" y1="160.1413" x2="-236.8219" y2="160.1413" gradientTransform="matrix(0.9763 -0.2164 0.2164 0.9763 419.8124 -8.0874)">
				<stop  offset="0" style="stop-color:#FFFFFF;stop-opacity:0"/>
				<stop  offset="1" style="stop-color:#FFFFFF"/>
			</linearGradient>
			<path class="st16" d="M222.2,204.2c-31.8,17-58.5,24.2-91.3,30c-17.9,3.2-32.2,4.2-42.4,2.9c-7.5-1-12.6-3.2-15.3-6.7
				c-5.2-6.9-0.9-11.8,3.6-13.2c0.9-0.3,1.9-0.5,2.7-0.4c0.5,0,0.9,0.1,1.4,0.1c3.3,0.7,4.5,3.7,1.6,6.7c-2.6,2.7-2.2,8,10.1,9.7
				c0.3,0,0.6,0.1,0.8,0.1c16.7,2,39.9-1.2,73-9c33.6-9.1,50.6-19.1,54.5-21.7c1-0.5,1.5-0.5,2.5-0.3
				C224.3,202.7,224.3,203.1,222.2,204.2z"/>
		</g>
		<g>
			<path class="st0" d="M237,192.4c0,0.2,0,0.3,0.1,0.4c0.1,0.2,0.4,0.3,0.8,0.3c0.3,0.1,0.5,0.1,0.7,0c0.2-0.1,0.4-0.1,0.5-0.2
				c0.1-0.1,0.3-0.1,0.5-0.2c0.1,0,0.1-0.1,0.2-0.1c0.6-0.4,3.1-1.7,3.6-2.3c0.5-0.6-0.4-1.8-2.2-1.3c-0.2,0.1-0.4,0.1-0.6,0.3
				l-0.1,0.1c0,0-0.1,0.1-0.1,0.1c-0.2,0.2-0.4,0.4-0.6,0.6C239,190.7,237,192.2,237,192.4z"/>
			
				<linearGradient id="SVGID_12_" gradientUnits="userSpaceOnUse" x1="-211.7316" y1="155.6002" x2="-57.4059" y2="155.6002" gradientTransform="matrix(0.9763 -0.2164 0.2164 0.9763 419.8124 -8.0874)">
				<stop  offset="0" style="stop-color:#FFFFFF"/>
				<stop  offset="1" style="stop-color:#FFFFFF;stop-opacity:0"/>
			</linearGradient>
			<path class="st17" d="M247.8,185c31.8-17,58.5-24.2,91.3-30c17.9-3.2,32.2-4.2,42.4-2.9c7.5,1,12.6,3.2,15.3,6.7
				c5.2,6.9,0.9,11.8-3.6,13.2c-0.9,0.3-1.9,0.5-2.7,0.4c-0.5,0-0.9-0.1-1.4-0.1c-3.3-0.7-4.5-3.7-1.6-6.7c2.6-2.7,2.2-8-10.1-9.7
				c-0.3,0-0.6-0.1-0.8-0.1c-16.7-2-39.9,1.2-73,9c-33.6,9.1-50.6,19.1-54.5,21.7c-1,0.5-1.5,0.5-2.5,0.3
				C245.7,186.5,245.7,186.1,247.8,185z"/>
		</g>
	</g>
	<g class="st18">
		<g>
			<path class="st0" d="M219.9,280.1c0-0.2,0-0.3-0.1-0.4c-0.1-0.2-0.4-0.3-0.8-0.3c-0.3-0.1-0.5-0.1-0.7,0
				c-0.2,0.1-0.4,0.1-0.5,0.2c-0.1,0.1-0.3,0.1-0.5,0.2c-0.1,0-0.1,0.1-0.2,0.1c-0.6,0.4-3.1,1.7-3.6,2.3c-0.5,0.6,0.4,1.8,2.2,1.3
				c0.2-0.1,0.4-0.1,0.6-0.3l0.1-0.1c0,0,0.1-0.1,0.1-0.1c0.2-0.2,0.4-0.4,0.6-0.6C217.9,281.8,219.9,280.3,219.9,280.1z"/>
			
				<linearGradient id="SVGID_13_" gradientUnits="userSpaceOnUse" x1="-422.0206" y1="238.6252" x2="-267.695" y2="238.6252" gradientTransform="matrix(0.9763 -0.2164 0.2164 0.9763 419.8124 -8.0874)">
				<stop  offset="0" style="stop-color:#FFFFFF;stop-opacity:0"/>
				<stop  offset="1" style="stop-color:#FFFFFF"/>
			</linearGradient>
			<path class="st19" d="M209.1,287.5c-31.8,17-58.5,24.2-91.3,30c-17.9,3.2-32.2,4.2-42.4,2.9c-7.5-1-12.6-3.2-15.3-6.7
				c-5.2-6.9-0.9-11.8,3.6-13.2c0.9-0.3,1.9-0.5,2.7-0.4c0.5,0,0.9,0.1,1.4,0.1c3.3,0.7,4.5,3.7,1.6,6.7c-2.6,2.7-2.2,8,10.1,9.7
				c0.3,0,0.6,0.1,0.8,0.1c16.7,2,39.9-1.2,73-9c33.6-9.1,50.6-19.1,54.5-21.7c1-0.5,1.5-0.5,2.5-0.3
				C211.1,286,211.2,286.4,209.1,287.5z"/>
		</g>
		<g>
			<path class="st0" d="M223.4,275.5c0,0.2,0,0.3,0.1,0.4c0.1,0.2,0.4,0.3,0.8,0.3c0.3,0.1,0.5,0.1,0.7,0c0.2-0.1,0.4-0.1,0.5-0.2
				c0.1-0.1,0.3-0.1,0.5-0.2c0.1,0,0.1-0.1,0.2-0.1c0.6-0.4,3.1-1.7,3.6-2.3c0.5-0.6-0.4-1.8-2.2-1.3c-0.2,0.1-0.4,0.1-0.6,0.3
				l-0.1,0.1c0,0-0.1,0.1-0.1,0.1c-0.2,0.2-0.4,0.4-0.6,0.6C225.4,273.8,223.4,275.3,223.4,275.5z"/>
			
				<linearGradient id="SVGID_14_" gradientUnits="userSpaceOnUse" x1="-242.9951" y1="233.8195" x2="-88.6694" y2="233.8195" gradientTransform="matrix(0.9763 -0.2164 0.2164 0.9763 419.8124 -8.0874)">
				<stop  offset="0" style="stop-color:#FFFFFF"/>
				<stop  offset="1" style="stop-color:#FFFFFF;stop-opacity:0"/>
			</linearGradient>
			<path class="st20" d="M234.2,268.1c31.8-17,58.5-24.2,91.3-30c17.9-3.2,32.2-4.2,42.4-2.9c7.5,1,12.6,3.2,15.3,6.7
				c5.2,6.9,0.9,11.8-3.6,13.2c-0.9,0.3-1.9,0.5-2.7,0.4c-0.5,0-0.9-0.1-1.4-0.1c-3.3-0.7-4.5-3.7-1.6-6.7c2.6-2.7,2.2-8-10.1-9.7
				c-0.3,0-0.6-0.1-0.8-0.1c-16.7-2-39.9,1.2-73,9c-33.6,9.1-50.6,19.1-54.5,21.7c-1,0.5-1.5,0.5-2.5,0.3
				C232.1,269.6,232.1,269.2,234.2,268.1z"/>
		</g>
	</g>
	<g class="st21">
		<g>
			<path class="st0" d="M225.6,257.7c0-0.2,0-0.3-0.1-0.4c-0.1-0.2-0.4-0.3-0.8-0.3c-0.3-0.1-0.5-0.1-0.7,0
				c-0.2,0.1-0.4,0.1-0.5,0.2c-0.1,0.1-0.3,0.1-0.5,0.2c-0.1,0-0.1,0.1-0.2,0.1c-0.6,0.4-3.1,1.7-3.6,2.3c-0.5,0.6,0.4,1.8,2.2,1.3
				c0.2-0.1,0.4-0.1,0.6-0.3l0.1-0.1c0,0,0.1-0.1,0.1-0.1c0.2-0.2,0.4-0.4,0.6-0.6C223.6,259.4,225.6,257.9,225.6,257.7z"/>
			
				<linearGradient id="SVGID_15_" gradientUnits="userSpaceOnUse" x1="-411.596" y1="218.024" x2="-257.2703" y2="218.024" gradientTransform="matrix(0.9763 -0.2164 0.2164 0.9763 419.8124 -8.0874)">
				<stop  offset="0" style="stop-color:#FFFFFF;stop-opacity:0"/>
				<stop  offset="1" style="stop-color:#FFFFFF"/>
			</linearGradient>
			<path class="st22" d="M214.8,265.1c-31.8,17-58.5,24.2-91.3,30c-17.9,3.2-32.2,4.2-42.4,2.9c-7.5-1-12.6-3.2-15.3-6.7
				c-5.2-6.9-0.9-11.8,3.6-13.2c0.9-0.3,1.9-0.5,2.7-0.4c0.5,0,0.9,0.1,1.4,0.1c3.3,0.7,4.5,3.7,1.6,6.7c-2.6,2.7-2.2,8,10.1,9.7
				c0.3,0,0.6,0.1,0.8,0.1c16.7,2,39.9-1.2,73-9c33.6-9.1,50.6-19.1,54.5-21.7c1-0.5,1.5-0.5,2.5-0.3
				C216.9,263.6,216.9,264,214.8,265.1z"/>
		</g>
		<g>
			<path class="st0" d="M229.5,253.3c0,0.2,0,0.3,0.1,0.4c0.1,0.2,0.4,0.3,0.8,0.3c0.3,0.1,0.5,0.1,0.7,0c0.2-0.1,0.4-0.1,0.5-0.2
				c0.1-0.1,0.3-0.1,0.5-0.2c0.1,0,0.1-0.1,0.2-0.1c0.6-0.4,3.1-1.7,3.6-2.3c0.5-0.6-0.4-1.8-2.2-1.3c-0.2,0.1-0.4,0.1-0.6,0.3
				l-0.1,0.1c0,0-0.1,0.1-0.1,0.1c-0.2,0.2-0.4,0.4-0.6,0.6C231.6,251.6,229.5,253.1,229.5,253.3z"/>
			
				<linearGradient id="SVGID_16_" gradientUnits="userSpaceOnUse" x1="-232.1801" y1="213.4829" x2="-77.8544" y2="213.4829" gradientTransform="matrix(0.9763 -0.2164 0.2164 0.9763 419.8124 -8.0874)">
				<stop  offset="0" style="stop-color:#FFFFFF"/>
				<stop  offset="1" style="stop-color:#FFFFFF;stop-opacity:0"/>
			</linearGradient>
			<path class="st23" d="M240.4,245.9c31.8-17,58.5-24.2,91.3-30c17.9-3.2,32.2-4.2,42.4-2.9c7.5,1,12.6,3.2,15.3,6.7
				c5.2,6.9,0.9,11.8-3.6,13.2c-0.9,0.3-1.9,0.5-2.7,0.4c-0.5,0-0.9-0.1-1.4-0.1c-3.3-0.7-4.5-3.7-1.6-6.7c2.6-2.7,2.2-8-10.1-9.7
				c-0.3,0-0.6-0.1-0.8-0.1c-16.7-2-39.9,1.2-73,9c-33.6,9.1-50.6,19.1-54.5,21.7c-1,0.5-1.5,0.5-2.5,0.3
				C238.3,247.4,238.3,247,240.4,245.9z"/>
		</g>
	</g>
	<g>
		<g>
			<path class="st0" d="M247.7,131.6c0-0.2,0-0.3-0.1-0.4c-0.1-0.2-0.4-0.3-0.8-0.3c-0.3-0.1-0.5-0.1-0.7,0s-0.4,0.1-0.5,0.2
				c-0.1,0.1-0.3,0.1-0.5,0.2c-0.1,0-0.1,0.1-0.2,0.1c-0.6,0.4-3.1,1.7-3.6,2.3c-0.5,0.6,0.4,1.8,2.2,1.3c0.2-0.1,0.4-0.1,0.6-0.3
				l0.1-0.1c0,0,0.1-0.1,0.1-0.1c0.2-0.2,0.4-0.4,0.6-0.6C245.7,133.3,247.7,131.8,247.7,131.6z"/>
			
				<linearGradient id="SVGID_17_" gradientUnits="userSpaceOnUse" x1="-362.7299" y1="99.6796" x2="-208.4043" y2="99.6796" gradientTransform="matrix(0.9763 -0.2164 0.2164 0.9763 419.8124 -8.0874)">
				<stop  offset="0" style="stop-color:#FFFFFF;stop-opacity:0"/>
				<stop  offset="1" style="stop-color:#FFFFFF"/>
			</linearGradient>
			<path class="st24" d="M236.9,139c-31.8,17-58.5,24.2-91.3,30c-17.9,3.2-32.2,4.2-42.4,2.9c-7.5-1-12.6-3.2-15.3-6.7
				c-5.2-6.9-0.9-11.8,3.6-13.2c0.9-0.3,1.9-0.5,2.7-0.4c0.5,0,0.9,0.1,1.4,0.1c3.3,0.7,4.5,3.7,1.6,6.7c-2.6,2.7-2.2,8,10.1,9.7
				c0.3,0,0.6,0.1,0.8,0.1c16.7,2,39.9-1.2,73-9c33.6-9.1,50.6-19.1,54.5-21.7c1-0.5,1.5-0.5,2.5-0.3C239,137.5,239,137.9,236.9,139
				z"/>
		</g>
		<g>
			<path class="st0" d="M251.6,127.2c0,0.2,0,0.3,0.1,0.4c0.1,0.2,0.4,0.3,0.8,0.3c0.3,0.1,0.5,0.1,0.7,0c0.2-0.1,0.4-0.1,0.5-0.2
				c0.1-0.1,0.3-0.1,0.5-0.2c0.1,0,0.1-0.1,0.2-0.1c0.6-0.4,3.1-1.7,3.6-2.3c0.5-0.6-0.4-1.8-2.2-1.3c-0.2,0.1-0.4,0.1-0.6,0.3
				l-0.1,0.1c0,0-0.1,0.1-0.1,0.1c-0.2,0.2-0.4,0.4-0.6,0.6C253.7,125.5,251.6,127,251.6,127.2z"/>
			
				<linearGradient id="SVGID_18_" gradientUnits="userSpaceOnUse" x1="-183.314" y1="95.1385" x2="-28.9883" y2="95.1385" gradientTransform="matrix(0.9763 -0.2164 0.2164 0.9763 419.8124 -8.0874)">
				<stop  offset="0" style="stop-color:#FFFFFF"/>
				<stop  offset="1" style="stop-color:#FFFFFF;stop-opacity:0"/>
			</linearGradient>
			<path class="st25" d="M262.5,119.8c31.8-17,58.5-24.2,91.3-30c17.9-3.2,32.2-4.2,42.4-2.9c7.5,1,12.6,3.2,15.3,6.7
				c5.2,6.9,0.9,11.8-3.6,13.2c-0.9,0.3-1.9,0.5-2.7,0.4c-0.5,0-0.9-0.1-1.4-0.1c-3.3-0.7-4.5-3.7-1.6-6.7c2.6-2.7,2.2-8-10.1-9.7
				c-0.3,0-0.6-0.1-0.8-0.1c-16.7-2-39.9,1.2-73,9c-33.6,9.1-50.6,19.1-54.5,21.7c-1,0.5-1.5,0.5-2.5,0.3
				C260.4,121.3,260.4,120.9,262.5,119.8z"/>
		</g>
	</g>
	<g>
		<path class="st0" d="M260,104.2c0,0.2,0,0.3,0.1,0.4c0.1,0.2,0.4,0.3,0.8,0.3c0.3,0.1,0.5,0.1,0.7,0c0.2-0.1,0.4-0.1,0.5-0.2
			c0.1-0.1,0.3-0.1,0.5-0.2c0.1,0,0.1-0.1,0.2-0.1c0.6-0.4,3.1-1.7,3.6-2.3c0.5-0.6-0.4-1.8-2.2-1.3c-0.2,0.1-0.4,0.1-0.6,0.3
			l-0.1,0.1c0,0-0.1,0.1-0.1,0.1c-0.2,0.2-0.4,0.4-0.6,0.6C262.1,102.6,260,104,260,104.2z"/>
		
			<linearGradient id="SVGID_19_" gradientUnits="userSpaceOnUse" x1="-170.1397" y1="74.5186" x2="-15.8141" y2="74.5186" gradientTransform="matrix(0.9763 -0.2164 0.2164 0.9763 419.8124 -8.0874)">
			<stop  offset="0" style="stop-color:#FFFFFF"/>
			<stop  offset="1" style="stop-color:#FFFFFF;stop-opacity:0"/>
		</linearGradient>
		<path class="st26" d="M270.9,96.8c31.8-17,58.5-24.2,91.3-30c17.9-3.2,32.2-4.2,42.4-2.9c7.5,1,12.6,3.2,15.3,6.7
			c5.2,6.9,0.9,11.8-3.6,13.2c-0.9,0.3-1.9,0.5-2.7,0.4c-0.5,0-0.9-0.1-1.4-0.1c-3.3-0.7-4.5-3.7-1.6-6.7c2.6-2.7,2.2-8-10.1-9.7
			c-0.3,0-0.6-0.1-0.8-0.1c-16.7-2-39.9,1.2-73,9C293,85.6,276,95.6,272.1,98.2c-1,0.5-1.5,0.5-2.5,0.3
			C268.8,98.3,268.8,97.9,270.9,96.8z"/>
	</g>
	<g>
		<path class="st0" d="M266,82.9c0,0.2,0,0.3,0.1,0.4c0.1,0.2,0.4,0.3,0.8,0.3c0.3,0.1,0.5,0.1,0.7,0s0.4-0.1,0.5-0.2
			c0.1-0.1,0.3-0.1,0.5-0.2c0.1,0,0.1-0.1,0.2-0.1c0.6-0.4,3.1-1.7,3.6-2.3c0.5-0.6-0.4-1.8-2.2-1.3c-0.2,0.1-0.4,0.1-0.6,0.3
			l-0.1,0.1c0,0-0.1,0.1-0.1,0.1c-0.2,0.2-0.4,0.4-0.6,0.6C268,81.2,266,82.7,266,82.9z"/>
		
			<linearGradient id="SVGID_20_" gradientUnits="userSpaceOnUse" x1="-159.7015" y1="55.0111" x2="-5.3758" y2="55.0111" gradientTransform="matrix(0.9763 -0.2164 0.2164 0.9763 419.8124 -8.0874)">
			<stop  offset="0" style="stop-color:#FFFFFF"/>
			<stop  offset="1" style="stop-color:#FFFFFF;stop-opacity:0"/>
		</linearGradient>
		<path class="st27" d="M276.8,75.5c31.8-17,58.5-24.2,91.3-30c17.9-3.2,32.2-4.2,42.4-2.9c7.5,1,12.6,3.2,15.3,6.7
			c5.2,6.9,0.9,11.8-3.6,13.2c-0.9,0.3-1.9,0.5-2.7,0.4c-0.5,0-0.9-0.1-1.4-0.1c-3.3-0.7-4.5-3.7-1.6-6.7c2.6-2.7,2.2-8-10.1-9.7
			c-0.3,0-0.6-0.1-0.8-0.1c-16.7-2-39.9,1.2-73,9C299,64.3,282,74.3,278.1,76.9c-1,0.5-1.5,0.5-2.5,0.3
			C274.8,77,274.7,76.6,276.8,75.5z"/>
	</g>
</g>
</svg>
