<?xml version="1.0" encoding="utf-8"?>
<!-- Generator: Adobe Illustrator 24.0.0, SVG Export Plug-In . SVG Version: 6.00 Build 0)  -->
<svg version="1.1" id="Capa_1" xmlns="http://www.w3.org/2000/svg" xmlns:xlink="http://www.w3.org/1999/xlink" x="0px" y="0px"
	 viewBox="0 0 956.8 963.6" style="enable-background:new 0 0 956.8 963.6;" xml:space="preserve">
<style type="text/css">
	.st0{fill:#FFFFFF;}
	.st1{fill:url(#SVGID_1_);}
	.st2{fill:url(#SVGID_2_);}
	.st3{opacity:0.4;}
	.st4{fill:url(#SVGID_3_);}
	.st5{fill:url(#SVGID_4_);}
	.st6{opacity:0.6;}
	.st7{fill:url(#SVGID_5_);}
	.st8{fill:url(#SVGID_6_);}
	.st9{opacity:0.1;}
	.st10{fill:url(#SVGID_7_);}
	.st11{fill:url(#SVGID_8_);}
	.st12{opacity:0.2;}
	.st13{fill:url(#SVGID_9_);}
	.st14{fill:url(#SVGID_10_);}
	.st15{fill:url(#SVGID_11_);}
	.st16{fill:url(#SVGID_12_);}
	.st17{opacity:5.000000e-02;}
	.st18{fill:url(#SVGID_13_);}
	.st19{fill:url(#SVGID_14_);}
	.st20{fill:url(#SVGID_15_);}
	.st21{fill:url(#SVGID_16_);}
	.st22{fill:url(#SVGID_17_);}
	.st23{fill:url(#SVGID_18_);}
	.st24{opacity:0.8;}
	.st25{fill:url(#SVGID_19_);}
	.st26{fill:url(#SVGID_20_);}
	.st27{fill:url(#SVGID_21_);}
	.st28{fill:url(#SVGID_22_);}
	.st29{fill:url(#SVGID_23_);}
	.st30{fill:url(#SVGID_24_);}
	.st31{fill:url(#SVGID_25_);}
	.st32{fill:url(#SVGID_26_);}
	.st33{fill:url(#SVGID_27_);}
	.st34{fill:url(#SVGID_28_);}
	.st35{fill:url(#SVGID_29_);}
	.st36{fill:url(#SVGID_30_);}
	.st37{fill:url(#SVGID_31_);}
	.st38{fill:url(#SVGID_32_);}
	.st39{fill:url(#SVGID_33_);}
	.st40{fill:url(#SVGID_34_);}
	.st41{fill:url(#SVGID_35_);}
	.st42{fill:url(#SVGID_36_);}
	.st43{fill:url(#SVGID_37_);}
	.st44{fill:url(#SVGID_38_);}
	.st45{fill:url(#SVGID_39_);}
	.st46{fill:url(#SVGID_40_);}
</style>
<g>
	<g>
		<g>
			<path class="st0" d="M604.1,501c0.1-0.4,0.1-0.7,0.1-0.9c-0.2-0.4-0.7-0.7-1.4-1c-0.5-0.3-1-0.4-1.5-0.3s-0.8,0.1-1.2,0.2
				c-0.3,0.1-0.7,0.2-1.1,0.3c-0.1,0-0.3,0.1-0.4,0.2c-1.3,0.6-7.1,2.4-8.4,3.5c-1.4,1.1-0.1,3.9,3.8,3.5c0.4,0,0.9-0.2,1.3-0.3
				l0.3-0.1c0.1,0,0.2-0.1,0.3-0.2c0.6-0.3,1.1-0.6,1.5-0.9C599.1,503.8,604,501.5,604.1,501z"/>
			<linearGradient id="SVGID_1_" gradientUnits="userSpaceOnUse" x1="261.3007" y1="511.9411" x2="582.5817" y2="511.9411">
				<stop  offset="0" style="stop-color:#FFFFFF;stop-opacity:0"/>
				<stop  offset="1" style="stop-color:#FFFFFF"/>
			</linearGradient>
			<path class="st1" d="M578.3,512.4c-73.3,23.4-131.1,28.1-200.5,27.8c-37.8-0.2-67.3-3.6-87.1-10.2c-14.5-4.9-23.8-11.5-27.3-19.8
				c-6.8-16.3,4.5-25,14.3-26.3c2-0.3,4-0.2,5.8,0.1c1,0.2,1.9,0.5,2.7,0.8c6.2,2.7,7.2,9.4-0.3,14.6c-6.7,4.7-8.6,16,15.2,24.1
				c0.5,0.2,1.1,0.4,1.7,0.6c32.6,10.6,81.3,12.9,152.2,9.3c72.7-6.1,112.4-20.6,121.6-24.5c2.4-0.6,3.4-0.5,5.2,0.3
				C583.3,510,583.1,510.9,578.3,512.4z"/>
		</g>
		<g>
			<path class="st0" d="M580.7,543.4c0.1-0.4,0.1-0.7,0.1-0.9c-0.2-0.4-0.7-0.7-1.4-1c-0.5-0.3-1-0.4-1.5-0.3
				c-0.4,0-0.8,0.1-1.2,0.2c-0.3,0.1-0.7,0.2-1.1,0.3c-0.1,0-0.3,0.1-0.4,0.2c-1.3,0.6-7.1,2.4-8.4,3.5c-1.4,1.1-0.1,3.9,3.8,3.5
				c0.4,0,0.9-0.2,1.3-0.3l0.3-0.1c0.1,0,0.2-0.1,0.3-0.2c0.6-0.3,1.1-0.6,1.5-0.9C575.7,546.1,580.6,543.8,580.7,543.4z"/>
			<linearGradient id="SVGID_2_" gradientUnits="userSpaceOnUse" x1="237.8743" y1="554.27" x2="559.1553" y2="554.27">
				<stop  offset="0" style="stop-color:#FFFFFF;stop-opacity:0"/>
				<stop  offset="1" style="stop-color:#FFFFFF"/>
			</linearGradient>
			<path class="st2" d="M554.9,554.7c-73.3,23.4-131.1,28.1-200.5,27.8c-37.8-0.2-67.3-3.6-87.1-10.2c-14.5-4.9-23.8-11.5-27.3-19.8
				c-6.8-16.3,4.5-25,14.3-26.3c2-0.3,4-0.2,5.8,0.1c1,0.2,1.9,0.5,2.7,0.8c6.2,2.7,7.2,9.4-0.3,14.6c-6.7,4.7-8.6,16,15.2,24.1
				c0.5,0.2,1.1,0.4,1.7,0.6c32.6,10.6,81.3,12.9,152.2,9.3c72.7-6.1,112.4-20.6,121.6-24.5c2.4-0.6,3.4-0.5,5.2,0.3
				C559.8,552.4,559.7,553.2,554.9,554.7z"/>
		</g>
		<g class="st3">
			<g>
				<path class="st0" d="M502.1,674.8c0.1-0.4,0.1-0.7,0.1-0.9c-0.2-0.4-0.7-0.7-1.4-1c-0.5-0.3-1-0.4-1.5-0.3
					c-0.4,0-0.8,0.1-1.2,0.2c-0.3,0.1-0.7,0.2-1.1,0.3c-0.1,0-0.3,0.1-0.4,0.2c-1.3,0.6-7.1,2.4-8.4,3.5c-1.4,1.1-0.1,3.9,3.8,3.5
					c0.4,0,0.9-0.2,1.3-0.3l0.3-0.1c0.1,0,0.2-0.1,0.3-0.2c0.6-0.3,1.1-0.6,1.5-0.9C497.1,677.5,502,675.2,502.1,674.8z"/>
				<linearGradient id="SVGID_3_" gradientUnits="userSpaceOnUse" x1="159.2944" y1="685.7026" x2="480.5755" y2="685.7026">
					<stop  offset="0" style="stop-color:#FFFFFF;stop-opacity:0"/>
					<stop  offset="1" style="stop-color:#FFFFFF"/>
				</linearGradient>
				<path class="st4" d="M476.3,686.1c-73.3,23.4-131.1,28.1-200.5,27.8c-37.8-0.2-67.3-3.6-87.1-10.2
					c-14.5-4.9-23.8-11.5-27.3-19.8c-6.8-16.3,4.5-25,14.3-26.3c2-0.3,4-0.2,5.8,0.1c1,0.2,1.9,0.5,2.7,0.8
					c6.2,2.7,7.2,9.4-0.3,14.6c-6.7,4.7-8.6,16,15.2,24.1c0.5,0.2,1.1,0.4,1.7,0.6c32.6,10.6,81.3,12.9,152.2,9.3
					c72.7-6.1,112.4-20.6,121.6-24.5c2.4-0.6,3.4-0.5,5.2,0.3C481.3,683.8,481.1,684.7,476.3,686.1z"/>
			</g>
			<g>
				<path class="st0" d="M511.5,666.6c-0.1,0.4-0.1,0.7-0.1,0.9c0.2,0.4,0.7,0.7,1.4,1c0.5,0.3,1,0.4,1.5,0.3c0.4,0,0.8-0.1,1.2-0.2
					c0.3-0.1,0.7-0.2,1.1-0.3c0.1,0,0.3-0.1,0.4-0.2c1.3-0.6,7.1-2.4,8.4-3.5c1.4-1.1,0.1-3.9-3.8-3.5c-0.4,0-0.9,0.2-1.3,0.3
					l-0.3,0.1c-0.1,0-0.2,0.1-0.3,0.2c-0.6,0.3-1.1,0.6-1.5,0.9C516.6,663.9,511.7,666.1,511.5,666.6z"/>
				<linearGradient id="SVGID_4_" gradientUnits="userSpaceOnUse" x1="533.1019" y1="655.6679" x2="854.3829" y2="655.6679">
					<stop  offset="0" style="stop-color:#FFFFFF"/>
					<stop  offset="1" style="stop-color:#FFFFFF;stop-opacity:0"/>
				</linearGradient>
				<path class="st5" d="M537.4,655.2c73.3-23.4,131.1-28.1,200.5-27.8c37.8,0.2,67.3,3.6,87.1,10.2c14.5,4.9,23.8,11.5,27.3,19.8
					c6.8,16.3-4.5,25-14.3,26.3c-2,0.3-4,0.2-5.8-0.1c-1-0.2-1.9-0.5-2.7-0.8c-6.2-2.7-7.2-9.4,0.3-14.6c6.7-4.7,8.6-16-15.2-24.1
					c-0.5-0.2-1.1-0.4-1.7-0.6c-32.6-10.6-81.3-12.9-152.2-9.3c-72.7,6.1-112.4,20.6-121.6,24.5c-2.4,0.6-3.4,0.5-5.2-0.3
					C532.4,657.6,532.6,656.7,537.4,655.2z"/>
			</g>
		</g>
		<g class="st6">
			<g>
				<path class="st0" d="M525.6,630.2c0.1-0.4,0.1-0.7,0.1-0.9c-0.2-0.4-0.7-0.7-1.4-1c-0.5-0.3-1-0.4-1.5-0.3s-0.8,0.1-1.2,0.2
					c-0.3,0.1-0.7,0.2-1.1,0.3c-0.1,0-0.3,0.1-0.4,0.2c-1.3,0.6-7.1,2.4-8.4,3.5c-1.4,1.1-0.1,3.9,3.8,3.5c0.4,0,0.9-0.2,1.3-0.3
					l0.3-0.1c0.1,0,0.2-0.1,0.3-0.2c0.6-0.3,1.1-0.6,1.5-0.9C520.6,632.9,525.5,630.6,525.6,630.2z"/>
				<linearGradient id="SVGID_5_" gradientUnits="userSpaceOnUse" x1="182.7842" y1="641.0469" x2="504.0652" y2="641.0469">
					<stop  offset="0" style="stop-color:#FFFFFF;stop-opacity:0"/>
					<stop  offset="1" style="stop-color:#FFFFFF"/>
				</linearGradient>
				<path class="st7" d="M499.8,641.5c-73.3,23.4-131.1,28.1-200.5,27.8c-37.8-0.2-67.3-3.6-87.1-10.2
					c-14.5-4.9-23.8-11.5-27.3-19.8c-6.8-16.3,4.5-25,14.3-26.3c2-0.3,4-0.2,5.8,0.1c1,0.2,1.9,0.5,2.7,0.8
					c6.2,2.7,7.2,9.4-0.3,14.6c-6.7,4.7-8.6,16,15.2,24.1c0.5,0.2,1.1,0.4,1.7,0.6c32.6,10.6,81.3,12.9,152.2,9.3
					C449,656.4,488.8,642,498,638c2.4-0.6,3.4-0.5,5.2,0.3C504.8,639.2,504.6,640,499.8,641.5z"/>
			</g>
			<g>
				<path class="st0" d="M535.8,622.4c-0.1,0.4-0.1,0.7-0.1,0.9c0.2,0.4,0.7,0.7,1.4,1c0.5,0.3,1,0.4,1.5,0.3c0.4,0,0.8-0.1,1.2-0.2
					c0.3-0.1,0.7-0.2,1.1-0.3c0.1,0,0.3-0.1,0.4-0.2c1.3-0.6,7.1-2.4,8.4-3.5c1.4-1.1,0.1-3.9-3.8-3.5c-0.4,0-0.9,0.2-1.3,0.3
					l-0.3,0.1c-0.1,0-0.2,0.1-0.3,0.2c-0.6,0.3-1.1,0.6-1.5,0.9C540.9,619.7,536,622,535.8,622.4z"/>
				<linearGradient id="SVGID_6_" gradientUnits="userSpaceOnUse" x1="557.3843" y1="611.5451" x2="878.6653" y2="611.5451">
					<stop  offset="0" style="stop-color:#FFFFFF"/>
					<stop  offset="1" style="stop-color:#FFFFFF;stop-opacity:0"/>
				</linearGradient>
				<path class="st8" d="M561.7,611.1c73.3-23.4,131.1-28.1,200.5-27.8c37.8,0.2,67.3,3.6,87.1,10.2c14.5,4.9,23.8,11.5,27.3,19.8
					c6.8,16.3-4.5,25-14.3,26.3c-2,0.3-4,0.2-5.8-0.1c-1-0.2-1.9-0.5-2.7-0.8c-6.2-2.7-7.2-9.4,0.3-14.6c6.7-4.7,8.6-16-15.2-24.1
					c-0.5-0.2-1.1-0.4-1.7-0.6c-32.6-10.6-81.3-12.9-152.2-9.3c-72.7,6.1-112.4,20.6-121.6,24.5c-2.4,0.6-3.4,0.5-5.2-0.3
					C556.7,613.4,556.9,612.6,561.7,611.1z"/>
			</g>
		</g>
		<g class="st9">
			<g>
				<path class="st0" d="M461.2,763.4c0.1-0.4,0.1-0.7,0.1-0.9c-0.2-0.4-0.7-0.7-1.4-1c-0.5-0.3-1-0.4-1.5-0.3
					c-0.4,0-0.8,0.1-1.2,0.2c-0.3,0.1-0.7,0.2-1.1,0.3c-0.1,0-0.3,0.1-0.4,0.2c-1.3,0.6-7.1,2.4-8.4,3.5c-1.4,1.1-0.1,3.9,3.8,3.5
					c0.4,0,0.9-0.2,1.3-0.3l0.3-0.1c0.1,0,0.2-0.1,0.3-0.2c0.6-0.3,1.1-0.6,1.5-0.9C456.1,766.1,461,763.8,461.2,763.4z"/>
				<linearGradient id="SVGID_7_" gradientUnits="userSpaceOnUse" x1="118.3263" y1="774.263" x2="439.6073" y2="774.263">
					<stop  offset="0" style="stop-color:#FFFFFF;stop-opacity:0"/>
					<stop  offset="1" style="stop-color:#FFFFFF"/>
				</linearGradient>
				<path class="st10" d="M435.3,774.7c-73.3,23.4-131.1,28.1-200.5,27.8c-37.8-0.2-67.3-3.6-87.1-10.2
					c-14.5-4.9-23.8-11.5-27.3-19.8c-6.8-16.3,4.5-25,14.3-26.3c2-0.3,4-0.2,5.8,0.1c1,0.2,1.9,0.5,2.7,0.8
					c6.2,2.7,7.2,9.4-0.3,14.6c-6.7,4.7-8.6,16,15.2,24.1c0.5,0.2,1.1,0.4,1.7,0.6c32.6,10.6,81.3,12.9,152.2,9.3
					c72.7-6.1,112.4-20.6,121.6-24.5c2.4-0.6,3.4-0.5,5.2,0.3C440.3,772.4,440.1,773.2,435.3,774.7z"/>
			</g>
			<g>
				<path class="st0" d="M470.6,755.1c-0.1,0.4-0.1,0.7-0.1,0.9c0.2,0.4,0.7,0.7,1.4,1c0.5,0.3,1,0.4,1.5,0.3c0.4,0,0.8-0.1,1.2-0.2
					c0.3-0.1,0.7-0.2,1.1-0.3c0.1,0,0.3-0.1,0.4-0.2c1.3-0.6,7.1-2.4,8.4-3.5c1.4-1.1,0.1-3.9-3.8-3.5c-0.4,0-0.9,0.2-1.3,0.3
					l-0.3,0.1c-0.1,0-0.2,0.1-0.3,0.2c-0.6,0.3-1.1,0.6-1.5,0.9C475.6,752.4,470.7,754.7,470.6,755.1z"/>
				<linearGradient id="SVGID_8_" gradientUnits="userSpaceOnUse" x1="492.1338" y1="744.2283" x2="813.4148" y2="744.2283">
					<stop  offset="0" style="stop-color:#FFFFFF"/>
					<stop  offset="1" style="stop-color:#FFFFFF;stop-opacity:0"/>
				</linearGradient>
				<path class="st11" d="M496.4,743.8c73.3-23.4,131.1-28.1,200.5-27.8c37.8,0.2,67.3,3.6,87.1,10.2c14.5,4.9,23.8,11.5,27.3,19.8
					c6.8,16.3-4.5,25-14.3,26.3c-2,0.3-4,0.2-5.8-0.1c-1-0.2-1.9-0.5-2.7-0.8c-6.2-2.7-7.2-9.4,0.3-14.6c6.7-4.7,8.6-16-15.2-24.1
					c-0.5-0.2-1.1-0.4-1.7-0.6c-32.6-10.6-81.3-12.9-152.2-9.3c-72.7,6.1-112.4,20.6-121.6,24.5c-2.4,0.6-3.4,0.5-5.2-0.3
					C491.4,746.1,491.6,745.3,496.4,743.8z"/>
			</g>
		</g>
		<g class="st12">
			<g>
				<path class="st0" d="M447.4,802.6c0.1-0.4,0.1-0.7,0.1-0.9c-0.2-0.4-0.7-0.7-1.4-1c-0.5-0.3-1-0.4-1.5-0.3
					c-0.4,0-0.8,0.1-1.2,0.2c-0.3,0.1-0.7,0.2-1.1,0.3c-0.1,0-0.3,0.1-0.4,0.2c-1.3,0.6-7.1,2.4-8.4,3.5c-1.4,1.1-0.1,3.9,3.8,3.5
					c0.4,0,0.9-0.2,1.3-0.3l0.3-0.1c0.1,0,0.2-0.1,0.3-0.2c0.6-0.3,1.1-0.6,1.5-0.9C442.3,805.3,447.2,803.1,447.4,802.6z"/>
				<linearGradient id="SVGID_9_" gradientUnits="userSpaceOnUse" x1="104.5115" y1="813.5234" x2="425.7925" y2="813.5234">
					<stop  offset="0" style="stop-color:#FFFFFF;stop-opacity:0"/>
					<stop  offset="1" style="stop-color:#FFFFFF"/>
				</linearGradient>
				<path class="st13" d="M421.5,814c-73.3,23.4-131.1,28.1-200.5,27.8c-37.8-0.2-67.3-3.6-87.1-10.2c-14.5-4.9-23.8-11.5-27.3-19.8
					c-6.8-16.3,4.5-25,14.3-26.3c2-0.3,4-0.2,5.8,0.1c1,0.2,1.9,0.5,2.7,0.8c6.2,2.7,7.2,9.4-0.3,14.6c-6.7,4.7-8.6,16,15.2,24.1
					c0.5,0.2,1.1,0.4,1.7,0.6c32.6,10.6,81.3,12.9,152.2,9.3c72.7-6.1,112.4-20.6,121.6-24.5c2.4-0.6,3.4-0.5,5.2,0.3
					C426.5,811.6,426.3,812.5,421.5,814z"/>
			</g>
			<g>
				<path class="st0" d="M456.8,794.4c-0.1,0.4-0.1,0.7-0.1,0.9c0.2,0.4,0.7,0.7,1.4,1c0.5,0.3,1,0.4,1.5,0.3s0.8-0.1,1.2-0.2
					c0.3-0.1,0.7-0.2,1.1-0.3c0.1,0,0.3-0.1,0.4-0.2c1.3-0.6,7.1-2.4,8.4-3.5c1.4-1.1,0.1-3.9-3.8-3.5c-0.4,0-0.9,0.2-1.3,0.3
					l-0.3,0.1c-0.1,0-0.2,0.1-0.3,0.2c-0.6,0.3-1.1,0.6-1.5,0.9C461.8,791.7,456.9,794,456.8,794.4z"/>
				<linearGradient id="SVGID_10_" gradientUnits="userSpaceOnUse" x1="478.319" y1="783.4886" x2="799.6" y2="783.4886">
					<stop  offset="0" style="stop-color:#FFFFFF"/>
					<stop  offset="1" style="stop-color:#FFFFFF;stop-opacity:0"/>
				</linearGradient>
				<path class="st14" d="M482.6,783c73.3-23.4,131.1-28.1,200.5-27.8c37.8,0.2,67.3,3.6,87.1,10.2c14.5,4.9,23.8,11.5,27.3,19.8
					c6.8,16.3-4.5,25-14.3,26.3c-2,0.3-4,0.2-5.8-0.1c-1-0.2-1.9-0.5-2.7-0.8c-6.2-2.7-7.2-9.4,0.3-14.6c6.7-4.7,8.6-16-15.2-24.1
					c-0.5-0.2-1.1-0.4-1.7-0.6c-32.6-10.6-81.3-12.9-152.2-9.3c-72.7,6.1-112.4,20.6-121.6,24.5c-2.4,0.6-3.4,0.5-5.2-0.3
					C477.6,785.4,477.8,784.5,482.6,783z"/>
			</g>
		</g>
		<g class="st12">
			<g>
				<path class="st0" d="M484.7,718.7c0.1-0.4,0.1-0.7,0.1-0.9c-0.2-0.4-0.7-0.7-1.4-1c-0.5-0.3-1-0.4-1.5-0.3
					c-0.4,0-0.8,0.1-1.2,0.2c-0.3,0.1-0.7,0.2-1.1,0.3c-0.1,0-0.3,0.1-0.4,0.2c-1.3,0.6-7.1,2.4-8.4,3.5c-1.4,1.1-0.1,3.9,3.8,3.5
					c0.4,0,0.9-0.2,1.3-0.3l0.3-0.1c0.1,0,0.2-0.1,0.3-0.2c0.6-0.3,1.1-0.6,1.5-0.9C479.6,721.4,484.5,719.1,484.7,718.7z"/>
				<linearGradient id="SVGID_11_" gradientUnits="userSpaceOnUse" x1="141.8161" y1="729.6072" x2="463.0971" y2="729.6072">
					<stop  offset="0" style="stop-color:#FFFFFF;stop-opacity:0"/>
					<stop  offset="1" style="stop-color:#FFFFFF"/>
				</linearGradient>
				<path class="st15" d="M458.8,730c-73.3,23.4-131.1,28.1-200.5,27.8c-37.8-0.2-67.3-3.6-87.1-10.2c-14.5-4.9-23.8-11.5-27.3-19.8
					c-6.8-16.3,4.5-25,14.3-26.3c2-0.3,4-0.2,5.8,0.1c1,0.2,1.9,0.5,2.7,0.8c6.2,2.7,7.2,9.4-0.3,14.6c-6.7,4.7-8.6,16,15.2,24.1
					c0.5,0.2,1.1,0.4,1.7,0.6c32.6,10.6,81.3,12.9,152.2,9.3c72.7-6.1,112.4-20.6,121.6-24.5c2.4-0.6,3.4-0.5,5.2,0.3
					C463.8,727.7,463.6,728.6,458.8,730z"/>
			</g>
			<g>
				<path class="st0" d="M494.9,711c-0.1,0.4-0.1,0.7-0.1,0.9c0.2,0.4,0.7,0.7,1.4,1c0.5,0.3,1,0.4,1.5,0.3c0.4,0,0.8-0.1,1.2-0.2
					c0.3-0.1,0.7-0.2,1.1-0.3c0.1,0,0.3-0.1,0.4-0.2c1.3-0.6,7.1-2.4,8.4-3.5c1.4-1.1,0.1-3.9-3.8-3.5c-0.4,0-0.9,0.2-1.3,0.3
					l-0.3,0.1c-0.1,0-0.2,0.1-0.3,0.2c-0.6,0.3-1.1,0.6-1.5,0.9C499.9,708.3,495,710.6,494.9,711z"/>
				<linearGradient id="SVGID_12_" gradientUnits="userSpaceOnUse" x1="516.4162" y1="700.1055" x2="837.6972" y2="700.1055">
					<stop  offset="0" style="stop-color:#FFFFFF"/>
					<stop  offset="1" style="stop-color:#FFFFFF;stop-opacity:0"/>
				</linearGradient>
				<path class="st16" d="M520.7,699.7c73.3-23.4,131.1-28.1,200.5-27.8c37.8,0.2,67.3,3.6,87.1,10.2c14.5,4.9,23.8,11.5,27.3,19.8
					c6.8,16.3-4.5,25-14.3,26.3c-2,0.3-4,0.2-5.8-0.1c-1-0.2-1.9-0.5-2.7-0.8c-6.2-2.7-7.2-9.4,0.3-14.6c6.7-4.7,8.6-16-15.2-24.1
					c-0.5-0.2-1.1-0.4-1.7-0.6c-32.6-10.6-81.3-12.9-152.2-9.3c-72.7,6.1-112.4,20.6-121.6,24.5c-2.4,0.6-3.4,0.5-5.2-0.3
					C515.7,702,515.9,701.1,520.7,699.7z"/>
			</g>
		</g>
		<g class="st17">
			<g>
				<path class="st0" d="M413.6,888.1c0.1-0.4,0.1-0.7,0.1-0.9c-0.2-0.4-0.7-0.7-1.4-1c-0.5-0.3-1-0.4-1.5-0.3
					c-0.4,0-0.8,0.1-1.2,0.2c-0.3,0.1-0.7,0.2-1.1,0.3c-0.1,0-0.3,0.1-0.4,0.2c-1.3,0.6-7.1,2.4-8.4,3.5c-1.4,1.1-0.1,3.9,3.8,3.5
					c0.4,0,0.9-0.2,1.3-0.3l0.3-0.1c0.1,0,0.2-0.1,0.3-0.2c0.6-0.3,1.1-0.6,1.5-0.9C408.6,890.9,413.5,888.6,413.6,888.1z"/>
				<linearGradient id="SVGID_13_" gradientUnits="userSpaceOnUse" x1="70.7832" y1="899.0449" x2="392.0642" y2="899.0449">
					<stop  offset="0" style="stop-color:#FFFFFF;stop-opacity:0"/>
					<stop  offset="1" style="stop-color:#FFFFFF"/>
				</linearGradient>
				<path class="st18" d="M387.8,899.5c-73.3,23.4-131.1,28.1-200.5,27.8c-37.8-0.2-67.3-3.6-87.1-10.2
					c-14.5-4.9-23.8-11.5-27.3-19.8c-6.8-16.3,4.5-25,14.3-26.3c2-0.3,4-0.2,5.8,0.1c1,0.2,1.9,0.5,2.7,0.8
					c6.2,2.7,7.2,9.4-0.3,14.6c-6.7,4.7-8.6,16,15.2,24.1c0.5,0.2,1.1,0.4,1.7,0.6c32.6,10.6,81.3,12.9,152.2,9.3
					C337,914.4,376.8,900,386,896c2.4-0.6,3.4-0.5,5.2,0.3C392.8,897.2,392.6,898,387.8,899.5z"/>
			</g>
			<g>
				<path class="st0" d="M423,879.9c-0.1,0.4-0.1,0.7-0.1,0.9c0.2,0.4,0.7,0.7,1.4,1c0.5,0.3,1,0.4,1.5,0.3c0.4,0,0.8-0.1,1.2-0.2
					c0.3-0.1,0.7-0.2,1.1-0.3c0.1,0,0.3-0.1,0.4-0.2c1.3-0.6,7.1-2.4,8.4-3.5c1.4-1.1,0.1-3.9-3.8-3.5c-0.4,0-0.9,0.2-1.3,0.3
					l-0.3,0.1c-0.1,0-0.2,0.1-0.3,0.2c-0.6,0.3-1.1,0.6-1.5,0.9C428.1,877.2,423.2,879.5,423,879.9z"/>
				<linearGradient id="SVGID_14_" gradientUnits="userSpaceOnUse" x1="444.5906" y1="869.0102" x2="765.8716" y2="869.0102">
					<stop  offset="0" style="stop-color:#FFFFFF"/>
					<stop  offset="1" style="stop-color:#FFFFFF;stop-opacity:0"/>
				</linearGradient>
				<path class="st19" d="M448.9,868.6c73.3-23.4,131.1-28.1,200.5-27.8c37.8,0.2,67.3,3.6,87.1,10.2c14.5,4.9,23.8,11.5,27.3,19.8
					c6.8,16.3-4.5,25-14.3,26.3c-2,0.3-4,0.2-5.8-0.1c-1-0.2-1.9-0.5-2.7-0.8c-6.2-2.7-7.2-9.4,0.3-14.6c6.7-4.7,8.6-16-15.2-24.1
					c-0.5-0.2-1.1-0.4-1.7-0.6c-32.6-10.6-81.3-12.9-152.2-9.3c-72.7,6.1-112.4,20.6-121.6,24.5c-2.4,0.6-3.4,0.5-5.2-0.3
					C443.9,870.9,444.1,870,448.9,868.6z"/>
			</g>
		</g>
		<g>
			<path class="st0" d="M399.8,923c0.1-0.4,0.1-0.7,0.1-0.9c-0.2-0.4-0.7-0.7-1.4-1c-0.5-0.3-1-0.4-1.5-0.3s-0.8,0.1-1.2,0.2
				c-0.3,0.1-0.7,0.2-1.1,0.3c-0.1,0-0.3,0.1-0.4,0.2c-1.3,0.6-7.1,2.4-8.4,3.5c-1.4,1.1-0.1,3.9,3.8,3.5c0.4,0,0.9-0.2,1.3-0.3
				l0.3-0.1c0.1,0,0.2-0.1,0.3-0.2c0.6-0.3,1.1-0.6,1.5-0.9C394.8,925.7,399.7,923.4,399.8,923z"/>
			<linearGradient id="SVGID_15_" gradientUnits="userSpaceOnUse" x1="56.9684" y1="933.9184" x2="378.2494" y2="933.9184">
				<stop  offset="0" style="stop-color:#FFFFFF;stop-opacity:0"/>
				<stop  offset="1" style="stop-color:#FFFFFF"/>
			</linearGradient>
			<path class="st20" d="M374,934.4c-73.3,23.4-131.1,28.1-200.5,27.8c-37.8-0.2-67.3-3.6-87.1-10.2c-14.5-4.9-23.8-11.5-27.3-19.8
				c-6.8-16.3,4.5-25,14.3-26.3c2-0.3,4-0.2,5.8,0.1c1,0.2,1.9,0.5,2.7,0.8c6.2,2.7,7.2,9.4-0.3,14.6c-6.7,4.7-8.6,16,15.2,24.1
				c0.5,0.2,1.1,0.4,1.7,0.6c32.6,10.6,81.3,12.9,152.2,9.3c72.7-6.1,112.4-20.6,121.6-24.5c2.4-0.6,3.4-0.5,5.2,0.3
				C378.9,932,378.8,932.9,374,934.4z"/>
		</g>
		<g>
			<path class="st0" d="M409.2,917.1c-0.1,0.4-0.1,0.7-0.1,0.9c0.2,0.4,0.7,0.7,1.4,1c0.5,0.3,1,0.4,1.5,0.3c0.4,0,0.8-0.1,1.2-0.2
				c0.3-0.1,0.7-0.2,1.1-0.3c0.1,0,0.3-0.1,0.4-0.2c1.3-0.6,7.1-2.4,8.4-3.5c1.4-1.1,0.1-3.9-3.8-3.5c-0.4,0-0.9,0.2-1.3,0.3
				l-0.3,0.1c-0.1,0-0.2,0.1-0.3,0.2c-0.6,0.3-1.1,0.6-1.5,0.9C414.3,914.4,409.3,916.7,409.2,917.1z"/>
			<linearGradient id="SVGID_16_" gradientUnits="userSpaceOnUse" x1="430.7758" y1="906.2373" x2="752.0568" y2="906.2373">
				<stop  offset="0" style="stop-color:#FFFFFF"/>
				<stop  offset="1" style="stop-color:#FFFFFF;stop-opacity:0"/>
			</linearGradient>
			<path class="st21" d="M435.1,905.8c73.3-23.4,131.1-28.1,200.5-27.8c37.8,0.2,67.3,3.6,87.1,10.2c14.5,4.9,23.8,11.5,27.3,19.8
				c6.8,16.3-4.5,25-14.3,26.3c-2,0.3-4,0.2-5.8-0.1c-1-0.2-1.9-0.5-2.7-0.8c-6.2-2.7-7.2-9.4,0.3-14.6c6.7-4.7,8.6-16-15.2-24.1
				c-0.5-0.2-1.1-0.4-1.7-0.6c-32.6-10.6-81.3-12.9-152.2-9.3c-72.7,6.1-112.4,20.6-121.6,24.5c-2.4,0.6-3.4,0.5-5.2-0.3
				C430.1,908.1,430.2,907.3,435.1,905.8z"/>
		</g>
		<g class="st9">
			<g>
				<path class="st0" d="M437.1,843.5c0.1-0.4,0.1-0.7,0.1-0.9c-0.2-0.4-0.7-0.7-1.4-1c-0.5-0.3-1-0.4-1.5-0.3
					c-0.4,0-0.8,0.1-1.2,0.2c-0.3,0.1-0.7,0.2-1.1,0.3c-0.1,0-0.3,0.1-0.4,0.2c-1.3,0.6-7.1,2.4-8.4,3.5c-1.4,1.1-0.1,3.9,3.8,3.5
					c0.4,0,0.9-0.2,1.3-0.3l0.3-0.1c0.1,0,0.2-0.1,0.3-0.2c0.6-0.3,1.1-0.6,1.5-0.9C432.1,846.2,437,843.9,437.1,843.5z"/>
				<linearGradient id="SVGID_17_" gradientUnits="userSpaceOnUse" x1="94.2729" y1="854.3892" x2="415.554" y2="854.3892">
					<stop  offset="0" style="stop-color:#FFFFFF;stop-opacity:0"/>
					<stop  offset="1" style="stop-color:#FFFFFF"/>
				</linearGradient>
				<path class="st22" d="M411.3,854.8c-73.3,23.4-131.1,28.1-200.5,27.8c-37.8-0.2-67.3-3.6-87.1-10.2
					c-14.5-4.9-23.8-11.5-27.3-19.8c-6.8-16.3,4.5-25,14.3-26.3c2-0.3,4-0.2,5.8,0.1c1,0.2,1.9,0.5,2.7,0.8
					c6.2,2.7,7.2,9.4-0.3,14.6c-6.7,4.7-8.6,16,15.2,24.1c0.5,0.2,1.1,0.4,1.7,0.6c32.6,10.6,81.3,12.9,152.2,9.3
					c72.7-6.1,112.4-20.6,121.6-24.5c2.4-0.6,3.4-0.5,5.2,0.3C416.2,852.5,416.1,853.4,411.3,854.8z"/>
			</g>
			<g>
				<path class="st0" d="M447.3,835.8c-0.1,0.4-0.1,0.7-0.1,0.9c0.2,0.4,0.7,0.7,1.4,1c0.5,0.3,1,0.4,1.5,0.3c0.4,0,0.8-0.1,1.2-0.2
					c0.3-0.1,0.7-0.2,1.1-0.3c0.1,0,0.3-0.1,0.4-0.2c1.3-0.6,7.1-2.4,8.4-3.5c1.4-1.1,0.1-3.9-3.8-3.5c-0.4,0-0.9,0.2-1.3,0.3
					l-0.3,0.1c-0.1,0-0.2,0.1-0.3,0.2c-0.6,0.3-1.1,0.6-1.5,0.9C452.4,833.1,447.4,835.4,447.3,835.8z"/>
				<linearGradient id="SVGID_18_" gradientUnits="userSpaceOnUse" x1="468.873" y1="824.8874" x2="790.1541" y2="824.8874">
					<stop  offset="0" style="stop-color:#FFFFFF"/>
					<stop  offset="1" style="stop-color:#FFFFFF;stop-opacity:0"/>
				</linearGradient>
				<path class="st23" d="M473.2,824.4c73.3-23.4,131.1-28.1,200.5-27.8c37.8,0.2,67.3,3.6,87.1,10.2c14.5,4.9,23.8,11.5,27.3,19.8
					c6.8,16.3-4.5,25-14.3,26.3c-2,0.3-4,0.2-5.8-0.1c-1-0.2-1.9-0.5-2.7-0.8c-6.2-2.7-7.2-9.4,0.3-14.6c6.7-4.7,8.6-16-15.2-24.1
					c-0.5-0.2-1.1-0.4-1.7-0.6c-32.6-10.6-81.3-12.9-152.2-9.3c-72.7,6.1-112.4,20.6-121.6,24.5c-2.4,0.6-3.4,0.5-5.2-0.3
					C468.2,826.8,468.3,825.9,473.2,824.4z"/>
			</g>
		</g>
		<g class="st24">
			<g>
				<path class="st0" d="M549.1,587.8c0.1-0.4,0.1-0.7,0.1-0.9c-0.2-0.4-0.7-0.7-1.4-1c-0.5-0.3-1-0.4-1.5-0.3
					c-0.4,0-0.8,0.1-1.2,0.2c-0.3,0.1-0.7,0.2-1.1,0.3c-0.1,0-0.3,0.1-0.4,0.2c-1.3,0.6-7.1,2.4-8.4,3.5c-1.4,1.1-0.1,3.9,3.8,3.5
					c0.4,0,0.9-0.2,1.3-0.3l0.3-0.1c0.1,0,0.2-0.1,0.3-0.2c0.6-0.3,1.1-0.6,1.5-0.9C544,590.5,548.9,588.2,549.1,587.8z"/>
				<linearGradient id="SVGID_19_" gradientUnits="userSpaceOnUse" x1="206.2105" y1="598.7181" x2="527.4915" y2="598.7181">
					<stop  offset="0" style="stop-color:#FFFFFF;stop-opacity:0"/>
					<stop  offset="1" style="stop-color:#FFFFFF"/>
				</linearGradient>
				<path class="st25" d="M523.2,599.2c-73.3,23.4-131.1,28.1-200.5,27.8c-37.8-0.2-67.3-3.6-87.1-10.2
					c-14.5-4.9-23.8-11.5-27.3-19.8c-6.8-16.3,4.5-25,14.3-26.3c2-0.3,4-0.2,5.8,0.1c1,0.2,1.9,0.5,2.7,0.8
					c6.2,2.7,7.2,9.4-0.3,14.6c-6.7,4.7-8.6,16,15.2,24.1c0.5,0.2,1.1,0.4,1.7,0.6c32.6,10.6,81.3,12.9,152.2,9.3
					c72.7-6.1,112.4-20.6,121.6-24.5c2.4-0.6,3.4-0.5,5.2,0.3C528.2,596.8,528,597.7,523.2,599.2z"/>
			</g>
			<g>
				<path class="st0" d="M559.3,580.1c-0.1,0.4-0.1,0.7-0.1,0.9c0.2,0.4,0.7,0.7,1.4,1c0.5,0.3,1,0.4,1.5,0.3c0.4,0,0.8-0.1,1.2-0.2
					c0.3-0.1,0.7-0.2,1.1-0.3c0.1,0,0.3-0.1,0.4-0.2c1.3-0.6,7.1-2.4,8.4-3.5c1.4-1.1,0.1-3.9-3.8-3.5c-0.4,0-0.9,0.2-1.3,0.3
					l-0.3,0.1c-0.1,0-0.2,0.1-0.3,0.2c-0.6,0.3-1.1,0.6-1.5,0.9C564.3,577.4,559.4,579.7,559.3,580.1z"/>
				<linearGradient id="SVGID_20_" gradientUnits="userSpaceOnUse" x1="580.8107" y1="569.2163" x2="902.0916" y2="569.2163">
					<stop  offset="0" style="stop-color:#FFFFFF"/>
					<stop  offset="1" style="stop-color:#FFFFFF;stop-opacity:0"/>
				</linearGradient>
				<path class="st26" d="M585.1,568.8c73.3-23.4,131.1-28.1,200.5-27.8c37.8,0.2,67.3,3.6,87.1,10.2c14.5,4.9,23.8,11.5,27.3,19.8
					c6.8,16.3-4.5,25-14.3,26.3c-2,0.3-4,0.2-5.8-0.1c-1-0.2-1.9-0.5-2.7-0.8c-6.2-2.7-7.2-9.4,0.3-14.6c6.7-4.7,8.6-16-15.2-24.1
					c-0.5-0.2-1.1-0.4-1.7-0.6c-32.6-10.6-81.3-12.9-152.2-9.3c-72.7,6.1-112.4,20.6-121.6,24.5c-2.4,0.6-3.4,0.5-5.2-0.3
					C580.1,571.1,580.3,570.2,585.1,568.8z"/>
			</g>
		</g>
		<g>
			<path class="st0" d="M588.5,535.2c-0.1,0.4-0.1,0.7-0.1,0.9c0.2,0.4,0.7,0.7,1.4,1c0.5,0.3,1,0.4,1.5,0.3c0.4,0,0.8-0.1,1.2-0.2
				c0.3-0.1,0.7-0.2,1.1-0.3c0.1,0,0.3-0.1,0.4-0.2c1.3-0.6,7.1-2.4,8.4-3.5c1.4-1.1,0.1-3.9-3.8-3.5c-0.4,0-0.9,0.2-1.3,0.3
				l-0.3,0.1c-0.1,0-0.2,0.1-0.3,0.2c-0.6,0.3-1.1,0.6-1.5,0.9C593.5,532.5,588.6,534.8,588.5,535.2z"/>
			<linearGradient id="SVGID_21_" gradientUnits="userSpaceOnUse" x1="610.0414" y1="524.3075" x2="931.3224" y2="524.3075">
				<stop  offset="0" style="stop-color:#FFFFFF"/>
				<stop  offset="1" style="stop-color:#FFFFFF;stop-opacity:0"/>
			</linearGradient>
			<path class="st27" d="M614.3,523.9c73.3-23.4,131.1-28.1,200.5-27.8c37.8,0.2,67.3,3.6,87.1,10.2c14.5,4.9,23.8,11.5,27.3,19.8
				c6.8,16.3-4.5,25-14.3,26.3c-2,0.3-4,0.2-5.8-0.1c-1-0.2-1.9-0.5-2.7-0.8c-6.2-2.7-7.2-9.4,0.3-14.6c6.7-4.7,8.6-16-15.2-24.1
				c-0.5-0.2-1.1-0.4-1.7-0.6c-32.6-10.6-81.3-12.9-152.2-9.3c-72.7,6.1-112.4,20.6-121.6,24.5c-2.4,0.6-3.4,0.5-5.2-0.3
				C609.4,526.2,609.5,525.3,614.3,523.9z"/>
		</g>
		<g>
			<path class="st0" d="M611.9,492.9c-0.1,0.4-0.1,0.7-0.1,0.9c0.2,0.4,0.7,0.7,1.4,1c0.5,0.3,1,0.4,1.5,0.3s0.8-0.1,1.2-0.2
				c0.3-0.1,0.7-0.2,1.1-0.3c0.1,0,0.3-0.1,0.4-0.2c1.3-0.6,7.1-2.4,8.4-3.5c1.4-1.1,0.1-3.9-3.8-3.5c-0.4,0-0.9,0.2-1.3,0.3
				l-0.3,0.1c-0.1,0-0.2,0.1-0.3,0.2c-0.6,0.3-1.1,0.6-1.5,0.9C616.9,490.2,612,492.5,611.9,492.9z"/>
			<linearGradient id="SVGID_22_" gradientUnits="userSpaceOnUse" x1="633.4678" y1="481.9787" x2="954.7488" y2="481.9787">
				<stop  offset="0" style="stop-color:#FFFFFF"/>
				<stop  offset="1" style="stop-color:#FFFFFF;stop-opacity:0"/>
			</linearGradient>
			<path class="st28" d="M637.8,481.5c73.3-23.4,131.1-28.1,200.5-27.8c37.8,0.2,67.3,3.6,87.1,10.2c14.5,4.9,23.8,11.5,27.3,19.8
				c6.8,16.3-4.5,25-14.3,26.3c-2,0.3-4,0.2-5.8-0.1c-1-0.2-1.9-0.5-2.7-0.8c-6.2-2.7-7.2-9.4,0.3-14.6c6.7-4.7,8.6-16-15.2-24.1
				c-0.5-0.2-1.1-0.4-1.7-0.6c-32.6-10.6-81.3-12.9-152.2-9.3c-72.7,6.1-112.4,20.6-121.6,24.5c-2.4,0.6-3.4,0.5-5.2-0.3
				C632.8,483.9,632.9,483,637.8,481.5z"/>
		</g>
	</g>
	<g>
		<g>
			<path class="st0" d="M351.9,306.9c-0.1,0.4-0.1,0.7,0,0.9c0.2,0.3,0.7,0.6,1.5,0.9c0.6,0.2,1.1,0.3,1.5,0.2
				c0.4-0.1,0.8-0.1,1.2-0.2c0.3-0.1,0.6-0.2,1.1-0.4c0.1-0.1,0.3-0.1,0.4-0.2c1.3-0.7,7-2.7,8.2-3.8c1.4-1.2-0.1-3.7-4-3.2
				c-0.4,0.1-0.9,0.2-1.2,0.4l-0.3,0.1c-0.1,0.1-0.2,0.1-0.3,0.2c-0.6,0.3-1,0.7-1.5,1C356.8,304,352,306.5,351.9,306.9z"/>
			<linearGradient id="SVGID_23_" gradientUnits="userSpaceOnUse" x1="372.9659" y1="281.507" x2="694.3071" y2="281.507">
				<stop  offset="0" style="stop-color:#FFFFFF"/>
				<stop  offset="1" style="stop-color:#FFFFFF;stop-opacity:0"/>
			</linearGradient>
			<path class="st29" d="M377.1,294.6c71.9-26.5,129.4-34.1,198.7-37.4c37.8-1.8,67.4-0.1,87.5,5.2c14.8,3.9,24.4,9.8,28.3,17.7
				c7.7,15.4-3.1,24.3-12.9,26.1c-2,0.4-4,0.4-5.8,0.2c-1-0.1-1.9-0.4-2.7-0.7c-6.3-2.3-7.7-8.7-0.5-14.1
				c6.4-4.8,7.8-15.9-16.5-22.4c-0.6-0.2-1.1-0.3-1.7-0.4c-33.1-8.5-81.9-8.1-152.4-0.9c-72.3,9.8-111.1,25.8-120.1,30.1
				c-2.3,0.7-3.4,0.7-5.2-0.1C372.3,297.1,372.4,296.3,377.1,294.6z"/>
		</g>
		<g>
			<path class="st0" d="M373,264.9c-0.1,0.4-0.1,0.7,0,0.9c0.2,0.3,0.7,0.6,1.5,0.9c0.6,0.2,1.1,0.3,1.5,0.2
				c0.4-0.1,0.8-0.1,1.2-0.2c0.3-0.1,0.6-0.2,1.1-0.4c0.1-0.1,0.3-0.1,0.4-0.2c1.3-0.7,7-2.7,8.2-3.8c1.4-1.2-0.1-3.7-4-3.2
				c-0.4,0.1-0.9,0.2-1.2,0.4l-0.3,0.1c-0.1,0.1-0.2,0.1-0.3,0.2c-0.6,0.3-1,0.7-1.5,1C377.9,262,373.1,264.4,373,264.9z"/>
			<linearGradient id="SVGID_24_" gradientUnits="userSpaceOnUse" x1="394.0346" y1="239.4496" x2="715.3759" y2="239.4496">
				<stop  offset="0" style="stop-color:#FFFFFF"/>
				<stop  offset="1" style="stop-color:#FFFFFF;stop-opacity:0"/>
			</linearGradient>
			<path class="st30" d="M398.2,252.6c71.9-26.5,129.4-34.1,198.7-37.4c37.8-1.8,67.4-0.1,87.5,5.2c14.8,3.9,24.4,9.8,28.3,17.7
				c7.7,15.4-3.1,24.3-12.9,26.1c-2,0.4-4,0.4-5.8,0.2c-1-0.1-1.9-0.4-2.7-0.7c-6.3-2.3-7.7-8.7-0.5-14.1
				c6.4-4.8,7.8-15.9-16.5-22.4c-0.6-0.2-1.1-0.3-1.7-0.4c-33.1-8.5-81.9-8.1-152.4-0.9c-72.3,9.8-111.1,25.8-120.1,30.1
				c-2.3,0.7-3.4,0.7-5.2-0.1C393.4,255.1,393.5,254.2,398.2,252.6z"/>
		</g>
		<g>
			<path class="st0" d="M402.2,220.3c-0.1,0.4-0.1,0.7,0,0.9c0.2,0.3,0.7,0.6,1.5,0.9c0.6,0.2,1.1,0.3,1.5,0.2
				c0.4-0.1,0.8-0.1,1.2-0.2c0.3-0.1,0.6-0.2,1.1-0.4c0.1-0.1,0.3-0.1,0.4-0.2c1.3-0.7,7-2.7,8.2-3.8c1.4-1.2-0.1-3.7-4-3.2
				c-0.4,0.1-0.9,0.2-1.2,0.4l-0.3,0.1c-0.1,0.1-0.2,0.1-0.3,0.2c-0.6,0.3-1,0.7-1.5,1C407.1,217.4,402.3,219.9,402.2,220.3z"/>
			<linearGradient id="SVGID_25_" gradientUnits="userSpaceOnUse" x1="423.2121" y1="194.9121" x2="744.5533" y2="194.9121">
				<stop  offset="0" style="stop-color:#FFFFFF"/>
				<stop  offset="1" style="stop-color:#FFFFFF;stop-opacity:0"/>
			</linearGradient>
			<path class="st31" d="M427.4,208c71.9-26.5,129.4-34.1,198.7-37.4c37.8-1.8,67.4-0.1,87.5,5.2c14.8,3.9,24.4,9.8,28.3,17.7
				c7.7,15.4-3.1,24.3-12.9,26.1c-2,0.4-4,0.4-5.8,0.2c-1-0.1-1.9-0.4-2.7-0.7c-6.3-2.3-7.7-8.7-0.5-14.1
				c6.4-4.8,7.8-15.9-16.5-22.4c-0.6-0.2-1.1-0.3-1.7-0.4c-33.1-8.5-81.9-8.1-152.4-0.9c-72.3,9.8-111.1,25.8-120.1,30.1
				c-2.3,0.7-3.4,0.7-5.2-0.1C422.5,210.5,422.6,209.7,427.4,208z"/>
		</g>
		<g>
			<path class="st0" d="M423.3,178.3c-0.1,0.4-0.1,0.7,0,0.9c0.2,0.3,0.7,0.6,1.5,0.9c0.6,0.2,1.1,0.3,1.5,0.2
				c0.4-0.1,0.8-0.1,1.2-0.2c0.3-0.1,0.6-0.2,1.1-0.4c0.1-0.1,0.3-0.1,0.4-0.2c1.3-0.7,7-2.7,8.2-3.8c1.4-1.2-0.1-3.7-4-3.2
				c-0.4,0.1-0.9,0.2-1.2,0.4l-0.3,0.1c-0.1,0.1-0.2,0.1-0.3,0.2c-0.6,0.3-1,0.7-1.5,1C428.1,175.4,423.4,177.9,423.3,178.3z"/>
			<linearGradient id="SVGID_26_" gradientUnits="userSpaceOnUse" x1="444.2808" y1="152.8546" x2="765.6221" y2="152.8546">
				<stop  offset="0" style="stop-color:#FFFFFF"/>
				<stop  offset="1" style="stop-color:#FFFFFF;stop-opacity:0"/>
			</linearGradient>
			<path class="st32" d="M448.4,166c71.9-26.5,129.4-34.1,198.7-37.4c37.8-1.8,67.4-0.1,87.5,5.2c14.8,3.9,24.4,9.8,28.3,17.7
				c7.7,15.4-3.1,24.3-12.9,26.1c-2,0.4-4,0.4-5.8,0.2c-1-0.1-1.9-0.4-2.7-0.7c-6.3-2.3-7.7-8.7-0.5-14.1
				c6.4-4.8,7.8-15.9-16.5-22.4c-0.6-0.2-1.1-0.3-1.7-0.4c-33.1-8.5-81.9-8.1-152.4-0.9c-72.3,9.8-111.1,25.8-120.1,30.1
				c-2.3,0.7-3.4,0.7-5.2-0.1C443.6,168.5,443.7,167.6,448.4,166z"/>
		</g>
		<g>
			<path class="st0" d="M444.3,134c-0.1,0.4-0.1,0.7,0,0.9c0.2,0.3,0.7,0.6,1.5,0.9c0.6,0.2,1.1,0.3,1.5,0.2
				c0.4-0.1,0.8-0.1,1.2-0.2c0.3-0.1,0.6-0.2,1.1-0.4c0.1-0.1,0.3-0.1,0.4-0.2c1.3-0.7,7-2.7,8.2-3.8c1.4-1.2-0.1-3.7-4-3.2
				c-0.4,0.1-0.9,0.2-1.2,0.4l-0.3,0.1c-0.1,0.1-0.2,0.1-0.3,0.2c-0.6,0.3-1,0.7-1.5,1C449.1,131.1,444.4,133.5,444.3,134z"/>
			<linearGradient id="SVGID_27_" gradientUnits="userSpaceOnUse" x1="465.2852" y1="108.55" x2="786.6264" y2="108.55">
				<stop  offset="0" style="stop-color:#FFFFFF"/>
				<stop  offset="1" style="stop-color:#FFFFFF;stop-opacity:0"/>
			</linearGradient>
			<path class="st33" d="M469.4,121.7c71.9-26.5,129.4-34.1,198.7-37.4c37.8-1.8,67.4-0.1,87.5,5.2c14.8,3.9,24.4,9.8,28.3,17.7
				c7.7,15.4-3.1,24.3-12.9,26.1c-2,0.4-4,0.4-5.8,0.2c-1-0.1-1.9-0.4-2.7-0.7c-6.3-2.3-7.7-8.7-0.5-14.1
				c6.4-4.8,7.8-15.9-16.5-22.4c-0.6-0.2-1.1-0.3-1.7-0.4c-33.1-8.5-81.9-8.1-152.4-0.9c-72.3,9.8-111.1,25.8-120.1,30.1
				c-2.3,0.7-3.4,0.7-5.2-0.1C464.6,124.2,464.7,123.3,469.4,121.7z"/>
		</g>
		<g>
			<linearGradient id="SVGID_28_" gradientUnits="userSpaceOnUse" x1="465.2444" y1="90.0001" x2="479.5928" y2="90.0001">
				<stop  offset="0" style="stop-color:#FFFFFF"/>
				<stop  offset="1" style="stop-color:#FFFFFF;stop-opacity:0"/>
			</linearGradient>
			<path class="st34" d="M465.3,91.9c-0.1,0.4-0.1,0.7,0,0.9c0.2,0.3,0.7,0.6,1.5,0.9c0.6,0.2,1.1,0.3,1.5,0.2
				c0.4-0.1,0.8-0.1,1.2-0.2c0.3-0.1,0.6-0.2,1.1-0.4c0.1-0.1,0.3-0.1,0.4-0.2c1.3-0.7,7-2.7,8.2-3.8c1.4-1.2-0.1-3.7-4-3.2
				c-0.4,0.1-0.9,0.2-1.2,0.4l-0.3,0.1c-0.1,0.1-0.2,0.1-0.3,0.2c-0.6,0.3-1,0.7-1.5,1C470.2,89,465.4,91.5,465.3,91.9z"/>
			<linearGradient id="SVGID_29_" gradientUnits="userSpaceOnUse" x1="486.3539" y1="66.4926" x2="807.6951" y2="66.4926">
				<stop  offset="0" style="stop-color:#FFFFFF"/>
				<stop  offset="1" style="stop-color:#FFFFFF;stop-opacity:0"/>
			</linearGradient>
			<path class="st35" d="M490.5,79.6c71.9-26.5,129.4-34.1,198.7-37.4c37.8-1.8,67.4-0.1,87.5,5.2c14.8,3.9,24.4,9.8,28.3,17.7
				c7.7,15.4-3.1,24.3-12.9,26.1c-2,0.4-4,0.4-5.8,0.2c-1-0.1-1.9-0.4-2.7-0.7c-6.3-2.3-7.7-8.7-0.5-14.1
				c6.4-4.8,7.8-15.9-16.5-22.4c-0.6-0.2-1.1-0.3-1.7-0.4c-33.1-8.5-81.9-8.1-152.4-0.9c-72.3,9.8-111.1,25.8-120.1,30.1
				c-2.3,0.7-3.4,0.7-5.2-0.1C485.7,82.1,485.8,81.3,490.5,79.6z"/>
		</g>
		<g>
			<linearGradient id="SVGID_30_" gradientUnits="userSpaceOnUse" x1="443.5596" y1="99.8992" x2="457.908" y2="99.8992">
				<stop  offset="0" style="stop-color:#FFFFFF;stop-opacity:0"/>
				<stop  offset="1" style="stop-color:#FFFFFF"/>
			</linearGradient>
			<path class="st36" d="M457.8,98c0.1-0.4,0.1-0.7,0-0.9c-0.2-0.3-0.7-0.6-1.5-0.9c-0.6-0.2-1.1-0.3-1.5-0.2
				c-0.4,0.1-0.8,0.1-1.2,0.2c-0.3,0.1-0.6,0.2-1.1,0.4c-0.1,0.1-0.3,0.1-0.4,0.2c-1.3,0.7-7,2.7-8.2,3.8c-1.4,1.2,0.1,3.7,4,3.2
				c0.4-0.1,0.9-0.2,1.2-0.4l0.3-0.1c0.1-0.1,0.2-0.1,0.3-0.2c0.6-0.3,1-0.7,1.5-1C452.9,100.9,457.7,98.4,457.8,98z"/>
			<linearGradient id="SVGID_31_" gradientUnits="userSpaceOnUse" x1="115.4573" y1="123.4068" x2="436.7986" y2="123.4068">
				<stop  offset="0" style="stop-color:#FFFFFF;stop-opacity:0"/>
				<stop  offset="1" style="stop-color:#FFFFFF"/>
			</linearGradient>
			<path class="st37" d="M432.6,110.3c-71.9,26.5-129.4,34.1-198.7,37.4c-37.8,1.8-67.4,0.1-87.5-5.2c-14.8-3.9-24.4-9.8-28.3-17.7
				c-7.7-15.4,3.1-24.3,12.9-26.1c2-0.4,4-0.4,5.8-0.2c1,0.1,1.9,0.4,2.7,0.7c6.3,2.3,7.7,8.7,0.5,14.1c-6.4,4.8-7.8,15.9,16.5,22.4
				c0.6,0.2,1.1,0.3,1.7,0.4c33.1,8.5,81.9,8.1,152.4,0.9c72.3-9.8,111.1-25.8,120.1-30.1c2.3-0.7,3.4-0.7,5.2,0.1
				C437.5,107.8,437.4,108.6,432.6,110.3z"/>
		</g>
		<g>
			<linearGradient id="SVGID_32_" gradientUnits="userSpaceOnUse" x1="469.0103" y1="49.9886" x2="483.3586" y2="49.9886">
				<stop  offset="0" style="stop-color:#FFFFFF"/>
				<stop  offset="1" style="stop-color:#FFFFFF;stop-opacity:0"/>
			</linearGradient>
			<path class="st38" d="M469.1,51.9c-0.1,0.4-0.1,0.7,0,0.9c0.2,0.3,0.7,0.6,1.5,0.9c0.6,0.2,1.1,0.3,1.5,0.2
				c0.4-0.1,0.8-0.1,1.2-0.2c0.3-0.1,0.6-0.2,1.1-0.4c0.1-0.1,0.3-0.1,0.4-0.2c1.3-0.7,7-2.7,8.2-3.8c1.4-1.2-0.1-3.7-4-3.2
				c-0.4,0.1-0.9,0.2-1.2,0.4l-0.3,0.1c-0.1,0.1-0.2,0.1-0.3,0.2c-0.6,0.3-1,0.7-1.5,1C474,49,469.2,51.5,469.1,51.9z"/>
			<linearGradient id="SVGID_33_" gradientUnits="userSpaceOnUse" x1="490.1197" y1="26.481" x2="811.4609" y2="26.481">
				<stop  offset="0" style="stop-color:#FFFFFF"/>
				<stop  offset="1" style="stop-color:#FFFFFF;stop-opacity:0"/>
			</linearGradient>
			<path class="st39" d="M494.3,39.6C566.2,13.1,623.6,5.5,693,2.2c37.8-1.8,67.4-0.1,87.5,5.2c14.8,3.9,24.4,9.8,28.3,17.7
				c7.7,15.4-3.1,24.3-12.9,26.1c-2,0.4-4,0.4-5.8,0.2c-1-0.1-1.9-0.4-2.7-0.7c-6.3-2.3-7.7-8.7-0.5-14.1
				c6.4-4.8,7.8-15.9-16.5-22.4c-0.6-0.2-1.1-0.3-1.7-0.4c-33.1-8.5-81.9-8.1-152.4-0.9c-72.3,9.8-111.1,25.8-120.1,30.1
				c-2.3,0.7-3.4,0.7-5.2-0.1C489.4,42.1,489.5,41.3,494.3,39.6z"/>
		</g>
		<g>
			<linearGradient id="SVGID_34_" gradientUnits="userSpaceOnUse" x1="447.3254" y1="59.8877" x2="461.6737" y2="59.8877">
				<stop  offset="0" style="stop-color:#FFFFFF;stop-opacity:0"/>
				<stop  offset="1" style="stop-color:#FFFFFF"/>
			</linearGradient>
			<path class="st40" d="M461.6,58c0.1-0.4,0.1-0.7,0-0.9c-0.2-0.3-0.7-0.6-1.5-0.9c-0.6-0.2-1.1-0.3-1.5-0.2
				c-0.4,0.1-0.8,0.1-1.2,0.2c-0.3,0.1-0.6,0.2-1.1,0.4c-0.1,0.1-0.3,0.1-0.4,0.2c-1.3,0.7-7,2.7-8.2,3.8c-1.4,1.2,0.1,3.7,4,3.2
				c0.4-0.1,0.9-0.2,1.2-0.4l0.3-0.1c0.1-0.1,0.2-0.1,0.3-0.2c0.6-0.3,1-0.7,1.5-1C456.7,60.9,461.5,58.4,461.6,58z"/>
			<linearGradient id="SVGID_35_" gradientUnits="userSpaceOnUse" x1="119.2231" y1="83.3952" x2="440.5643" y2="83.3952">
				<stop  offset="0" style="stop-color:#FFFFFF;stop-opacity:0"/>
				<stop  offset="1" style="stop-color:#FFFFFF"/>
			</linearGradient>
			<path class="st41" d="M436.4,70.3c-71.9,26.5-129.4,34.1-198.7,37.4c-37.8,1.8-67.4,0.1-87.5-5.2c-14.8-3.9-24.4-9.8-28.3-17.7
				c-7.7-15.4,3.1-24.3,12.9-26.1c2-0.4,4-0.4,5.8-0.2c1,0.1,1.9,0.4,2.7,0.7c6.3,2.3,7.7,8.7,0.5,14.1c-6.4,4.8-7.8,15.9,16.5,22.4
				c0.6,0.2,1.1,0.3,1.7,0.4c33.1,8.5,81.9,8.1,152.4,0.9c72.3-9.8,111.1-25.8,120.1-30.1c2.3-0.7,3.4-0.7,5.2,0.1
				C441.2,67.8,441.1,68.6,436.4,70.3z"/>
		</g>
		<g>
			<path class="st0" d="M435.1,140.2c0.1-0.4,0.1-0.7,0-0.9c-0.2-0.3-0.7-0.6-1.5-0.9c-0.6-0.2-1.1-0.3-1.5-0.2
				c-0.4,0.1-0.8,0.1-1.2,0.2c-0.3,0.1-0.6,0.2-1.1,0.4c-0.1,0.1-0.3,0.1-0.4,0.2c-1.3,0.7-7,2.7-8.2,3.8c-1.4,1.2,0.1,3.7,4,3.2
				c0.4-0.1,0.9-0.2,1.2-0.4l0.3-0.1c0.1-0.1,0.2-0.1,0.3-0.2c0.6-0.3,1-0.7,1.5-1C430.2,143.1,435,140.6,435.1,140.2z"/>
			<linearGradient id="SVGID_36_" gradientUnits="userSpaceOnUse" x1="92.7548" y1="165.6209" x2="414.096" y2="165.6209">
				<stop  offset="0" style="stop-color:#FFFFFF;stop-opacity:0"/>
				<stop  offset="1" style="stop-color:#FFFFFF"/>
			</linearGradient>
			<path class="st42" d="M409.9,152.5C338,179,280.6,186.6,211.2,189.9c-37.8,1.8-67.4,0.1-87.5-5.2c-14.8-3.9-24.4-9.8-28.3-17.7
				c-7.7-15.4,3.1-24.3,12.9-26.1c2-0.4,4-0.4,5.8-0.2c1,0.1,1.9,0.4,2.7,0.7c6.3,2.3,7.7,8.7,0.5,14.1c-6.4,4.8-7.8,15.9,16.5,22.4
				c0.6,0.2,1.1,0.3,1.7,0.4c33.1,8.5,81.9,8.1,152.4,0.9c72.3-9.8,111.1-25.8,120.1-30.1c2.3-0.7,3.4-0.7,5.2,0.1
				C414.8,150,414.7,150.8,409.9,152.5z"/>
		</g>
		<g>
			<path class="st0" d="M413.3,184c0.1-0.4,0.1-0.7,0-0.9c-0.2-0.3-0.7-0.6-1.5-0.9c-0.6-0.2-1.1-0.3-1.5-0.2
				c-0.4,0.1-0.8,0.1-1.2,0.2c-0.3,0.1-0.6,0.2-1.1,0.4c-0.1,0.1-0.3,0.1-0.4,0.2c-1.3,0.7-7,2.7-8.2,3.8c-1.4,1.2,0.1,3.7,4,3.2
				c0.4-0.1,0.9-0.2,1.2-0.4l0.3-0.1c0.1-0.1,0.2-0.1,0.3-0.2c0.6-0.3,1-0.7,1.5-1C408.4,186.9,413.2,184.5,413.3,184z"/>
			<linearGradient id="SVGID_37_" gradientUnits="userSpaceOnUse" x1="70.9297" y1="209.4535" x2="392.2709" y2="209.4535">
				<stop  offset="0" style="stop-color:#FFFFFF;stop-opacity:0"/>
				<stop  offset="1" style="stop-color:#FFFFFF"/>
			</linearGradient>
			<path class="st43" d="M388.1,196.3c-71.9,26.5-129.4,34.1-198.7,37.4c-37.8,1.8-67.4,0.1-87.5-5.2c-14.8-3.9-24.4-9.8-28.3-17.7
				c-7.7-15.4,3.1-24.3,12.9-26.1c2-0.4,4-0.4,5.8-0.2c1,0.1,1.9,0.4,2.7,0.7c6.3,2.3,7.7,8.7,0.5,14.1c-6.4,4.8-7.8,15.9,16.5,22.4
				c0.6,0.2,1.1,0.3,1.7,0.4c33.1,8.5,81.9,8.1,152.4,0.9c72.3-9.8,111.1-25.8,120.1-30.1c2.3-0.7,3.4-0.7,5.2,0.1
				C393,193.8,392.8,194.7,388.1,196.3z"/>
		</g>
		<g>
			<path class="st0" d="M392.2,226.1c0.1-0.4,0.1-0.7,0-0.9c-0.2-0.3-0.7-0.6-1.5-0.9c-0.6-0.2-1.1-0.3-1.5-0.2
				c-0.4,0.1-0.8,0.1-1.2,0.2c-0.3,0.1-0.6,0.2-1.1,0.4c-0.1,0.1-0.3,0.1-0.4,0.2c-1.3,0.7-7,2.7-8.2,3.8c-1.4,1.2,0.1,3.7,4,3.2
				c0.4-0.1,0.9-0.2,1.2-0.4l0.3-0.1c0.1-0.1,0.2-0.1,0.3-0.2c0.6-0.3,1-0.7,1.5-1C387.3,229,392.1,226.5,392.2,226.1z"/>
			<linearGradient id="SVGID_38_" gradientUnits="userSpaceOnUse" x1="49.861" y1="251.511" x2="371.2022" y2="251.511">
				<stop  offset="0" style="stop-color:#FFFFFF;stop-opacity:0"/>
				<stop  offset="1" style="stop-color:#FFFFFF"/>
			</linearGradient>
			<path class="st44" d="M367,238.4c-71.9,26.5-129.4,34.1-198.7,37.4c-37.8,1.8-67.4,0.1-87.5-5.2c-14.8-3.9-24.4-9.8-28.3-17.7
				c-7.7-15.4,3.1-24.3,12.9-26.1c2-0.4,4-0.4,5.8-0.2c1,0.1,1.9,0.4,2.7,0.7c6.3,2.3,7.7,8.7,0.5,14.1c-6.4,4.8-7.8,15.9,16.5,22.4
				c0.6,0.2,1.1,0.3,1.7,0.4c33.1,8.5,81.9,8.1,152.4,0.9c72.3-9.8,111.1-25.8,120.1-30.1c2.3-0.7,3.4-0.7,5.2,0.1
				C371.9,235.9,371.8,236.7,367,238.4z"/>
		</g>
		<g>
			<path class="st0" d="M365.5,271c0.1-0.4,0.1-0.7,0-0.9c-0.2-0.3-0.7-0.6-1.5-0.9c-0.6-0.2-1.1-0.3-1.5-0.2
				c-0.4,0.1-0.8,0.1-1.2,0.2c-0.3,0.1-0.6,0.2-1.1,0.4c-0.1,0.1-0.3,0.1-0.4,0.2c-1.3,0.7-7,2.7-8.2,3.8c-1.4,1.2,0.1,3.7,4,3.2
				c0.4-0.1,0.9-0.2,1.2-0.4l0.3-0.1c0.1-0.1,0.2-0.1,0.3-0.2c0.6-0.3,1-0.7,1.5-1C360.6,273.8,365.4,271.4,365.5,271z"/>
			<linearGradient id="SVGID_39_" gradientUnits="userSpaceOnUse" x1="23.1381" y1="296.3638" x2="344.4793" y2="296.3638">
				<stop  offset="0" style="stop-color:#FFFFFF;stop-opacity:0"/>
				<stop  offset="1" style="stop-color:#FFFFFF"/>
			</linearGradient>
			<path class="st45" d="M340.3,283.3c-71.9,26.5-129.4,34.1-198.7,37.4c-37.8,1.8-67.4,0.1-87.5-5.2c-14.8-3.9-24.4-9.8-28.3-17.7
				c-7.7-15.4,3.1-24.3,12.9-26.1c2-0.4,4-0.4,5.8-0.2c1,0.1,1.9,0.4,2.7,0.7c6.3,2.3,7.7,8.7,0.5,14.1c-6.4,4.8-7.8,15.9,16.5,22.4
				c0.6,0.2,1.1,0.3,1.7,0.4c33.1,8.5,81.9,8.1,152.4,0.9c72.3-9.8,111.1-25.8,120.1-30.1c2.3-0.7,3.4-0.7,5.2,0.1
				C345.2,280.7,345.1,281.6,340.3,283.3z"/>
		</g>
		<g>
			<path class="st0" d="M344.4,313c0.1-0.4,0.1-0.7,0-0.9c-0.2-0.3-0.7-0.6-1.5-0.9c-0.6-0.2-1.1-0.3-1.5-0.2
				c-0.4,0.1-0.8,0.1-1.2,0.2c-0.3,0.1-0.6,0.2-1.1,0.4c-0.1,0.1-0.3,0.1-0.4,0.2c-1.3,0.7-7,2.7-8.2,3.8c-1.4,1.2,0.1,3.7,4,3.2
				c0.4-0.1,0.9-0.2,1.2-0.4l0.3-0.1c0.1-0.1,0.2-0.1,0.3-0.2c0.6-0.3,1-0.7,1.5-1C339.6,315.9,344.3,313.4,344.4,313z"/>
			<linearGradient id="SVGID_40_" gradientUnits="userSpaceOnUse" x1="2.0694" y1="338.4212" x2="323.4106" y2="338.4212">
				<stop  offset="0" style="stop-color:#FFFFFF;stop-opacity:0"/>
				<stop  offset="1" style="stop-color:#FFFFFF"/>
			</linearGradient>
			<path class="st46" d="M319.3,325.3c-71.9,26.5-129.4,34.1-198.7,37.4c-37.8,1.8-67.4,0.1-87.5-5.2c-14.8-3.9-24.4-9.8-28.3-17.7
				c-7.7-15.4,3.1-24.3,12.9-26.1c2-0.4,4-0.4,5.8-0.2c1,0.1,1.9,0.4,2.7,0.7c6.3,2.3,7.7,8.7,0.5,14.1c-6.4,4.8-7.8,15.9,16.5,22.4
				c0.6,0.2,1.1,0.3,1.7,0.4c33.1,8.5,81.9,8.1,152.4,0.9c72.3-9.8,111.1-25.8,120.1-30.1c2.3-0.7,3.4-0.7,5.2,0.1
				C324.1,322.8,324,323.6,319.3,325.3z"/>
		</g>
	</g>
</g>
</svg>
