<?xml version="1.0" encoding="utf-8"?>
<!-- Generator: Adobe Illustrator 24.0.0, SVG Export Plug-In . SVG Version: 6.00 Build 0)  -->
<svg version="1.1" id="Capa_1" xmlns="http://www.w3.org/2000/svg" xmlns:xlink="http://www.w3.org/1999/xlink" x="0px" y="0px"
	 viewBox="0 0 71.8 71.8" style="enable-background:new 0 0 71.8 71.8;" xml:space="preserve">
<style type="text/css">
	.st0{fill:url(#SVGID_1_);}
	.st1{fill:#FFFFFF;}
</style>
<g>
	<g>
		
			<linearGradient id="SVGID_1_" gradientUnits="userSpaceOnUse" x1="-495.039" y1="108.3687" x2="-495.039" y2="-44.277" gradientTransform="matrix(-1 0 0 1 -459.061 0)">
			<stop  offset="0" style="stop-color:#0070FF"/>
			<stop  offset="1" style="stop-color:#00A9FF"/>
		</linearGradient>
		<circle class="st0" cx="36" cy="36.3" r="29.5"/>
	</g>
	<g>
		<g>
			<path class="st1" d="M28.6,49C28.6,49,28.6,49,28.6,49c-0.9-0.5-1.9-0.3-2.4,0.5l-0.1,0.1c-0.6,0.9-0.4,2.1,0.6,2.7
				c0,0,0.1,0,0.1,0.1c1,0.5,2.2,0.1,2.6-0.9l0-0.1C29.8,50.5,29.5,49.5,28.6,49z"/>
		</g>
		<g>
			<path class="st1" d="M23.7,44.6c-0.5-0.8-1.6-1-2.4-0.6l-0.1,0c-0.9,0.5-1.2,1.8-0.6,2.7c0,0,0.1,0.1,0.1,0.1
				c0.6,0.9,1.9,1,2.7,0.3l0.1-0.1C24.1,46.4,24.2,45.4,23.7,44.6C23.7,44.6,23.7,44.6,23.7,44.6z"/>
		</g>
		<g>
			<path class="st1" d="M35.9,17c-10.4,0-18.8,8.4-18.8,18.8c0,1.1,0.1,2.2,0.3,3.2c0.2,1.1,1.3,1.8,2.4,1.5l0,0
				c0.9-0.3,1.5-1.2,1.3-2.1c-1.3-7.4,3.2-14.8,10.6-17c8-2.3,16.3,2.2,18.7,10.2c0.1,0.2,0.1,0.5,0.2,0.7l-5.3,2.3
				c-0.3-2.3-1.2-4.2-2.7-5.7c-2.4-2.4-5.5-2.5-6-2.5c-0.6,0-4.1-0.1-6.8,2.3c-1.9,1.7-2.8,4.2-2.8,7.4c0,2.7,0.8,4.9,2.5,6.5
				c2.5,2.4,6,2.5,6.9,2.5c0.1,0,0.2,0,0.2,0h11.2c-1.9,2.4-4.5,4.2-7.6,5.2c-1.7,0.5-3.4,0.7-5.1,0.6c-1-0.1-1.8,0.6-2,1.6
				c-0.2,1.1,0.6,2.1,1.8,2.2c0.4,0,0.8,0,1.2,0c10.4,0,18.8-8.4,18.8-18.8C54.7,25.5,46.3,17,35.9,17z M36.5,42.1
				C36.5,42.1,36.5,42.1,36.5,42.1c-0.1,0-3.1,0.1-5-1.7c-1-1-1.5-2.4-1.5-4.3c0-2.3,0.6-4,1.8-5.1c1.8-1.7,4.5-1.5,4.5-1.5
				c0,0,0.1,0,0.1,0c0,0,0,0,0,0c0,0,2.3,0,3.9,1.7c1.3,1.3,1.9,3.2,1.9,5.7c0,0.5,0.3,1,0.7,1.3c0.4,0.3,1,0.3,1.5,0.1l6.5-2.8
				c0.1,2.3-0.4,4.5-1.3,6.6H36.5z"/>
		</g>
		<g>
			<g>
				<path class="st1" d="M69.1,37.1c0.5-0.7,0.5-1.6,0-2.3l-4-5.4c-0.5-0.7-0.7-1.5-0.6-2.3l0.7-6.7c0.1-0.9-0.4-1.7-1.2-2l-6.1-2.7
					c-0.7-0.3-1.3-0.9-1.7-1.7l-2.7-6.1c-0.3-0.7-1-1.2-1.8-1.2c-0.1,0-0.1,0-0.2,0l-6.7,0.7c-0.1,0-0.2,0-0.3,0
					c-0.7,0-1.4-0.2-1.9-0.6l-5.4-4c-0.3-0.2-0.7-0.4-1.2-0.4c-0.4,0-0.8,0.1-1.2,0.4l-5.5,4c-0.6,0.4-1.2,0.6-1.9,0.6
					c-0.1,0-0.2,0-0.3,0l-6.7-0.7c-0.1,0-0.1,0-0.2,0c-0.8,0-1.5,0.5-1.8,1.2l-2.7,6.1c-0.3,0.7-0.9,1.3-1.7,1.7l-6.1,2.7
					c-0.8,0.4-1.3,1.2-1.2,2L7.3,27c0.1,0.8-0.1,1.6-0.6,2.3l-4,5.4c-0.5,0.7-0.5,1.6,0,2.3l4,5.5c0.5,0.7,0.7,1.5,0.6,2.3l-0.7,6.7
					c-0.1,0.9,0.4,1.7,1.2,2l6.1,2.7c0.7,0.3,1.3,0.9,1.7,1.7l2.7,6.1c0.3,0.7,1,1.2,1.8,1.2c0.1,0,0.1,0,0.2,0l6.7-0.7
					c0.1,0,0.2,0,0.3,0c0.7,0,1.4,0.2,1.9,0.6l5.5,4c0.3,0.2,0.7,0.4,1.2,0.4c0.4,0,0.8-0.1,1.2-0.4l5.4-4c0.6-0.4,1.2-0.6,1.9-0.6
					c0.1,0,0.2,0,0.3,0l6.7,0.7c0.1,0,0.1,0,0.2,0c0.8,0,1.5-0.5,1.8-1.2l2.7-6.1c0.3-0.7,0.9-1.3,1.7-1.7l6.1-2.7
					c0.8-0.4,1.3-1.2,1.2-2l-0.7-6.7c-0.1-0.8,0.1-1.6,0.6-2.3L69.1,37.1z M61.6,42c-0.3,0.4-0.4,0.9-0.4,1.4l0.5,5.2
					c0.1,1.4-0.6,2.8-1.9,3.3l-4.8,2.1c-0.5,0.2-0.8,0.6-1,1l-2.1,4.8c-0.5,1.2-1.7,1.9-3,1.9c-0.1,0-0.2,0-0.3,0l-5.2-0.5
					c-0.1,0-0.1,0-0.2,0c-0.4,0-0.8,0.1-1.2,0.4l-4.2,3.1c-0.6,0.4-1.2,0.6-1.9,0.6c-0.7,0-1.4-0.2-1.9-0.6l-4.2-3.1
					c-0.3-0.2-0.7-0.4-1.2-0.4c-0.1,0-0.1,0-0.2,0l-5.2,0.5c-0.1,0-0.2,0-0.3,0c-1.3,0-2.5-0.8-3-1.9L17.7,55c-0.2-0.4-0.6-0.8-1-1
					l-4.8-2.1c-1.3-0.6-2.1-1.9-1.9-3.4l0.6-5.1c0.1-0.5-0.1-1-0.4-1.4l-3.1-4.2c-0.8-1.2-0.8-2.7,0-3.9l3.1-4.2
					c0.3-0.4,0.4-0.9,0.4-1.4L10,23.2c-0.2-1.4,0.6-2.8,1.9-3.3l4.8-2.1c0.4-0.2,0.8-0.6,1-1l2.1-4.8c0.5-1.2,1.7-1.9,3-1.9
					c0.1,0,0.2,0,0.3,0l5.2,0.5c0.1,0,0.1,0,0.2,0c0.4,0,0.8-0.1,1.2-0.4l4.2-3c0.6-0.4,1.2-0.6,1.9-0.6c0.7,0,1.4,0.2,1.9,0.6
					l4.2,3.1c0.3,0.2,0.7,0.4,1.2,0.4c0.1,0,0.1,0,0.2,0l5.2-0.5c0.1,0,0.2,0,0.3,0c1.3,0,2.5,0.8,3,1.9l2.1,4.8
					c0.2,0.5,0.6,0.8,1,1l4.8,2.1c1.3,0.6,2.1,1.9,1.9,3.3l-0.6,5.2c-0.1,0.5,0.1,1,0.4,1.4l3.1,4.2c0.8,1.2,0.8,2.7,0,3.9L61.6,42z
					"/>
			</g>
		</g>
	</g>
</g>
</svg>
