<?xml version="1.0" encoding="utf-8"?>
<!-- Generator: Adobe Illustrator 24.0.0, SVG Export Plug-In . SVG Version: 6.00 Build 0)  -->
<svg version="1.1" id="Capa_1" xmlns="http://www.w3.org/2000/svg" xmlns:xlink="http://www.w3.org/1999/xlink" x="0px" y="0px"
	 viewBox="0 0 71.8 71.8" style="enable-background:new 0 0 71.8 71.8;" xml:space="preserve">
<style type="text/css">
	.st0{fill:#FFFFFF;}
</style>
<g>
	<g>
		<g>
			<path class="st0" d="M32.2,11.1L28,15.1l0-2c0-0.7-0.5-1.3-1.3-1.3s-1.3,0.5-1.3,1.3l-0.1,5.1c0,0.3,0.1,0.7,0.4,0.9
				c0.2,0.2,0.6,0.4,0.9,0.4l5.1,0.1c0.3,0,0.7-0.1,0.9-0.4c0.2-0.2,0.4-0.5,0.4-0.9c0-0.7-0.5-1.3-1.3-1.3l-2,0l4.2-4.1
				c2.8-2.7,7.1-2.6,9.8,0.2l3,3.1c0.5,0.5,1.3,0.5,1.8,0c0.5-0.5,0.5-1.3,0-1.8l-3-3.1C42,7.5,36,7.4,32.2,11.1z"/>
		</g>
		<g>
			<path class="st0" d="M52.6,20.5L37.5,35.1c-0.5,0.5-0.5,1.3,0,1.8L52,52c0.5,0.5,1.3,0.5,1.8,0l15.1-14.6c0.5-0.5,0.5-1.3,0-1.8
				L54.4,20.6C53.9,20.1,53.1,20,52.6,20.5z M66.2,36.6L52.9,49.3L40.2,36.1l13.3-12.8L66.2,36.6L66.2,36.6z"/>
		</g>
		<g>
			<path class="st0" d="M40,52.2c-0.7,0-1.3,0.5-1.3,1.3c0,0.7,0.5,1.3,1.3,1.3l2,0l-4.2,4.1c-2.8,2.7-7.1,2.6-9.8-0.2l-3-3.1
				c-0.5-0.5-1.3-0.5-1.8,0c-0.5,0.5-0.5,1.3,0,1.8l3,3.1c3.6,3.8,9.6,3.9,13.4,0.3l4.2-4.1l0,2c0,0.7,0.5,1.3,1.3,1.3
				c0.3,0,0.7-0.1,0.9-0.4c0.2-0.2,0.4-0.5,0.4-0.9l0.1-5.1c0-0.7-0.5-1.3-1.3-1.3L40,52.2z"/>
		</g>
		<g>
			<path class="st0" d="M4.6,36.1C4.9,35.9,5,35.5,5,35.2c0-0.3-0.1-0.7-0.4-0.9c-0.2-0.2-0.6-0.4-0.9-0.4S3.1,34,2.9,34.3
				c-0.2,0.2-0.4,0.6-0.4,0.9s0.1,0.7,0.4,0.9c0.2,0.2,0.6,0.4,0.9,0.4C4.1,36.5,4.4,36.3,4.6,36.1z"/>
		</g>
		<g>
			<circle class="st0" cx="11.3" cy="27.9" r="1.3"/>
		</g>
		<g>
			<circle class="st0" cx="7.5" cy="31.5" r="1.3"/>
		</g>
		<g>
			<circle class="st0" cx="15.1" cy="24.3" r="1.3"/>
		</g>
		<g>
			<path class="st0" d="M18,19.7c-0.2,0.2-0.4,0.6-0.4,0.9c0,0.3,0.1,0.7,0.4,0.9c0.2,0.2,0.6,0.4,0.9,0.4c0.3,0,0.7-0.1,0.9-0.4
				c0.2-0.2,0.4-0.6,0.4-0.9S20,20,19.8,19.7c-0.2-0.2-0.6-0.4-0.9-0.4C18.6,19.3,18.2,19.5,18,19.7z"/>
		</g>
		<g>
			<circle class="st0" cx="29.8" cy="32" r="1.3"/>
		</g>
		<g>
			<circle class="st0" cx="26.2" cy="28.2" r="1.3"/>
		</g>
		<g>
			<circle class="st0" cx="22.5" cy="24.4" r="1.3"/>
		</g>
		<g>
			<path class="st0" d="M32.5,34.8c-0.2,0.2-0.4,0.6-0.4,0.9s0.1,0.7,0.4,0.9c0.2,0.2,0.6,0.4,0.9,0.4c0.3,0,0.7-0.1,0.9-0.4
				c0.2-0.2,0.4-0.6,0.4-0.9s-0.1-0.7-0.4-0.9c-0.2-0.2-0.6-0.4-0.9-0.4C33.1,34.5,32.8,34.6,32.5,34.8z"/>
		</g>
		<g>
			<circle class="st0" cx="29.7" cy="39.4" r="1.3"/>
		</g>
		<g>
			<circle class="st0" cx="25.9" cy="43" r="1.3"/>
		</g>
		<g>
			<circle class="st0" cx="22.1" cy="46.7" r="1.3"/>
		</g>
		<g>
			<path class="st0" d="M19.2,51.2c0.2-0.2,0.4-0.6,0.4-0.9c0-0.3-0.1-0.7-0.4-0.9C19,49.2,18.7,49,18.3,49c-0.3,0-0.7,0.1-0.9,0.4
				C17.2,49.6,17,50,17,50.3s0.1,0.7,0.4,0.9c0.2,0.2,0.6,0.4,0.9,0.4C18.6,51.6,18.9,51.5,19.2,51.2z"/>
		</g>
		<g>
			<circle class="st0" cx="14.7" cy="46.5" r="1.3"/>
		</g>
		<g>
			<circle class="st0" cx="11" cy="42.8" r="1.3"/>
		</g>
		<g>
			<circle class="st0" cx="7.4" cy="39" r="1.3"/>
		</g>
	</g>
</g>
</svg>
