<?xml version="1.0" encoding="utf-8"?>
<!-- Generator: Adobe Illustrator 24.0.0, SVG Export Plug-In . SVG Version: 6.00 Build 0)  -->
<svg version="1.1" id="Capa_1" xmlns="http://www.w3.org/2000/svg" xmlns:xlink="http://www.w3.org/1999/xlink" x="0px" y="0px"
	 viewBox="0 0 71.8 71.8" style="enable-background:new 0 0 71.8 71.8;" xml:space="preserve">
<style type="text/css">
	.st0{fill:#FFFFFF;}
</style>
<g>
	<g>
		<g>
			<path class="st0" d="M52.3,19.5c0.5-0.5,0.5-1.3,0-1.8L36.7,2.1c-0.5-0.5-1.3-0.5-1.8,0L2.4,34.6c-0.5,0.5-0.5,1.3,0,1.8
				l32.5,32.5c0.5,0.5,1.3,0.5,1.8,0l15.7-15.7c0.5-0.5,0.5-1.3,0-1.8s-1.3-0.5-1.8,0L35.8,66.2L5.1,35.5L35.8,4.8l14.7,14.7
				C51,20,51.8,20,52.3,19.5z"/>
		</g>
		<g>
			<path class="st0" d="M67.4,34.6c-0.2,0.2-0.4,0.6-0.4,0.9c0,0.3,0.1,0.6,0.4,0.9s0.6,0.4,0.9,0.4s0.6-0.1,0.9-0.4
				c0.2-0.2,0.4-0.6,0.4-0.9c0-0.3-0.1-0.6-0.4-0.9s-0.6-0.4-0.9-0.4C68,34.2,67.6,34.4,67.4,34.6z"/>
		</g>
		<g>
			<circle class="st0" cx="65.3" cy="38.5" r="1.2"/>
		</g>
		<g>
			<circle class="st0" cx="62.3" cy="41.5" r="1.2"/>
		</g>
		<g>
			<circle class="st0" cx="59.4" cy="44.4" r="1.2"/>
		</g>
		<g>
			<path class="st0" d="M55.5,46.5c-0.2,0.2-0.4,0.6-0.4,0.9c0,0.3,0.1,0.6,0.4,0.9s0.6,0.4,0.9,0.4c0.3,0,0.6-0.1,0.9-0.4
				s0.4-0.6,0.4-0.9c0-0.3-0.1-0.6-0.4-0.9s-0.6-0.4-0.9-0.4C56,46.2,55.7,46.3,55.5,46.5z"/>
		</g>
		<g>
			<circle class="st0" cx="53.4" cy="44.4" r="1.2"/>
		</g>
		<g>
			<circle class="st0" cx="50.4" cy="41.4" r="1.2"/>
		</g>
		<g>
			<circle class="st0" cx="47.4" cy="38.5" r="1.2"/>
		</g>
		<g>
			<path class="st0" d="M43.6,34.6c-0.2,0.2-0.4,0.6-0.4,0.9c0,0.3,0.1,0.6,0.4,0.9c0.2,0.2,0.6,0.4,0.9,0.4c0.3,0,0.6-0.1,0.9-0.4
				s0.4-0.6,0.4-0.9c0-0.3-0.1-0.6-0.4-0.9s-0.6-0.4-0.9-0.4C44.1,34.2,43.8,34.4,43.6,34.6z"/>
		</g>
		<g>
			<circle class="st0" cx="47.4" cy="32.5" r="1.2"/>
		</g>
		<g>
			<circle class="st0" cx="53.4" cy="26.6" r="1.2"/>
		</g>
		<g>
			<circle class="st0" cx="50.4" cy="29.5" r="1.2"/>
		</g>
		<g>
			<path class="st0" d="M56.4,22.3c-0.3,0-0.6,0.1-0.9,0.4c-0.2,0.2-0.4,0.6-0.4,0.9s0.1,0.6,0.4,0.9s0.6,0.4,0.9,0.4
				c0.3,0,0.6-0.1,0.9-0.4c0.2-0.2,0.4-0.6,0.4-0.9s-0.1-0.6-0.4-0.9C57,22.5,56.7,22.3,56.4,22.3z"/>
		</g>
		<g>
			<circle class="st0" cx="65.3" cy="32.5" r="1.2"/>
		</g>
		<g>
			<circle class="st0" cx="59.4" cy="26.6" r="1.2"/>
		</g>
		<g>
			<circle class="st0" cx="62.3" cy="29.5" r="1.2"/>
		</g>
		<g>
			<path class="st0" d="M18.3,34.2l5.5-5.5c0.5-0.5,0.5-1.3,0-1.8s-1.3-0.5-1.8,0l-7.6,7.6c-0.5,0.5-0.5,1.3,0,1.8l7.7,7.7
				c0.5,0.5,1.3,0.5,1.8,0s0.5-1.3,0-1.8l-5.5-5.5h19.3c0.3,0,0.7-0.1,0.9-0.4s0.4-0.5,0.4-0.9c0-0.7-0.6-1.3-1.3-1.3L18.3,34.2z"/>
		</g>
	</g>
</g>
</svg>
