<?xml version="1.0" encoding="utf-8"?>
<!-- Generator: Adobe Illustrator 24.0.0, SVG Export Plug-In . SVG Version: 6.00 Build 0)  -->
<svg version="1.1" id="Capa_1" xmlns="http://www.w3.org/2000/svg" xmlns:xlink="http://www.w3.org/1999/xlink" x="0px" y="0px"
	 viewBox="0 0 71.8 71.8" style="enable-background:new 0 0 71.8 71.8;" xml:space="preserve">
<style type="text/css">
	.st0{fill:#FFFFFF;}
</style>
<g>
	<g>
		<g>
			<path class="st0" d="M26.4,67.4l19.1-30.6c0.2-0.3,0.2-0.6,0.2-0.9c0-0.3-0.1-0.6-0.2-0.9L26.4,4.4c-0.3-0.5-0.8-0.8-1.4-0.8
				c-0.6,0-1.1,0.3-1.4,0.8L4.6,35c-0.3,0.5-0.3,1.2,0,1.7l19.1,30.6c0.3,0.5,0.8,0.8,1.4,0.8C25.6,68.1,26.1,67.8,26.4,67.4z
				 M7.8,35.9L25,8.3l17.2,27.5L25,63.4L7.8,35.9z"/>
		</g>
		<g>
			<path class="st0" d="M34.3,5.3c0,0.4,0.2,0.9,0.5,1.2c0.3,0.3,0.7,0.5,1.2,0.5c0.4,0,0.9-0.2,1.2-0.5c0.3-0.3,0.5-0.7,0.5-1.2
				c0-0.4-0.2-0.9-0.5-1.2c-0.3-0.3-0.7-0.5-1.2-0.5c-0.4,0-0.9,0.2-1.2,0.5C34.4,4.4,34.3,4.8,34.3,5.3z"/>
		</g>
		<g>
			<path class="st0" d="M37.7,11.2c0.5,0.8,1.5,1,2.2,0.5c0.5-0.3,0.8-0.8,0.8-1.4c0-0.3-0.1-0.6-0.2-0.9C40,8.7,39,8.5,38.2,9
				C37.5,9.5,37.2,10.5,37.7,11.2z"/>
		</g>
		<g>
			<path class="st0" d="M47.2,26.5c0.5,0.8,1.5,1,2.2,0.5c0.5-0.3,0.8-0.8,0.8-1.4c0-0.3-0.1-0.6-0.2-0.9c-0.5-0.8-1.5-1-2.2-0.5
				C47,24.8,46.7,25.8,47.2,26.5z"/>
		</g>
		<g>
			<path class="st0" d="M50.4,31.6c0.5,0.8,1.5,1,2.2,0.5c0.5-0.3,0.8-0.8,0.8-1.4c0-0.3-0.1-0.6-0.2-0.9c-0.5-0.8-1.5-1-2.2-0.5
				C50.2,29.9,49.9,30.9,50.4,31.6z"/>
		</g>
		<g>
			<path class="st0" d="M44.1,21.4c0.5,0.8,1.5,1,2.2,0.5c0.5-0.3,0.8-0.8,0.8-1.4c0-0.3-0.1-0.6-0.2-0.9c-0.5-0.8-1.5-1-2.2-0.5
				C43.8,19.7,43.6,20.7,44.1,21.4z"/>
		</g>
		<g>
			<path class="st0" d="M40.9,16.3c0.5,0.8,1.5,1,2.2,0.5c0.5-0.3,0.8-0.8,0.8-1.4c0-0.3-0.1-0.6-0.2-0.9c-0.5-0.8-1.5-1-2.2-0.5
				C40.6,14.6,40.4,15.6,40.9,16.3z"/>
		</g>
		<g>
			<path class="st0" d="M53.8,37c0.3,0.3,0.7,0.5,1.2,0.5c0.4,0,0.9-0.2,1.2-0.5s0.5-0.7,0.5-1.2c0-0.4-0.2-0.9-0.5-1.2
				c-0.3-0.3-0.7-0.5-1.2-0.5c-0.4,0-0.9,0.2-1.2,0.5c-0.3,0.3-0.5,0.7-0.5,1.2C53.3,36.3,53.5,36.7,53.8,37z"/>
		</g>
		<g>
			<path class="st0" d="M50.9,42.4c0.8,0.5,1.8,0.2,2.2-0.5c0.2-0.3,0.2-0.6,0.2-0.9c0-0.5-0.3-1.1-0.8-1.4
				c-0.8-0.5-1.8-0.2-2.2,0.5C49.9,40.9,50.2,41.9,50.9,42.4z"/>
		</g>
		<g>
			<path class="st0" d="M38.2,62.8c0.8,0.5,1.8,0.2,2.2-0.5c0.2-0.3,0.2-0.6,0.2-0.9c0-0.5-0.3-1.1-0.8-1.4
				c-0.8-0.5-1.8-0.2-2.2,0.5S37.5,62.3,38.2,62.8z"/>
		</g>
		<g>
			<path class="st0" d="M47.8,47.5c0.8,0.5,1.8,0.2,2.2-0.5c0.2-0.3,0.2-0.6,0.2-0.9c0-0.5-0.3-1.1-0.8-1.4
				c-0.8-0.5-1.8-0.2-2.2,0.5S47,47,47.8,47.5z"/>
		</g>
		<g>
			<path class="st0" d="M44.6,52.6c0.8,0.5,1.8,0.2,2.2-0.5c0.2-0.3,0.2-0.6,0.2-0.9c0-0.5-0.3-1.1-0.8-1.4
				c-0.8-0.5-1.8-0.2-2.2,0.5C43.6,51.1,43.8,52.1,44.6,52.6z"/>
		</g>
		<g>
			<path class="st0" d="M41.4,57.7c0.8,0.5,1.8,0.2,2.2-0.5c0.2-0.3,0.2-0.6,0.2-0.9c0-0.5-0.3-1.1-0.8-1.4
				c-0.8-0.5-1.8-0.2-2.2,0.5C40.4,56.2,40.6,57.2,41.4,57.7z"/>
		</g>
		<g>
			<path class="st0" d="M37.5,66.5c0-0.4-0.2-0.9-0.5-1.2c-0.3-0.3-0.7-0.5-1.2-0.5c-0.4,0-0.9,0.2-1.2,0.5
				c-0.3,0.3-0.5,0.7-0.5,1.2s0.2,0.9,0.5,1.2c0.3,0.3,0.7,0.5,1.2,0.5c0.4,0,0.9-0.2,1.2-0.5C37.4,67.3,37.5,66.9,37.5,66.5z"/>
		</g>
		<g>
			<path class="st0" d="M45.4,6.1l18.5,29.8L45.4,65.7c-0.5,0.8-0.2,1.8,0.5,2.2c0.8,0.5,1.8,0.2,2.2-0.5l19.1-30.6
				c0.2-0.3,0.2-0.6,0.2-0.9s-0.1-0.6-0.2-0.9L48.2,4.4c-0.5-0.8-1.5-1-2.2-0.5C45.2,4.3,44.9,5.4,45.4,6.1z"/>
		</g>
	</g>
</g>
</svg>
