<?xml version="1.0" encoding="utf-8"?>
<!-- Generator: Adobe Illustrator 24.0.0, SVG Export Plug-In . SVG Version: 6.00 Build 0)  -->
<svg version="1.1" id="Capa_1" xmlns="http://www.w3.org/2000/svg" xmlns:xlink="http://www.w3.org/1999/xlink" x="0px" y="0px"
	 viewBox="0 0 133.7 86.6" style="enable-background:new 0 0 133.7 86.6;" xml:space="preserve">
<style type="text/css">
	.st0{fill:#FF8200;}
</style>
<g>
	<polygon class="st0" points="126.1,37.4 126.1,48.2 115.3,48.2 115.3,59 104.7,59 104.7,48.2 93.9,48.2 93.9,37.4 104.7,37.4 
		104.7,26.7 115.3,26.7 115.3,37.4 	"/>
	<path class="st0" d="M81.6,42.2c0,13.7-4.5,24-13.4,31c-7,4.7-14.5,7.1-22.4,7.1c-7.3,0-14-1.8-20.1-5.5
		c-7.1-4.7-12.2-11.1-15.2-19.1C9,51.6,8.2,47.5,8.2,43.5c0-4.8,0.6-8.7,1.7-11.7c2.3-7.8,6.9-14.2,13.8-19.1
		c6.6-4.9,13.9-7.3,22-7.3h1.5c7.6,0,15.4,3.1,23.4,9.3c-1.4,1.8-4.2,4.7-8.3,8.7c-0.6,0.7-1,1.1-1.2,1.1
		c-5.2-3.4-10.5-5.1-15.9-5.1c-5.4,0-9.9,1.6-13.6,4.8c-2.4,1.6-4.4,3.8-5.9,6.7c-2,3.7-3.1,7.7-3.1,12.1c0,6.1,1.8,11.4,5.4,15.7
		c5.1,5.3,11,7.9,17.8,7.9c5.2,0,10-1.5,14.4-4.6c3.3-3.2,5.2-5.8,5.5-7.7c1-1.8,1.5-3.1,1.5-3.7c-13.5-0.1-20.7-0.1-21.4-0.2V37.6
		c0-0.1,11.9-0.2,35.8-0.2v0.2C81.6,39.3,81.6,40.8,81.6,42.2z"/>
</g>
</svg>
