<?xml version="1.0" encoding="utf-8"?>
<!-- Generator: Adobe Illustrator 24.0.0, SVG Export Plug-In . SVG Version: 6.00 Build 0)  -->
<svg version="1.1" id="Capa_1" xmlns="http://www.w3.org/2000/svg" xmlns:xlink="http://www.w3.org/1999/xlink" x="0px" y="0px"
	 viewBox="0 0 78 81.4" style="enable-background:new 0 0 78 81.4;" xml:space="preserve">
<style type="text/css">
	.st0{fill:#FF8D00;}
</style>
<g>
	<path class="st0" d="M40,9.5v12.7h12.7c1.7,0,2.6-2.1,1.4-3.3L43.3,8.1C42.1,6.9,40,7.8,40,9.5z"/>
	<path class="st0" d="M32.5,57.4c0.3-7.8,4.8-14.8,11.2-19.1c5.4-3.6,10.4-4.4,15-4v-4.1c0-2-1.6-3.6-3.6-3.6H37.8
		c-1.2,0-2.2-1-2.2-2.2V7c0-1.9-1.5-3.4-3.4-3.4H4c-1.2,0-2.2,1-2.2,2.2v70.1c0,1.2,1,2.2,2.2,2.2h38.8
		C36.3,73.4,32.2,65.9,32.5,57.4z"/>
	<path class="st0" d="M62.4,56.1h-3.7v-3.7c0-1.2-1-2.2-2.2-2.2s-2.2,1-2.2,2.2v3.7h-3.7c-1.2,0-2.2,1-2.2,2.2c0,1.2,1,2.2,2.2,2.2
		h3.7v3.7c0,1.2,1,2.2,2.2,2.2s2.2-1,2.2-2.2v-3.7h3.7c1.2,0,2.2-1,2.2-2.2C64.5,57,63.6,56.1,62.4,56.1z"/>
	<path class="st0" d="M56.5,38.5c-10.9,0-19.7,8.8-19.7,19.7s8.8,19.7,19.7,19.7s19.7-8.8,19.7-19.7S67.4,38.5,56.5,38.5z
		 M56.5,73.6c-8.5,0-15.3-6.9-15.3-15.3s6.9-15.3,15.3-15.3s15.3,6.9,15.3,15.3S65,73.6,56.5,73.6z"/>
</g>
</svg>
