<?xml version="1.0" encoding="utf-8"?>
<!-- Generator: Adobe Illustrator 24.0.0, SVG Export Plug-In . SVG Version: 6.00 Build 0)  -->
<svg version="1.1" id="Capa_1" xmlns="http://www.w3.org/2000/svg" xmlns:xlink="http://www.w3.org/1999/xlink" x="0px" y="0px"
	 viewBox="0 0 128.9 81.4" style="enable-background:new 0 0 128.9 81.4;" xml:space="preserve">
<style type="text/css">
	.st0{fill:#FF8D00;}
</style>
<g>
	<g>
		<g>
			<path class="st0" d="M67.1,2.9h-6.7c-0.9,0-1.7,0.7-1.7,1.7v6.7c0,0.9,0.7,1.7,1.7,1.7h6.7c0.9,0,1.7-0.7,1.7-1.7V4.5
				C68.8,3.6,68,2.9,67.1,2.9z"/>
		</g>
	</g>
	<g>
		<g>
			<g>
				<path class="st0" d="M63.9,35.1c-2.8,0-5.1,2.3-5.1,5.1c0,2.8,2.3,5.1,5.1,5.1c2.8,0,5.1-2.3,5.1-5.1
					C69.1,37.5,66.8,35.1,63.9,35.1z"/>
			</g>
		</g>
		<g>
			<g>
				<path class="st0" d="M87.5,39C87,38.4,76.9,25,63.9,25S40.8,38.4,40.4,39c-0.6,0.8-0.6,1.8,0,2.6c0.4,0.6,10.6,13.9,23.5,13.9
					S87,42.2,87.5,41.6C88,40.8,88,39.8,87.5,39z M63.9,51.3c-6.1,0-11.1-5-11.1-11.1s5-11.1,11.1-11.1S75,34.2,75,40.3
					S70,51.3,63.9,51.3z"/>
			</g>
		</g>
	</g>
	<g>
		<g>
			<g>
				<path class="st0" d="M67.2,68.6h-6.7c-0.9,0-1.7,0.7-1.7,1.7V77c0,0.9,0.7,1.7,1.7,1.7h6.7c0.9,0,1.7-0.7,1.7-1.7v-6.7
					C68.9,69.4,68.2,68.6,67.2,68.6z"/>
			</g>
		</g>
		<g>
			<g>
				<path class="st0" d="M64,58.5c-0.9,0-1.7,0.7-1.7,1.7v3.3c0,0.9,0.7,1.7,1.7,1.7c0.9,0,1.7-0.7,1.7-1.7v-3.3
					C65.7,59.2,64.9,58.5,64,58.5z"/>
			</g>
		</g>
	</g>
	<g>
		<g>
			<path class="st0" d="M63.9,16.3c-0.9,0-1.7,0.7-1.7,1.7v3.3c0,0.9,0.7,1.7,1.7,1.7c0.9,0,1.7-0.7,1.7-1.7V18
				C65.6,17.1,64.8,16.3,63.9,16.3z"/>
		</g>
	</g>
	<g>
		<g>
			<path class="st0" d="M2.8,37.7v6.7c0,0.9,0.7,1.7,1.7,1.7h6.7c0.9,0,1.7-0.7,1.7-1.7v-6.7c0-0.9-0.7-1.7-1.7-1.7H4.4
				C3.5,36,2.8,36.7,2.8,37.7z"/>
		</g>
	</g>
	<g>
		<g>
			<path class="st0" d="M17.6,40.9c0,0.9,0.7,1.7,1.7,1.7h3.3c0.9,0,1.7-0.7,1.7-1.7c0-0.9-0.7-1.7-1.7-1.7h-3.3
				C18.3,39.2,17.6,40,17.6,40.9z"/>
		</g>
	</g>
	<g>
		<g>
			<path class="st0" d="M29.4,40.9c0,0.9,0.7,1.7,1.7,1.7h3.3c0.9,0,1.7-0.7,1.7-1.7c0-0.9-0.7-1.7-1.7-1.7h-3.3
				C30.2,39.2,29.4,40,29.4,40.9z"/>
		</g>
	</g>
	<g>
		<g>
			<g>
				<path class="st0" d="M126.7,44.3v-6.7c0-0.9-0.7-1.7-1.7-1.7h-6.7c-0.9,0-1.7,0.7-1.7,1.7v6.7c0,0.9,0.7,1.7,1.7,1.7h6.7
					C125.9,46,126.7,45.3,126.7,44.3z"/>
			</g>
		</g>
		<g>
			<g>
				<path class="st0" d="M111.9,41.1c0-0.9-0.7-1.7-1.7-1.7h-3.3c-0.9,0-1.7,0.7-1.7,1.7s0.7,1.7,1.7,1.7h3.3
					C111.1,42.8,111.9,42,111.9,41.1z"/>
			</g>
		</g>
		<g>
			<g>
				<path class="st0" d="M100,41.1c0-0.9-0.7-1.7-1.7-1.7H95c-0.9,0-1.7,0.7-1.7,1.7s0.7,1.7,1.7,1.7h3.3C99.3,42.8,100,42,100,41.1
					z"/>
			</g>
		</g>
	</g>
</g>
</svg>
