<?xml version="1.0" encoding="utf-8"?>
<!-- Generator: Adobe Illustrator 24.0.0, SVG Export Plug-In . SVG Version: 6.00 Build 0)  -->
<svg version="1.1" id="Capa_1" xmlns="http://www.w3.org/2000/svg" xmlns:xlink="http://www.w3.org/1999/xlink" x="0px" y="0px"
	 viewBox="0 0 80.4 38.2" style="enable-background:new 0 0 80.4 38.2;" xml:space="preserve">
<style type="text/css">
	.st0{fill:#FF8D00;}
	.st1{fill-rule:evenodd;clip-rule:evenodd;fill:#FF8D00;}
</style>
<g>
	<path class="st0" d="M30.1,17.6c0-0.1,0-0.2,0-0.4v-1.4c0-3.3-1.3-6.4-3.6-8.8c-2.3-2.3-5.4-3.6-8.8-3.6C14.4,3.4,11.4,4.7,9,7
		c-2.3,2.3-3.6,5.4-3.6,8.8v1.4c0,0.1,0,0.3,0,0.4c-2.1,0.2-3.8,2.4-3.8,5.2c0,2.8,1.7,5,3.8,5.2C6.1,28.7,7,29.2,8,29.2
		c1.7,0,3.1-1.4,3.1-3.1v-6.7c0-1.7-1.3-3-2.9-3.1v-0.6c0-5.4,4.2-9.7,9.6-9.7c5.4,0,9.6,4.2,9.6,9.7v0.6c-1.6,0.1-2.9,1.4-2.9,3.1
		v6.7c0,1.1,0.6,2.1,1.5,2.6c-1,1.5-2.4,2.7-4.1,3.4c-0.5-0.5-1.1-0.8-1.9-0.8h-3.5c-1.4,0-2.5,1.1-2.5,2.5v0c0,1.4,1.1,2.5,2.5,2.5
		H20c1,0,1.9-0.6,2.3-1.5c1.7-0.6,3.2-1.6,4.5-2.8c1-1,1.7-2,2.3-3.2c0.4-0.2,0.7-0.5,1-0.9c2.1-0.2,3.8-2.4,3.8-5.2
		C33.9,20,32.2,17.8,30.1,17.6z"/>
	<g>
		<path class="st0" d="M44.3,35.7l2.4-9c-1.4-2.5-2.1-5.2-2.1-8.1c0-9.2,7.5-16.7,16.7-16.7C70.5,1.9,78,9.3,78,18.6
			c0,9.2-7.5,16.7-16.7,16.7c-2.8,0-5.5-0.7-7.9-2L44.3,35.7z M61.3,32.1c7.5,0,13.5-6.1,13.5-13.5C74.8,11.1,68.8,5,61.3,5
			c-7.5,0-13.5,6.1-13.5,13.5c0,2.5,0.7,4.9,2,7l0.4,0.6l-1.4,5l5.1-1.4"/>
		<path class="st1" d="M67.5,20.9c-0.7-0.4-1.6-0.9-2.4-0.5c-0.6,0.3-1,1.2-1.4,1.7c-0.2,0.3-0.5,0.3-0.8,0.2
			c-2.3-0.9-4.1-2.5-5.4-4.6c-0.2-0.3-0.2-0.6,0.1-0.9c0.4-0.5,0.9-1,1-1.6c0.1-0.6-0.2-1.3-0.4-1.9c-0.3-0.7-0.7-1.7-1.4-2.1
			c-0.6-0.4-1.5-0.2-2.1,0.3c-1,0.8-1.5,2.1-1.5,3.3c0,0.4,0,0.7,0.1,1.1c0.2,0.8,0.6,1.6,1,2.3c0.3,0.6,0.7,1.1,1.1,1.6
			c1.2,1.7,2.8,3.2,4.6,4.3c0.9,0.5,1.9,1,2.9,1.4c1.1,0.4,2.1,0.8,3.3,0.5c1.3-0.2,2.5-1,3-2.2c0.1-0.4,0.2-0.8,0.1-1.1
			C69.2,21.7,68.1,21.3,67.5,20.9z"/>
	</g>
</g>
</svg>
