<?xml version="1.0" encoding="utf-8"?>
<!-- Generator: Adobe Illustrator 24.0.0, SVG Export Plug-In . SVG Version: 6.00 Build 0)  -->
<svg version="1.1" id="Capa_1" xmlns="http://www.w3.org/2000/svg" xmlns:xlink="http://www.w3.org/1999/xlink" x="0px" y="0px"
	 viewBox="0 0 68.2 68.1" style="enable-background:new 0 0 68.2 68.1;" xml:space="preserve">
<style type="text/css">
	.st0{fill:#CBCBCB;}
</style>
<g>
	<path class="st0" d="M49.3,44.2c-1.9-2.1-4.4-2.2-6.5-0.4c-1.6,1.4-3.2,2.8-4.8,4.3c-0.4,0.4-0.8,0.5-1.3,0.2
		c-0.9-0.6-2-1.1-2.9-1.7c-4.2-3-7.7-6.8-10.7-10.9c-1.5-2.1-2.8-4.3-3.7-6.7c-0.2-0.5-0.1-0.8,0.3-1.2c1.6-1.4,3.2-2.8,4.7-4.2
		c2.2-2,2.3-4.4,0.4-6.6c-1.1-1.3-2.2-2.5-3.3-3.8c-1.1-1.3-2.3-2.6-3.5-3.9c-1.9-2.1-4.4-2.2-6.5-0.3c-1.6,1.4-3.2,2.9-4.8,4.3
		c-1.5,1.3-2.3,2.9-2.6,4.8c-0.4,3.1,0.2,6.2,1.1,9.1c1.9,6.1,5,11.7,8.9,16.8c5.2,6.9,11.6,12.6,19.1,16.8c3.4,1.9,7,3.4,10.9,3.8
		c2.7,0.3,5.1-0.2,7.1-2.3c1.4-1.4,2.9-2.6,4.4-3.9c2.2-1.9,2.3-4.4,0.4-6.6C53.9,49.3,51.6,46.8,49.3,44.2L49.3,44.2L49.3,44.2z"/>
	<path class="st0" d="M49.7,33.7c1.4-0.2,2.4-1.5,2-2.9c-0.8-3.3-2.4-6.4-4.7-9c-2.5-2.8-5.6-4.8-9-5.9c-1.4-0.4-2.8,0.4-3.1,1.8
		l0,0c-0.2,1.2,0.5,2.3,1.6,2.7c2.7,0.9,5,2.5,6.9,4.6c1.4,1.6,2.7,4.8,3.4,6.9C47.2,33.1,48.4,33.9,49.7,33.7L49.7,33.7z"/>
	<path class="st0" d="M55.9,14C51.4,8.9,45.6,5.4,39.2,3.6c-1.3-0.4-2.7,0.5-3,1.8l0,0c-0.2,1.2,0.5,2.4,1.7,2.8
		c5.6,1.5,10.6,4.6,14.5,9c3.7,4.1,6.1,9.1,7.2,14.5c0.2,1.2,1.4,2.1,2.6,1.9l0,0c1.4-0.2,2.3-1.5,2.1-2.8
		C63,24.5,60.2,18.8,55.9,14L55.9,14L55.9,14z"/>
</g>
</svg>
