<?xml version="1.0" encoding="utf-8"?>
<!-- Generator: Adobe Illustrator 24.0.0, SVG Export Plug-In . SVG Version: 6.00 Build 0)  -->
<svg version="1.1" id="Capa_1" xmlns="http://www.w3.org/2000/svg" xmlns:xlink="http://www.w3.org/1999/xlink" x="0px" y="0px"
	 viewBox="0 0 500 264.7" style="enable-background:new 0 0 500 264.7;" xml:space="preserve">
<style type="text/css">
	.st0{fill:none;}
	.st1{fill:url(#SVGID_1_);}
	.st2{fill:#FF7900;}
	.st3{fill:url(#SVGID_2_);}
	.st4{fill:url(#SVGID_3_);}
	.st5{fill:url(#SVGID_4_);}
	.st6{fill:url(#SVGID_5_);}
</style>
<g>
	<line class="st0" x1="272.1" y1="180.1" x2="273.9" y2="180.2"/>
	<linearGradient id="SVGID_1_" gradientUnits="userSpaceOnUse" x1="241.4896" y1="258.5185" x2="241.4896" y2="-20.0219">
		<stop  offset="0" style="stop-color:#FF9200"/>
		<stop  offset="0.3408" style="stop-color:#FF5A00"/>
		<stop  offset="0.5411" style="stop-color:#EF4214"/>
		<stop  offset="0.9614" style="stop-color:#C80648"/>
		<stop  offset="1" style="stop-color:#C4004D"/>
	</linearGradient>
	<path class="st1" d="M251.8,211.5c-0.9,0-1.6-0.1-2.1-0.4c-1.4-0.6-2.4-1.8-3.1-3.6c-0.9-2.3-1.8-6.3-2.7-11.8l-0.2-1.2
		c-1.2-6.7-2-11.1-2.9-21.1c-0.1-0.9-0.9-1.4-1.6-1.4c-0.3,0-0.9,0.1-1.3,0.8c-2.8,4.8-6.4,8.7-10.9,11.8c-2.7,1.9-5.4,3.4-8,4.5
		c-2.5,1-5,1.4-7.3,1.4c-2.2,0-4.4-0.4-6.5-1.3c-6.4-2.6-12.6-9.2-18.3-19.5c-0.9-1.6-1.8-3.4-2.6-5.2c-0.4-1-1.3-1.1-1.7-1.1
		c-0.9,0-1.8,0.6-1.8,1.8l0,0.1c-0.1,9.5,0.6,17.5,2.2,23.8c2.1,8.1,2,13.7-0.2,17.1c-1.3,1.9-3.2,3.1-5.7,3.5
		c-0.2,0-0.5,0.1-0.9,0.1c-0.8,0-2-0.1-3.4-0.4c-5.5-1-9.2-2.4-11.5-4.1c-1.5-1.2-3.2-3.1-4.9-5.7c-5.6-7.9-13.9-27.2-24.8-57.2
		c-1.5-4.2-2.9-7.9-4-11.1c-0.4,2-0.8,4.1-1.3,6.3c-6.2,30.7-11.4,49.5-15.8,57.7c-1.3,2.6-2.7,4.5-4,5.8c-2,1.8-5.6,3.3-10.9,4.4
		c-1.5,0.3-2.7,0.5-3.6,0.5c-0.3,0-0.5,0-0.7,0c-7.3-1-10.3-7.8-9.1-20.3c0.6-6.3,0.1-14.3-1.5-23.8c-0.9-5.2-2.1-11-3.8-17.3
		c-4.5-17.4-10.9-35.6-19-54c-4.3-9.7-8.7-18-13.2-24.6c-1.3-2-1.5-4.2-0.4-6.2c1.2-2.2,3.7-3.7,6.5-3.7c1.1,0,2.2,0.2,3.3,0.7
		l0.2,0.1c8.2,3.7,15.7,10.7,22.3,20.7c10.8,21.4,18.9,44.7,24,69.2l0.1,0.2c0.1,0.6,0.7,0.7,0.8,0.7c0.4,0,0.8-0.2,0.9-0.8
		l2.8-25.5c1.2-10.5,2.4-17.7,3.4-21.4l0-0.2c1.1-3.8,2-7,3.6-10.2c1.2-2.3,4.6-6.4,5.5-7.1c3.2-2.5,7.6-3.6,10.4-3.6
		c0.5,0,0.9,0,1.3,0.1c5.3,0.7,9.4,6.2,11.4,15c0.1,0.2,0.8,2.6,1.7,5.6c2.1,7,5.7,18.7,7.7,26l6.9,25.6c0.2,0.6,0.6,0.6,0.8,0.6
		c0.3,0,0.8-0.2,0.9-0.8c1.3-24.6,5.7-48,13.1-69.6c5.1-10.3,11.5-17.5,19.1-21.4l0.2-0.1c1.1-0.5,2.2-0.7,3.4-0.7
		c2.8,0,5.6,1.5,7,3.8c1.1,1.9,1.2,3.9,0.3,5.9c-2.3,4.5-7,15.6-9.2,22.1c0.4-0.1,0.8-0.2,1.4-0.3c1.8-0.5,4.6-1.2,8.5-1.2
		c1.8,0,3.8,0.2,5.8,0.5c6.2,1.1,12.3,4,18.3,8.4l0.2,0.2c0.5,0.4,1,0.6,1.5,0.6c0.8,0,1.5-0.4,1.9-1c0.4-0.6,0.6-1.3,0.4-2
		c-2.4-9.4-5.2-18.8-8.5-27.9c-0.1-0.2-0.1-0.4,0-0.6c0.1-0.2,0.3-0.3,0.5-0.4l2.5-0.7c4.3-1.1,9.7-2,16.1-2.6
		c0.5-0.1,1.1-0.1,1.6-0.1c5.9,0,10.2,3.4,12.9,10.2c0.6,1.4,1.1,3.1,1.5,5c2.5,10.3,4.7,21.3,6.5,32.7c0.6,7.4,1,10.9,1.3,12.4
		c0.2-0.3,0.4-0.6,0.7-1c5.3-7.4,10.2-16.5,14.7-27.1c3.7-9,6-16.1,6.9-21.1c1.9-14.1,3.1-22.1,3.6-24.2c0.8-3.1,2.1-5.1,3.8-5.8
		c0.4-0.2,0.8-0.4,1.3-0.5c0.5-0.1,0.9-0.2,1.4-0.2c3.4,0,7.2,2.9,11.6,9c1.7,2.2,3,4.4,3.9,6.7c1.9,4.7,2.1,9.9,0.8,15.3
		c-1.8,6.4-6.4,15.8-13.8,27.9c-7.3,12.1-14.5,22.1-21.3,29.9l-4.8,5.5c6.1,6.9,11.8,13.3,17.1,18.9c0.4-4.8,2-17.8,4.1-24
		c2.5-7.3,5.8-13,9.6-17c3-2.9,8.1-4.9,15.1-6c0.8-0.1,1.7-0.2,2.5-0.2c4.2,0,8.4,1.7,12.4,5c3.6,3,6.1,7,7.4,11.6l0.8,3.5
		c0,0,0,0.1,0,0.1c0.4,10.3-7.7,20.8-24.2,31.4c-1.9,1.2-3,3.4-2.8,5.6c0.4,5.1,1,9,1.8,11.7c1.6,5.3,5,7.9,10.6,7.9
		c1,0,2.1-0.1,3.2-0.3c7.1-1.1,12.8-8.9,16.7-23.2c2.6-9.2,5.2-19.1,7-29.6c0.1-2.4,0.3-4.3,0.6-6.5c0.2-1.8,0.4-3.8,0.6-6.6
		c1.1-12.9,1.1-14.2,1-14.9c0-1.4,0.7-2.5,1.6-3.5c0.9-1,1.9-1.7,2.9-1.8c0.8-0.1,1.5-0.2,2.2-0.2c6.2,0,10.5,4.5,12.9,13.2
		c1.3,4.8,1,7.5-0.4,20.9l-0.4,3.9l0,0.7c0,0,0.1,0,0.1,0c0.1,0,0.1,0,0.2,0c0.9-0.1,3.3-1.2,10-5.6c21.2-13.6,30.2-28.9,26.6-45.4
		c-0.9-3.3-4-6.9-9.4-10.8c-4.7-3.5-10.8-5.2-18.1-5.2c-1,0-2,0-3,0.1c-1.1,0.1-2.3,0.2-3.5,0.4c-7.6,1.2-26.3,10.4-26.4,14.7
		c-0.2,5.3-1.8,8.2-4.8,8.7c-0.3,0-0.6,0.1-0.9,0.1c-0.3,0-0.6,0-0.9-0.1c-3.7-0.5-6.3-1.2-7.8-2.2c-2.1-1.4-3.4-3.1-3.9-5.1
		c-0.7-2.6,0-5.7,2.1-9.3c3.4-5.9,22.4-18,37.6-20.7c3.5-0.5,7.4-0.8,11.4-0.8c9.9,0,19.2,1.7,24.9,4.5c9.3,4.7,16,11.9,19.9,21.2
		c0.6,1.4,1.1,2.9,1.5,4.4c2.1,8.3,1,17.5-3.2,27.4c-4.9,11.7-16.8,23-35.2,33.6c-4.8,2.6-7,3.9-7.9,4.5c0.6,0.6,2.4,2,7.5,4.9
		c5.5,3.2,9.3,5,11.4,5.5c1.2,0.3,2.4,0.4,3.6,0.4c0.8,0,1.7-0.1,2.5-0.2c6.1-0.9,11.8-5.3,17.1-13c3-4.7,5.2-7,7.1-7.3
		c0,0,0.1,0,0.1,0c3.2,0,4.3,1.7,4.7,3.1c0.6,2.3-0.1,5.8-2.3,10.7c-6.1,13.5-15.4,21.3-27.5,23.2c-0.7,0.1-1.5,0.2-2.4,0.2
		c-2.8,0-6.3-0.6-10.4-1.8c-4.9-1.3-9.8-3.4-14.6-6l-1.4-0.7c-4.4-2.4-13.3-7.2-17.5-7.7c-2.2,7.4-5,13.6-8.3,18.3
		c-6.3,9.3-14.4,15.1-23.9,17.4c-0.9,0.2-1.9,0.4-2.9,0.6c-2,0.3-4,0.5-6.1,0.5c-0.5,0-1,0-1.4,0c-4-0.1-7.7-0.8-10.9-2
		c0,0-0.1,0-0.1-0.1l-1.7-1c-2.4-1.5-4.6-3.3-6.5-5.5c-2.5-2.8-5.6-6.7-6.5-8.6c-8-7.3-18-16.6-29.7-27.8
		c-0.1,43.8-0.2,46.2-0.3,47.5c0,0.2,0,0.3,0,0.6c-0.1,2.7-2.8,4.2-3.3,4.5c-0.9,0.4-1.6,0.8-2.2,1c-0.7,0.2-1.3,0.4-1.8,0.6
		C255.1,211.1,253.2,211.5,251.8,211.5z M207.3,107.6c-3.8,0-8,2.9-8,7.6c0,1.6,0,3.3,0,5.2c0.1,11,0.7,19.2,1.7,24.5
		c1.7,7.4,3.5,12.8,5.5,16.1c2,3.3,3.3,5.3,3.8,6c2,2.8,5,3.1,6.2,3.1c1.2,0,2.3-0.3,3-0.7c3.3-2.4,4.3-5.4,5.9-14.5
		c1.1-5.5,1.3-11.2,0.6-16.9c-0.5-4.2-1.2-7.6-2.1-10.2c-1.2-3.6-3.9-8.2-7.9-13.8c-0.9-1.3-1.8-2.3-2.5-3.1l-0.5-0.6
		c-0.1-0.2-0.3-0.3-0.4-0.5C210.8,107.9,208.7,107.6,207.3,107.6z M322.5,125c-3.8,0-7.5,3.6-11.1,10.5c-2.3,4.3-4.1,9.8-5.3,16.3
		c-0.1,0.4,0,0.7,0.2,1c0.2,0.3,0.6,0.5,0.9,0.5c0.2,0,0.4-0.1,0.6-0.2c12.1-7.2,18.6-13.3,19.4-18.1c0.3-1.9,0.4-3.6,0.3-4.9
		C327.2,126.6,325.6,125,322.5,125l0.1-0.7L322.5,125z"/>
	<path class="st2" d="M297.3,44.8c3.1,0,6.7,2.9,11,8.7c1.7,2.2,3,4.3,3.9,6.6c1.8,4.6,2.1,9.5,0.7,14.8
		c-1.8,6.4-6.4,15.6-13.7,27.7c-7.3,12.1-14.4,22-21.2,29.8l-5.3,6c6.7,7.6,12.9,14.5,18.8,20.7c0,0,0,0,0,0
		c0-1.1,1.7-18.2,4.2-25.4c2.5-7.2,5.7-12.8,9.4-16.7c2.9-2.8,7.8-4.7,14.7-5.8c0.8-0.1,1.6-0.2,2.4-0.2c4,0,8,1.6,12,4.8
		c3.5,3,5.9,6.7,7.1,11.3l0.8,3.5c0.4,10-7.5,20.3-23.8,30.7c-2.1,1.4-3.3,3.8-3.1,6.3c0.4,5.1,1,9.1,1.8,11.9
		c1.7,5.6,5.4,8.5,11.3,8.5c1,0,2.1-0.1,3.3-0.3c7.5-1.2,13.3-9.1,17.3-23.8c2.5-9,5.2-19.1,7-29.7c0.2-4.4,0.7-7,1.2-13.2
		c1.1-13,1.1-14.2,1-15c0-1.1,0.7-2.1,1.4-3c0.8-0.9,1.6-1.4,2.5-1.6c0.7-0.1,1.4-0.2,2.1-0.2c5.9,0,9.9,4.2,12.1,12.7
		c1.3,5,0.9,7.7-0.8,24.6l0,0.9c0.1,0.4,0.4,0.7,0.9,0.7c0.1,0,0.2,0,0.3,0c1.4-0.2,4.8-2.1,10.3-5.7c21.6-13.9,30.6-29.3,26.9-46.2
		c-0.9-3.5-4.1-7.2-9.6-11.3c-4.9-3.6-11-5.4-18.5-5.4c-1,0-2,0-3.1,0.1c-1.2,0.1-2.3,0.2-3.5,0.4c-7.7,1.2-26.9,10.4-27,15.4
		c-0.2,4.9-1.6,7.6-4.2,8c-0.2,0-0.5,0.1-0.7,0.1c-0.3,0-0.5,0-0.8-0.1c-3.6-0.4-6.1-1.1-7.5-2c-1.9-1.3-3.1-2.9-3.6-4.7
		c-0.6-2.4,0-5.3,2-8.8c3.4-5.8,22.3-17.7,37.1-20.3c3.5-0.5,7.3-0.8,11.2-0.8c9.1,0,18.6,1.5,24.5,4.4c9.2,4.7,15.7,11.6,19.6,20.8
		c0.6,1.4,1.1,2.8,1.5,4.3c2.1,8.2,1,17.1-3.2,26.9c-4.9,11.6-16.5,22.7-34.9,33.3c-5.2,2.8-8,4.5-8.6,4.9c0.2,0.8,2.9,2.8,8.1,5.7
		c5.6,3.2,9.4,5.1,11.6,5.6c1.3,0.3,2.5,0.4,3.8,0.4c0.9,0,1.7-0.1,2.6-0.2c6.3-1,12.2-5.4,17.6-13.4c2.8-4.4,5-6.8,6.6-7
		c0,0,0,0,0,0c2.2,0,3.5,0.8,3.9,2.5c0.6,2.1-0.2,5.5-2.3,10.2c-6.1,13.4-15,20.9-26.9,22.8c-0.7,0.1-1.4,0.2-2.2,0.2
		c-2.7,0-6.1-0.6-10.2-1.8c-4.8-1.3-9.6-3.3-14.4-5.9c-4.1-2.2-15.3-8.5-19.8-8.5c-2.2,7.6-5,13.9-8.4,18.7
		c-6.3,9.2-14.1,14.9-23.4,17.1c-0.9,0.2-1.9,0.4-2.9,0.6c-1.9,0.3-3.9,0.5-6,0.5c-0.5,0-0.9,0-1.4,0c-4-0.1-7.5-0.8-10.7-2l-1.7-1
		c-2.4-1.4-4.5-3.2-6.4-5.3c-2.6-3-5.8-6.9-6.4-8.5c-8.2-7.4-18.6-17.1-31.1-29.1c-0.1,51.8-0.2,47.7-0.3,49.8
		c-0.1,2.1-2.1,3.4-2.9,3.8c-0.8,0.4-1.5,0.7-2.2,1c-0.6,0.2-1.2,0.4-1.7,0.5c-2.3,0.6-4.1,0.9-5.5,0.9c-0.8,0-1.4-0.1-1.8-0.3
		c-1.2-0.6-2.1-1.6-2.7-3.2c-0.9-2.2-1.8-6.1-2.6-11.7c-1.3-7.4-2.2-11.7-3.1-22.3c-0.1-1.3-1.2-2.1-2.3-2.1c-0.8,0-1.5,0.4-2,1.2
		c-2.7,4.7-6.3,8.5-10.7,11.6c-2.7,1.9-5.3,3.4-7.9,4.4c-2.4,0.9-4.8,1.4-7.1,1.4c-2.1,0-4.2-0.4-6.2-1.2
		c-6.3-2.6-12.2-8.9-17.9-19.1c-0.9-1.6-1.8-3.3-2.6-5.1c-0.5-1.1-1.4-1.5-2.3-1.5c-1.3,0-2.6,0.9-2.6,2.5l0,0.1
		c-0.1,9.6,0.6,17.6,2.3,24c3.1,12,1.3,18.6-5.3,19.7c-0.2,0-0.5,0-0.7,0c-0.8,0-1.9-0.1-3.3-0.4c-5.3-1-9-2.3-11.2-4
		c-1.5-1.1-3.1-3-4.8-5.5c-5.6-7.9-13.8-26.9-24.7-57c-1.9-5.3-3.6-9.8-4.9-13.5c-0.6,2.7-1.2,5.6-1.8,8.9
		c-6.2,30.3-11.4,49.5-15.7,57.5c-1.3,2.6-2.6,4.4-3.9,5.6c-1.9,1.7-5.4,3.1-10.5,4.2c-1.5,0.3-2.6,0.5-3.4,0.5c-0.2,0-0.4,0-0.6,0
		c-6.8-0.9-9.6-7.4-8.4-19.5c0.6-6.4,0.1-14.4-1.5-24c-0.9-5.3-2.2-11.1-3.8-17.4c-4.5-17.6-10.8-35.6-19-54.1
		c-4.3-9.8-8.7-18.1-13.2-24.7c-2.8-4.2,0.7-8.7,5.4-8.7c1,0,2,0.2,3,0.6c0.1,0,0.1,0,0.2,0.1c8.1,3.6,15.4,10.5,22,20.5
		c10.8,21.4,18.7,44.4,23.9,68.9l0.1,0.2c0.2,0.9,0.9,1.3,1.6,1.3c0.8,0,1.5-0.5,1.6-1.4l2.8-25.5c1.3-10.6,2.4-17.7,3.3-21.3
		c1.1-3.9,2-7.1,3.6-10.2c1.1-2.2,4.4-6.2,5.3-6.9c3-2.3,7.1-3.4,10-3.4c0.4,0,0.8,0,1.2,0.1c4.6,0.6,8.8,5.4,10.8,14.4
		c0.2,0.9,6.5,21,9.4,31.6l6.9,25.6c0.2,0.8,0.9,1.2,1.5,1.2c0.8,0,1.6-0.5,1.6-1.5c1.3-24.6,5.7-47.7,13-69.4
		c5-10.1,11.2-17.1,18.7-20.9c0.1,0,0.1,0,0.2-0.1c1-0.5,2-0.7,3-0.7c4.6,0,8.7,4.4,6.6,8.6c-2.4,4.8-7.5,16.9-9.6,23.3
		c0.1,0,0.2,0,0.3,0c1.7,0,4.7-1.6,10.6-1.6c1.7,0,3.6,0.1,5.7,0.5c6.1,1.1,12.1,3.9,18,8.3c0.1,0.1,0.2,0.1,0.2,0.2
		c0.6,0.5,1.3,0.7,2,0.7c1.9,0,3.6-1.7,3.1-3.9c-2.4-9.5-5.2-18.8-8.5-28l2.5-0.7c4.3-1.1,9.6-2,16-2.6c0.5,0,1-0.1,1.5-0.1
		c5.6,0,9.7,3.2,12.2,9.7c0.6,1.4,1.1,3.1,1.5,4.9c2.5,10.4,4.6,21.3,6.5,32.6c0.7,8.4,1.3,13.1,1.6,13.8l0,0.1
		c0.1,0,0.7-0.8,1.7-2.1c5.3-7.5,10.3-16.6,14.8-27.2c3.7-9.1,6-16.2,6.9-21.3c1.9-14,3.1-22,3.6-24.2c0.7-2.9,1.9-4.7,3.4-5.3
		c0.4-0.2,0.7-0.4,1.2-0.5C296.5,44.8,296.9,44.8,297.3,44.8 M216.5,170.8c1.4,0,2.7-0.3,3.4-0.9c3.6-2.5,4.6-5.7,6.2-15
		c1.1-5.6,1.3-11.3,0.6-17.1c-0.5-4.3-1.2-7.7-2.2-10.4c-1.2-3.6-3.9-8.3-8-14c-1.2-1.6-2.2-2.8-3-3.8c-0.2-0.2-0.3-0.4-0.5-0.5
		c-1.7-1.7-3.7-2.4-5.8-2.4c-4.4,0-8.7,3.4-8.8,8.3c0,1.6,0,3.3,0,5.2c0.1,11.1,0.7,19.3,1.7,24.6c1.7,7.6,3.6,13,5.6,16.4
		c2.1,3.3,3.3,5.4,3.8,6.1C211.5,169.9,214.2,170.8,216.5,170.8 M307.2,154c0.3,0,0.7-0.1,1-0.3c12.3-7.3,18.9-13.5,19.8-18.6
		c0.4-2,0.4-3.7,0.3-5.1c-0.5-3.8-2.4-5.7-5.7-5.7c0,0-0.1,0-0.1,0c-4.1,0-8,3.7-11.8,10.9c-2.3,4.5-4.1,9.9-5.4,16.5
		C305.1,152.9,306.1,154,307.2,154 M297.3,43.3L297.3,43.3c-0.5,0-1.1,0.1-1.6,0.2c-0.5,0.1-1,0.3-1.4,0.6c-2,0.8-3.4,2.9-4.2,6.2
		c-0.5,2.2-1.7,10.1-3.7,24.3c-0.8,5-3.1,12-6.8,21c-4.3,10.2-9.1,19.1-14.2,26.4c-0.2-1.9-0.6-5.2-1-10.5c0,0,0-0.1,0-0.1
		c-1.8-11.3-4-22.3-6.5-32.7c-0.5-1.9-1-3.6-1.6-5.1c-2.8-7.1-7.4-10.7-13.6-10.7c-0.5,0-1.1,0-1.6,0.1c-6.4,0.6-11.9,1.5-16.2,2.6
		c0,0,0,0-0.1,0l-2.5,0.7c-0.4,0.1-0.7,0.4-0.9,0.8c-0.2,0.4-0.2,0.8-0.1,1.2c3.3,9.1,6.1,18.5,8.5,27.8c0.2,0.7-0.1,1.1-0.3,1.4
		c-0.3,0.4-0.8,0.7-1.4,0.7c-0.4,0-0.7-0.1-1.1-0.4l-0.3-0.2c-6.1-4.6-12.3-7.4-18.6-8.6c-2.1-0.3-4.1-0.5-6-0.5
		c-4,0-6.8,0.7-8.7,1.2c0,0,0,0,0,0c2.4-6.6,6.6-16.6,8.7-20.7c1.1-2.1,1-4.5-0.3-6.6c-1.6-2.5-4.5-4.2-7.6-4.2
		c-1.3,0-2.5,0.3-3.7,0.8l-0.2,0.1c-7.8,4-14.3,11.2-19.4,21.6c0,0.1-0.1,0.1-0.1,0.2c-7.4,21.6-11.8,45.1-13.1,69.8
		c0,0.1,0,0.1-0.1,0.1c-0.1,0-0.1,0-0.1-0.1l-6.9-25.6c-2-7.3-5.6-19-7.7-26c-0.9-2.8-1.6-5.3-1.7-5.6c-2-9.1-6.4-14.7-12-15.5
		c-0.4-0.1-0.9-0.1-1.4-0.1c-3,0-7.5,1.2-10.9,3.7c-1.1,0.9-4.5,5.1-5.7,7.3c-1.7,3.2-2.6,6.5-3.7,10.3l0,0.2
		c-1,3.7-2.1,11-3.4,21.6l-2.8,25.5c0,0.1,0,0.1-0.1,0.1c-0.1,0-0.1,0-0.1-0.1l-0.1-0.2c-5.2-24.6-13.3-47.9-24-69.3
		c0-0.1-0.1-0.1-0.1-0.1c-6.7-10.2-14.3-17.3-22.6-21l-0.2-0.1c-1.2-0.5-2.3-0.7-3.5-0.7c-3,0-5.8,1.6-7.1,4.1c-1.2,2.2-1,4.8,0.5,7
		c4.4,6.6,8.8,14.8,13.1,24.5c8.1,18.3,14.5,36.5,19,53.8c1.6,6.3,2.9,12.1,3.7,17.3c1.6,9.4,2.1,17.3,1.5,23.6
		c-1.3,13,1.9,20.1,9.7,21.2c0.2,0,0.5,0,0.8,0c0.9,0,2.1-0.2,3.7-0.5c5.5-1.2,9.1-2.7,11.2-4.6c1.4-1.3,2.8-3.3,4.2-6
		c4.4-8.2,9.6-27.1,15.9-57.9c0.3-1.3,0.5-2.5,0.8-3.7c1,2.6,2,5.5,3.1,8.6c11.1,30.5,19.2,49.3,24.9,57.4c1.8,2.6,3.5,4.6,5.1,5.8
		c2.4,1.8,6.2,3.2,11.8,4.3c1.5,0.3,2.7,0.4,3.6,0.4c0.4,0,0.7,0,1-0.1c2.8-0.5,4.9-1.8,6.3-3.9c2.3-3.6,2.4-9.4,0.3-17.7
		c-1.6-6.2-2.3-14.2-2.2-23.6l0-0.1c0-0.8,0.7-1.1,1.1-1.1c0.3,0,0.7,0.1,1,0.7c0.8,1.8,1.7,3.6,2.6,5.3
		c5.8,10.5,12.1,17.1,18.6,19.8c2.2,0.9,4.4,1.3,6.7,1.3c2.5,0,5-0.5,7.6-1.5c2.7-1,5.5-2.6,8.2-4.6c4.5-3.1,8.2-7.2,11.1-12
		c0.2-0.3,0.4-0.4,0.7-0.4c0.3,0,0.8,0.2,0.9,0.8c0.9,10.1,1.7,14.5,2.9,21.2l0.2,1.3c0.9,5.6,1.8,9.6,2.7,12c0.8,1.9,1.9,3.3,3.5,4
		c0.7,0.3,1.5,0.4,2.5,0.4c1.5,0,3.4-0.3,5.8-1c0.5-0.1,1.2-0.3,1.9-0.6c0.7-0.2,1.4-0.6,2.3-1c0.6-0.3,3.6-2,3.7-5.1
		c0-0.2,0-0.4,0-0.6c0.1-1.3,0.2-3.7,0.3-45.8c11.1,10.6,20.7,19.6,28.4,26.5c1.3,2.6,5.7,7.6,6.6,8.6c1.9,2.2,4.2,4.1,6.7,5.6
		l1.7,1c0.1,0,0.2,0.1,0.2,0.1c3.3,1.3,7.1,2,11.2,2.1c0.5,0,1,0,1.5,0c2.1,0,4.2-0.2,6.2-0.5c1.1-0.2,2.1-0.4,3-0.6
		c9.7-2.3,17.9-8.2,24.3-17.7c3.3-4.6,6-10.7,8.2-17.9c4.3,0.8,12.8,5.4,16.6,7.5c0.5,0.3,1,0.5,1.4,0.7c4.9,2.6,9.8,4.7,14.7,6
		c4.2,1.2,7.8,1.8,10.6,1.8c0.9,0,1.7-0.1,2.5-0.2c12.4-1.9,21.8-9.8,28.1-23.6c2.2-5.1,3-8.7,2.3-11.2c-0.4-1.4-1.5-3.6-5.3-3.6
		c-0.1,0-0.2,0-0.2,0c-2.1,0.3-4.4,2.7-7.6,7.7c-5.1,7.5-10.7,11.8-16.5,12.7c-0.8,0.1-1.6,0.2-2.4,0.2c-1.1,0-2.3-0.1-3.5-0.4
		c-1.4-0.3-4.4-1.5-11.2-5.4c-3.7-2.1-5.6-3.4-6.6-4.1c1.1-0.7,3.2-1.9,7-3.9c18.6-10.7,30.5-22.2,35.6-34c4.3-10,5.4-19.4,3.2-27.9
		c-0.4-1.5-0.9-3.1-1.6-4.5c-4-9.5-10.8-16.7-20.3-21.5c-5.8-2.9-15.2-4.6-25.2-4.6c-4,0-8,0.3-11.5,0.8
		c-14.4,2.6-34.3,14.4-38.1,21c-2.2,3.8-2.9,7.1-2.1,9.9c0.6,2.2,2,4.1,4.2,5.6c1.7,1.1,4.3,1.8,8.2,2.3c0.3,0,0.7,0.1,1,0.1
		c0.3,0,0.7,0,1-0.1c3.4-0.5,5.3-3.7,5.5-9.4c0-0.9,2.1-3.7,9.9-7.8c5.7-3,12.2-5.6,15.9-6.1c1.1-0.2,2.3-0.3,3.4-0.4
		c1-0.1,2-0.1,3-0.1c7.1,0,13.1,1.7,17.6,5.1c5.2,3.8,8.2,7.3,9.1,10.4c3.5,16.1-5.4,31.1-26.3,44.6c-5.6,3.7-8.1,4.9-9.1,5.3
		l0.4-3.7c1.4-13.5,1.7-16.3,0.4-21.2c-2.4-9.1-7-13.8-13.6-13.8c-0.7,0-1.5,0.1-2.3,0.2c-1.3,0.2-2.4,0.9-3.4,2.1
		c-0.9,1.1-1.8,2.4-1.8,4c0,0.7,0.1,2-1,14.9c-0.2,2.8-0.4,4.8-0.6,6.6c-0.2,2.2-0.4,4.1-0.6,6.6c-1.8,10.4-4.4,20.3-7,29.4
		c-3.9,14-9.3,21.6-16.1,22.7c-1.1,0.2-2.1,0.2-3.1,0.2c-5.2,0-8.4-2.4-9.9-7.4c-0.7-2.6-1.3-6.5-1.7-11.6c-0.2-2,0.8-3.9,2.4-4.9
		c16.7-10.7,25-21.5,24.5-32c0-0.1,0-0.2,0-0.3l-0.8-3.5c-1.3-4.9-3.9-8.9-7.6-12.1c-4.2-3.4-8.5-5.2-12.9-5.2
		c-0.9,0-1.8,0.1-2.6,0.2c-7.3,1.1-12.4,3.2-15.5,6.2c0,0,0,0,0,0c-3.9,4.1-7.2,9.9-9.8,17.3c-1.9,5.6-3.4,16.8-4,22.5
		c-4.9-5.2-10.1-11-15.6-17.2l4.4-5c6.8-7.8,14-17.9,21.3-30c7.5-12.3,12-21.5,13.9-28.1c1.4-5.7,1.1-11-0.8-15.8
		c-0.9-2.4-2.3-4.7-4.1-6.9C304.9,46.3,300.9,43.3,297.3,43.3L297.3,43.3L297.3,43.3z M201.8,144.7c-1-5.2-1.6-13.4-1.7-24.3
		c0-1.9,0-3.6,0-5.2c0-4.2,3.8-6.8,7.3-6.8c1.3,0,3.1,0.3,4.7,2c0.1,0.1,0.3,0.3,0.4,0.4c0.2,0.2,0.3,0.4,0.5,0.6
		c0.7,0.9,1.6,1.8,2.5,3.1c4,5.5,6.6,10.1,7.8,13.6c0.9,2.5,1.7,5.9,2.1,10.1c0.6,5.6,0.4,11.2-0.6,16.6c-1.7,9.5-2.6,11.9-5.6,14
		c-0.4,0.3-1.3,0.6-2.6,0.6c-1.1,0-3.8-0.3-5.5-2.7c-0.5-0.7-1.7-2.7-3.8-6C205.2,157.4,203.4,152,201.8,144.7L201.8,144.7z
		 M307.2,152.5c-0.1,0-0.3-0.1-0.4-0.2c-0.1-0.1-0.1-0.2-0.1-0.4c1.2-6.4,3-11.8,5.3-16.1c3.5-6.6,7-10,10.5-10.1l0.1,0
		c1.8,0,3.8,0.5,4.2,4.4c0.1,1.3,0,2.9-0.3,4.7c-0.5,3.2-4.3,8.7-19.1,17.6C307.4,152.4,307.3,152.5,307.2,152.5L307.2,152.5z"/>
	<g>
		<g>
			
				<linearGradient id="SVGID_2_" gradientUnits="userSpaceOnUse" x1="2152.9246" y1="-2243.5962" x2="2162.3867" y2="-2243.5962" gradientTransform="matrix(0.5264 0.5017 -1.0439 0.9183 -3048.6831 1177.1821)">
				<stop  offset="0" style="stop-color:#FF9200"/>
				<stop  offset="0.3408" style="stop-color:#FF5A00"/>
				<stop  offset="0.5411" style="stop-color:#EF4214"/>
				<stop  offset="0.9614" style="stop-color:#C80648"/>
				<stop  offset="1" style="stop-color:#C4004D"/>
			</linearGradient>
			<path class="st3" d="M424.3,205c-1.5,0-2.6-0.6-3-1.6c-0.3-0.8-0.1-1.6,0.5-2.2c1.2-1.2,4.6-3,7-4.3c1-0.6,1.9-1.1,2.5-1.4
				c0.2-0.1,0.3-0.2,0.5-0.3c0.6-0.3,1-0.5,1.4-0.6c0.4-0.2,0.9-0.3,1.4-0.4c0.1,0,0.2,0,0.3,0c0.3,0,0.7,0.1,1.1,0.3
				c0.8,0.3,1.3,0.6,1.4,0.9l0,0c0,0,0.1,0.2-0.2,0.9c-0.1,0.2-0.5,1-3.6,3.7c-0.3,0.3-2.1,1.4-3.4,2.3c-1.1,0.7-2,1.3-2.3,1.5
				c-0.1,0.1-0.3,0.2-0.4,0.3l-0.4,0.2c-0.5,0.3-1,0.5-1.4,0.6C425.3,205,424.8,205,424.3,205L424.3,205z"/>
			<g>
				<path class="st2" d="M435,194.9c0.2,0,0.5,0.1,0.8,0.2c0.1,0,0.1,0.1,0.2,0.1c0.4,0.1,0.7,0.3,0.8,0.4c0,0.1,0,0.2-0.1,0.4
					c-0.1,0.1-0.5,0.9-3.4,3.4c-0.3,0.3-2.2,1.5-3.3,2.2c-1.1,0.7-2,1.3-2.3,1.6c-0.1,0.1-0.2,0.2-0.3,0.2l-0.4,0.2
					c-0.4,0.3-0.8,0.4-1.2,0.5c-0.5,0.1-0.9,0.1-1.3,0.1c-1.2,0-2-0.4-2.3-1.1c-0.2-0.5-0.1-1,0.3-1.4c1.1-1.1,4.6-3,6.9-4.2
					c1.1-0.6,2-1.1,2.5-1.4c0.1-0.1,0.3-0.2,0.4-0.2c0.6-0.3,1-0.5,1.3-0.6c0.4-0.2,0.8-0.3,1.3-0.4C434.9,195,435,194.9,435,194.9
					 M435,193.5c-0.2,0-0.3,0-0.5,0.1c-0.6,0.1-1.1,0.3-1.6,0.5c-0.4,0.2-0.9,0.4-1.5,0.7c-0.2,0.1-0.4,0.2-0.5,0.3
					c-1.8,1.1-7.9,4.1-9.7,5.8c-1.8,1.7-0.8,5,3,5c0.5,0,1-0.1,1.6-0.2c0.6-0.1,1.1-0.4,1.7-0.7l0.4-0.2c0.1-0.1,0.3-0.2,0.4-0.3
					c0.8-0.6,5.2-3.3,5.8-3.9c2.3-2,3.6-3.4,3.8-4c0.2-0.7,0.3-1.1,0.2-1.4c-0.2-0.5-0.8-1-1.7-1.3
					C435.9,193.6,435.5,193.5,435,193.5L435,193.5z"/>
			</g>
		</g>
		<g>
			<linearGradient id="SVGID_3_" gradientUnits="userSpaceOnUse" x1="-194.6663" y1="207.1948" x2="646.8057" y2="207.1948">
				<stop  offset="0" style="stop-color:#FF9200"/>
				<stop  offset="0.3408" style="stop-color:#FF5A00"/>
				<stop  offset="0.5411" style="stop-color:#EF4214"/>
				<stop  offset="0.9614" style="stop-color:#C80648"/>
				<stop  offset="1" style="stop-color:#C4004D"/>
			</linearGradient>
			<path class="st4" d="M180.7,251.8c-10.8,0-22-0.2-34.3-0.5c-48.4-1.4-84.7-7.5-107.9-18.2c-17.2-7.9-26.9-18.3-29-30.9
				c-1.8-10.8,0.1-20.4,5.5-27.7c4.7-6.3,11.8-10.7,19.2-11.7c1-0.1,1.9-0.2,2.8-0.2c1.5,0,2.9,0.2,4.2,0.5c1.1,0.3,2.1,0.7,3,1.3
				c2.7,1.6,4.3,4.2,4.4,7.3c0.2,4.8-3,10-8.8,14.1c-4.4,3.1-8.8,9.1-8.2,16.5c0.5,6,4.7,14.7,21.2,22.5c0.6,0.3,1.3,0.6,2,0.9
				c30.1,13.6,74.6,19.9,140.1,19.9c15.6,0,33-0.4,51.5-1.1c100.7-8,155.5-31.7,161.7-34.5c1.3-0.3,2.2-0.5,2.9-0.5
				c1,0,1.8,0.3,3,1.1c0.5,0.3,0.6,0.6,0.6,0.6c0,0.2-0.4,1.1-5.6,2.8C330.6,240.9,264.5,251.8,180.7,251.8z"/>
			<g>
				<path class="st2" d="M36.9,163.3c1.4,0,2.8,0.2,4,0.5c1,0.3,2,0.7,2.8,1.2c2.5,1.5,3.9,3.9,4,6.7c0.2,4.5-3,9.5-8.5,13.5
					c-4.6,3.3-9.2,9.5-8.5,17.2c0.6,6.2,4.8,15.2,21.6,23.1c0.7,0.3,1.3,0.6,2,0.9c30.2,13.6,74.8,19.9,140.4,19.9
					c15.6,0,33-0.4,51.5-1.1c0,0,0,0,0.1,0c100.5-7.9,155.4-31.7,161.9-34.6c1.2-0.3,2-0.5,2.6-0.5c0.8,0,1.5,0.3,2.6,1c0,0,0,0,0,0
					c-0.5,0.4-1.7,1.1-4.8,2.1c-78.2,26.9-144.2,37.8-227.9,37.8c-10.8,0-22-0.2-34.3-0.5c-48.3-1.4-84.5-7.5-107.6-18.1
					c-16.9-7.8-26.5-18-28.6-30.4c-1.8-10.6,0.1-20,5.4-27.2c4.6-6.2,11.5-10.4,18.7-11.4C35.1,163.4,36,163.3,36.9,163.3
					 M36.9,161.8c-0.9,0-1.9,0.1-2.9,0.2c-12.9,1.7-29.6,14.8-25.3,40.3c2.2,13,12.2,23.5,29.5,31.5c23.4,10.8,60.1,16.9,108.2,18.2
					c11.7,0.3,23.1,0.5,34.4,0.5c74.1,0,141.9-8.2,228.4-37.9c6.5-2.1,7-3.5,5.1-4.7c-1.2-0.8-2.2-1.2-3.4-1.2
					c-0.8,0-1.8,0.2-3.1,0.5c-12.8,5.8-67.2,27-161.5,34.5c-18.4,0.7-35.5,1.1-51.5,1.1c-63.5,0-109-5.9-139.8-19.8
					c-0.7-0.3-1.3-0.6-2-0.9c-28.2-13.3-22.7-30.7-12.9-37.8c10.9-7.8,11.5-18.3,4.3-22.6c-0.9-0.6-2-1-3.2-1.4
					C40,162,38.5,161.8,36.9,161.8L36.9,161.8z"/>
			</g>
		</g>
	</g>
	<g>
		
			<linearGradient id="SVGID_4_" gradientUnits="userSpaceOnUse" x1="-18781.8027" y1="-699.4895" x2="-18772.2051" y2="-699.4895" gradientTransform="matrix(-0.5023 -0.5786 0.9735 -0.8837 -8630.8447 -11425.7275)">
			<stop  offset="0" style="stop-color:#FF9200"/>
			<stop  offset="0.3408" style="stop-color:#FF5A00"/>
			<stop  offset="0.5411" style="stop-color:#EF4214"/>
			<stop  offset="0.9614" style="stop-color:#C80648"/>
			<stop  offset="1" style="stop-color:#C4004D"/>
		</linearGradient>
		<path class="st5" d="M114.2,59.6c-0.3,0-0.7-0.1-1.1-0.3c-0.9-0.4-1.2-0.7-1.2-0.8c0,0,0,0,0,0c0,0,0-0.1,0.1-0.5
			c0.4-0.3,2-1.2,3.1-1.9c1.6-0.9,3.3-1.9,4.2-2.6c0.5-0.3,1-0.7,1.6-1.1c0.1-0.1,0.2-0.1,0.3-0.2l0.3-0.1c0.4-0.2,0.8-0.3,1.1-0.3
			c0.2,0,0.4,0,0.6,0c2,0,3,0.9,3.3,1.7c0.2,0.5,0.1,1-0.3,1.4c-0.9,0.7-4.3,2-6.5,2.9c-1.3,0.5-2.2,0.9-2.8,1.1
			c-0.1,0.1-0.2,0.1-0.4,0.2c-0.5,0.2-0.9,0.3-1.2,0.4c-0.4,0.1-0.8,0.2-1.2,0.2C114.3,59.6,114.3,59.6,114.2,59.6z"/>
		<g>
			<path class="st2" d="M123.4,52.5c1.6,0,2.4,0.7,2.6,1.2c0.1,0.2,0.1,0.4-0.1,0.5c-0.8,0.7-4.2,2-6.3,2.8
				c-1.3,0.5-2.3,0.9-2.8,1.1c-0.1,0-0.2,0.1-0.3,0.1c-0.4,0.2-0.8,0.3-1.1,0.4c-0.3,0.1-0.7,0.1-1.1,0.2c-0.1,0-0.3,0-0.7-0.2
				c0,0-0.1,0-0.1-0.1c-0.2-0.1-0.4-0.2-0.5-0.3c0.6-0.4,1.8-1,2.7-1.6c1.6-0.9,3.3-1.9,4.3-2.6c0.4-0.3,1-0.7,1.6-1
				c0.1,0,0.2-0.1,0.2-0.1l0.3-0.1c0.3-0.1,0.6-0.2,0.9-0.3C123,52.5,123.2,52.5,123.4,52.5 M123.4,51c-0.2,0-0.4,0-0.7,0
				c-0.5,0-1,0.2-1.4,0.4l-0.3,0.1c-0.1,0.1-0.2,0.1-0.4,0.2c-0.6,0.4-1.2,0.8-1.7,1.1c-1.9,1.4-7.4,4.1-7.6,4.7
				c-0.2,0.5-0.2,0.9-0.1,1.1c0.2,0.5,0.7,0.9,1.5,1.2c0.5,0.3,1,0.4,1.4,0.4c0.1,0,0.1,0,0.2,0c0.5,0,0.9-0.1,1.3-0.2
				c0.3-0.1,0.7-0.2,1.2-0.4c0.2-0.1,0.3-0.1,0.4-0.2c1.5-0.7,8-2.9,9.4-4.1C128.4,54.1,127.2,51,123.4,51L123.4,51z"/>
		</g>
	</g>
	<linearGradient id="SVGID_5_" gradientUnits="userSpaceOnUse" x1="637.6134" y1="47.2294" x2="-43.0753" y2="47.2294">
		<stop  offset="0" style="stop-color:#FF9200"/>
		<stop  offset="0.3408" style="stop-color:#FF5A00"/>
		<stop  offset="0.5411" style="stop-color:#EF4214"/>
		<stop  offset="0.9614" style="stop-color:#C80648"/>
		<stop  offset="1" style="stop-color:#C4004D"/>
	</linearGradient>
	<path class="st6" d="M470.6,81.6c-1.2,0-2.4-0.1-3.5-0.4c-1-0.2-2-0.6-2.8-1c-2.9-1.4-4.6-3.8-4.9-6.5c-0.3-3.4,1.8-7.1,5.8-10.1
		c3.9-2.9,6-7.3,5.4-11.8c-0.7-5.1-5-12.6-21.6-19.1c-0.6-0.2-1.2-0.5-1.8-0.7c-26.5-9.9-63-14.5-115-14.5
		c-16.3,0-33.9,0.4-53.9,1.4c-86.4,7.1-131,26.3-136,28.6c-1.1,0.3-1.8,0.4-2.5,0.4c-0.9,0-1.6-0.2-2.7-0.8
		c-0.5-0.3-0.6-0.5-0.6-0.5h0c0,0,0.4-0.7,4.3-1.9c66.8-22.6,125.8-31.8,203.6-31.8c6.3,0,12.7,0.1,19.6,0.2
		c42.3,0.7,74.6,5.2,96.2,13.4c15.9,6.1,25.8,14.2,29.3,24c2.9,8.2,2.6,15.6-0.9,21.3c-3.2,5.2-8.9,8.8-15.2,9.6
		C472.3,81.5,471.4,81.6,470.6,81.6z"/>
	<g>
		<path class="st2" d="M344.3,13.6c6.3,0,12.7,0.1,19.6,0.2c42.2,0.7,74.4,5.1,95.9,13.3c15.7,6,25.4,13.9,28.8,23.6
			c2.8,8,2.5,15.2-0.8,20.7c-3.1,5-8.5,8.5-14.7,9.3c-0.8,0.1-1.7,0.2-2.5,0.2c-1.2,0-2.3-0.1-3.4-0.4c-0.9-0.2-1.8-0.5-2.7-0.9
			c-2.7-1.3-4.2-3.4-4.5-5.9c-0.3-3.2,1.7-6.6,5.5-9.4c4.2-3.1,6.3-7.7,5.7-12.5c-0.7-5.3-5.1-13.1-22.1-19.7
			c-0.6-0.2-1.2-0.5-1.8-0.7c-26.6-9.9-63.2-14.5-115.3-14.5c-16.3,0-34,0.4-54,1.4c0,0,0,0-0.1,0c-86.2,7.1-130.8,26.2-136.2,28.6
			c-1,0.3-1.7,0.4-2.2,0.4c-0.6,0-1.2-0.1-2-0.5c0.6-0.3,1.5-0.7,3.2-1.3C176.7,33.3,210.7,25,245,20
			C275,15.7,306.5,13.6,344.3,13.6L344.3,13.6 M344.2,12.1c-68.6,0-128.8,6.5-203.8,31.8c-5.4,1.7-5.6,2.8-3.8,3.8
			c1.1,0.6,2,0.9,3.1,0.9c0.8,0,1.6-0.2,2.7-0.5c10.3-4.7,54.9-21.9,135.8-28.6c19.4-0.9,37.4-1.4,53.9-1.4
			c50.5,0,87.8,4.4,114.8,14.4c0.6,0.2,1.2,0.5,1.8,0.7c26.2,10.2,23.7,24,16.1,29.6c-8.5,6.3-7.6,14.5-0.8,17.8
			c0.9,0.4,1.9,0.8,3,1c1.1,0.3,2.4,0.4,3.7,0.4c0.9,0,1.8-0.1,2.7-0.2c11-1.5,23.8-11.9,16.7-31.9c-3.6-10.2-13.7-18.4-29.7-24.5
			c-21.8-8.3-54.4-12.8-96.4-13.4C357.2,12.2,350.7,12.1,344.2,12.1L344.2,12.1z"/>
	</g>
</g>
</svg>
