<?xml version="1.0" encoding="utf-8"?>
<!-- Generator: Adobe Illustrator 24.0.0, SVG Export Plug-In . SVG Version: 6.00 Build 0)  -->
<svg version="1.1" id="Capa_1" xmlns="http://www.w3.org/2000/svg" xmlns:xlink="http://www.w3.org/1999/xlink" x="0px" y="0px"
	 viewBox="0 0 36.8 49.8" style="enable-background:new 0 0 36.8 49.8;" xml:space="preserve">
<style type="text/css">
	.st0{fill:#FFFFFF;}
</style>
<g>
	<g>
		<path class="st0" d="M8.8,17l4,3.9l-0.9,5.5c-0.1,0.4,0.1,0.8,0.4,1c0.3,0.2,0.7,0.3,1.1,0.1l5-2.6l5,2.6c0.3,0.2,0.8,0.2,1.1-0.1
			c0.3-0.2,0.5-0.6,0.4-1L24,20.9l4-3.9c0.3-0.3,0.4-0.7,0.3-1.1s-0.4-0.6-0.8-0.7L22,14.4l-2.5-5c-0.2-0.3-0.5-0.6-0.9-0.6
			S17.9,9,17.7,9.4l-2.5,5l-5.5,0.8c-0.7,0.1-1,0.4-1.1,0.8C8.5,16.3,8.6,16.7,8.8,17z M15.8,16.4c0.3,0,0.6-0.3,0.8-0.6l1.8-3.6
			l1.8,3.6c0.2,0.3,0.4,0.5,0.8,0.6l4,0.6l-2.9,2.9c-0.2,0.2-0.3,0.6-0.3,0.9l0.7,4l-3.6-1.9c-0.1-0.1-0.3-0.1-0.5-0.1
			s-0.3,0-0.5,0.1l-3.6,1.9l0.7-4c0.1-0.3-0.1-0.7-0.3-0.9L11.8,17L15.8,16.4z"/>
		<path class="st0" d="M19.3,2c0,0.5-0.4,0.9-0.9,0.9S17.5,2.6,17.5,2s0.4-0.9,0.9-0.9S19.3,1.5,19.3,2z"/>
		<path class="st0" d="M14,1.7c-7.8,2-13.3,9-13.3,17.1c0,5,2.1,9.7,5.8,13.1l-5.6,9.9c-0.2,0.3-0.2,0.7,0.1,1
			c0.2,0.3,0.6,0.4,0.9,0.4l6.4-1.3l2.2,6.3c0.1,0.3,0.4,0.6,0.8,0.6s0.7-0.2,0.9-0.5l6.2-10.9l6.2,10.9c0.2,0.3,0.5,0.5,0.8,0.5
			h0.1c0.4,0,0.7-0.3,0.8-0.6l2.2-6.3l6.4,1.3c0.4,0.1,0.7-0.1,0.9-0.4c0.2-0.3,0.2-0.7,0.1-1l-5.6-9.9c3.7-3.3,5.8-8.1,5.8-13.1
			c0-8.1-5.5-15.1-13.3-17.1c-0.5-0.1-1,0.2-1.1,0.7s0.2,1,0.7,1.1c7,1.8,11.9,8.1,11.9,15.3c0,8.8-7.1,15.8-15.8,15.8
			s-15.8-7-15.8-15.8c0-7.2,4.9-13.5,11.9-15.3c0.5-0.1,0.8-0.6,0.7-1.1C15,1.8,14.5,1.5,14,1.7z M11.6,45.6l-1.8-5.1
			c-0.2-0.4-0.6-0.7-1.1-0.6L3.6,41L8,33.1c2.6,1.9,5.6,3,8.8,3.3L11.6,45.6z M28.1,39.8c-0.5-0.1-0.9,0.2-1.1,0.6l-1.8,5.1L20,36.3
			c3.2-0.3,6.2-1.4,8.8-3.3l4.4,7.8L28.1,39.8z"/>
	</g>
</g>
</svg>
