<?xml version="1.0" encoding="utf-8"?>
<!-- Generator: Adobe Illustrator 24.0.0, SVG Export Plug-In . SVG Version: 6.00 Build 0)  -->
<svg version="1.1" id="Capa_1" xmlns="http://www.w3.org/2000/svg" xmlns:xlink="http://www.w3.org/1999/xlink" x="0px" y="0px"
	 viewBox="0 0 308.4 308.4" style="enable-background:new 0 0 308.4 308.4;" xml:space="preserve">
<style type="text/css">
	.st0{fill:#FFFFFF;}
</style>
<g>
	<g>
		<path class="st0" d="M154,12.3c-33.2,0-60.2,27.1-60.2,60.3s27,60.2,60.2,60.2s60.2-27,60.2-60.2S187.2,12.3,154,12.3L154,12.3z"
			/>
	</g>
	<g>
		<path class="st0" d="M185.5,166.8h-62.6c-51.3,0-93.1,41.8-93.1,93.1v10.5c0,18.4,15,33.4,33.4,33.4c16.4,0,165.6,0,182,0
			c18.4,0,33.4-15,33.4-33.4v-10.6C278.6,208.5,236.9,166.8,185.5,166.8L185.5,166.8z"/>
	</g>
</g>
</svg>
