<?xml version="1.0" encoding="utf-8"?>
<!-- Generator: Adobe Illustrator 24.0.0, SVG Export Plug-In . SVG Version: 6.00 Build 0)  -->
<svg version="1.1" id="Capa_1" xmlns="http://www.w3.org/2000/svg" xmlns:xlink="http://www.w3.org/1999/xlink" x="0px" y="0px"
	 viewBox="0 0 68.2 68.1" style="enable-background:new 0 0 68.2 68.1;" xml:space="preserve">
<style type="text/css">
	.st0{fill:#CBCBCB;}
	.st1{fill-rule:evenodd;clip-rule:evenodd;fill:#CBCBCB;}
</style>
<g>
	<path class="st0" d="M3.2,65.5l4.5-16.8c-2.5-4.6-3.9-9.7-3.9-15c0-17.1,13.9-31,31-31s31,13.9,31,31s-13.9,31-31,31
		c-5.1,0-10.2-1.3-14.7-3.8L3.2,65.5z M34.8,58.9c13.9,0,25.1-11.3,25.1-25.1c0-13.9-11.3-25.1-25.1-25.1C21,8.7,9.7,19.9,9.7,33.8
		c0,4.6,1.3,9.1,3.7,13l0.7,1.1l-2.5,9.4l9.4-2.5"/>
	<path class="st1" d="M46.3,38.1c-1.3-0.8-2.9-1.6-4.4-1c-1.2,0.5-1.9,2.3-2.6,3.2c-0.4,0.5-0.8,0.5-1.4,0.3
		c-4.3-1.7-7.6-4.6-10-8.6c-0.4-0.6-0.3-1.1,0.2-1.7c0.7-0.8,1.6-1.8,1.8-3c0.2-1.1-0.3-2.5-0.8-3.5c-0.6-1.3-1.3-3.2-2.6-3.9
		c-1.2-0.7-2.8-0.3-3.8,0.6C20.9,22,20,24.4,20,26.7c0,0.7,0.1,1.3,0.2,2c0.4,1.5,1.1,3,1.9,4.3c0.6,1,1.3,2,2,3
		c2.3,3.1,5.2,5.9,8.5,7.9c1.7,1,3.5,1.9,5.3,2.5c2.1,0.7,3.9,1.4,6.2,1c2.4-0.4,4.7-1.9,5.6-4.2c0.3-0.7,0.4-1.4,0.3-2.1
		C49.5,39.7,47.5,38.8,46.3,38.1z"/>
</g>
</svg>
